<svg width="1902" height="407" viewBox="0 0 1902 407" fill="none" xmlns="http://www.w3.org/2000/svg">
<path opacity="0.5" d="M1902 575.019L1802.89 523.582L1802.63 523.455L1802.47 523.519L1703.06 524.949L1861.58 513.971L1764.34 472.36L1884.32 463.508L1799.2 427.963L1798.77 427.785L1798.63 427.95L1782.8 429.989L1782.93 429.774L1761.74 417.541L1815.41 419.58L1772.14 402.725L1796.53 386.276L1790.77 386.352L1790.95 385.744L1744.42 372.308L1791.48 374.094L1781.92 368.56H1801.93V367.294H1779.73L1769.53 361.393C1770.19 360.874 1770.62 360.101 1770.62 359.202C1770.62 357.644 1769.33 356.391 1767.74 356.391C1766.14 356.391 1764.85 357.644 1764.85 359.202C1764.85 359.607 1764.94 360 1765.11 360.342L1750.29 367.294H1731.58V344.551H1805.01L1805.13 343.297L1781.58 339.03V294.379H1819.82V293.113H1781.58V267.179H1780.94L1764.9 265.963V255.833H1811.17L1811.21 254.567L1779.88 252.503V183.982H1804.06V182.716H1795.15V121.743H1748.23V121.693L1737.15 122.516V98.0378H1778.41V121.68H1779.71V96.7715H1737.15V96.6956L1659.26 104.787V128.328L1638.26 129.898V161.936H1632.72V161.961L1572.8 163.81V215.501H1574.1V165.038L1632.72 163.228V199.647H1621.64H1620.99V202.736L1578.32 201.407L1578.28 202.673L1620.99 204.003V211.335L1578.45 209.473L1578.4 210.74L1620.99 212.601V216.717H1622.29V200.926L1632.72 201.027V201.078H1634.02V201.04L1704.33 201.711V223.175L1670.12 222.149L1670.11 222.377L1669.45 222.352V235.205H1626.92V216.995H1577.21L1532.57 214.906V253.11L1524.75 252.313V193.898H1524.86V192.631H1524.75V144.208H1500.05V121.756H1480.92V107.636H1462.4V95.062H1457.19V45.7138H1432.92V34.507H1375.32L1315.87 52.5013V64.24H1316.63L1307.99 66.684V168.116H1306.3L1286.47 168.964V178.98L1280.21 179.094V190.567L1272.8 190.517V218.249L1265.84 217.844H1255.43V118.286H1238.91V88.0466H1208.62L1189.61 94.1629V124.099L1178.81 126.492V151.552H1164.21V118.286H1148.47V88.0466H1118.19L1099.17 95.9738V109.941H1099.16L1099.17 109.966V125.479L1087.59 128.746V237.18H1073.46V183.59H1027.71V183.603L1004.56 183.856V222.795L1002.92 222.263L970.145 222.238V227.379L970.08 227.506L970.145 227.544V233.217L970.093 233.305L970.145 233.331V239.042L970.119 239.08L970.145 239.092V244.854V244.867V284.819L960.215 298.951L957.473 293.772C958.019 293.354 958.37 292.721 958.37 291.999C958.37 290.758 957.33 289.745 956.056 289.745C955.029 289.745 954.158 290.403 953.859 291.315L942.695 295.367L928.072 291.809C928.02 290.707 927.176 289.821 926.071 289.681V209.22H900.726V193.543L900.401 193.568L884.388 171.408L872.521 170.104L872.495 170.053H867.309V141.498L845.824 135.242V112.259L828.941 105.218L822.312 105.167L817.217 103.027L816.957 103.61V102.976H785.048V132.633H770.491V217.527H752.697L740.298 219.173V165.507L725.949 164.431V154.186L722.244 153.73V143.701L715.888 142.751L690.712 77.5616L690.608 77.3083L681.12 73.4587L681.081 73.2435H670.332L649.666 137.597L650.108 137.737H644.701V150.248H639.918V164.228H627.792V102.888L619.772 101.166V89.6042L595.077 82.8421V26.6432C595.077 26.2886 594.791 26.01 594.427 26.01C594.063 26.01 593.777 26.2886 593.777 26.6432V82.4749L585.823 80.2968V80.1449V23.3381C585.823 22.9836 585.537 22.705 585.173 22.705C584.809 22.705 584.523 22.9836 584.523 23.3381V80.1449H576.568V20.337C576.568 19.9824 576.283 19.7038 575.919 19.7038C575.555 19.7038 575.269 19.9824 575.269 20.337V80.1449H568.237V17.931C568.237 17.5764 567.951 17.2978 567.587 17.2978C567.223 17.2978 566.937 17.5764 566.937 17.931V80.1449H557.436V6.53417L603.057 24.6677V84.9948H604.357V23.8193L557.436 5.17921V4.96394H473.719V120.401L445.385 116.919V116.843H415.14L385.349 113.17V56.2242L373.613 53.8436L373.847 37.8247L354.35 32.2656V32.6075H352.778V6.81276L330.084 0.354567V0H300.073V28.1501H301.373V1.26631H328.784V31.5691L315.332 28.5427V28.416H281.318V45.8531H271.53V107.206H261.21V92.0735L252.762 90.8959V77.7262L218.969 72.7243V72.6356H182.017V87.0716H172.763V182.45L166.043 182.425V168.597L151.785 168.179V168.204H111.025V182.349H98.092V183.615H148.678V235.673H149.978V183.628L172.75 183.729V236.294H93.153V237.56H190.907L156.711 239.903H86.3553V241.169H123.983V281.653H83.8858V282.919H123.983V317.135H83.8858V318.401H123.983V352.63H83.8858V353.896H123.983V398.344H88.8248V399.61H124.737L108.919 409.145L172.009 401.813L83.0669 432.369L83.3919 433.585L127.882 425.975L141.53 438.992L73.4748 472.144L68.6527 471.473L72.0321 472.841L70.3814 473.651L73.4878 473.436L179.365 516.491L56.799 483.769L56.4611 483.06L14.3362 538.689L88.8898 555.734L89.0848 555.784L89.4487 555.645L103.915 594.609L102.602 595.876L104.292 595.622L104.786 596.939L106.007 596.509L105.605 595.42L125.439 592.381L179.703 648.554L89.3837 594.407L89.1238 594.255L0 622.595L180.834 651.809L180.106 652.049L180.457 652.075L83.2619 688.126L84.6266 689.304L82.677 689.735L85.7444 690.304L178.299 769.993L453.625 758.039L453.651 758.052L459.448 757.786L458.018 757.52L645.845 734.587L645.949 734.651L646.157 734.549L1108.95 692.445L876.498 790.001L877.018 791.166L1113.05 692.103L1476.27 775.261L1476.57 774.033L1118.43 692.039L1585.03 688.988L1509.5 786.215L1510.54 786.975L1586.6 689.064L1822.86 750.619L1687.53 614.858C1687.68 614.566 1687.8 614.262 1687.89 613.933L1737.63 633.966L1737.83 634.485L1738.4 634.283L1887.27 694.23L1887.77 693.065L1740.18 633.637L1899.93 575.222L1902 575.019ZM151.772 182.349L149.328 182.336H149.263H148.678H112.324V169.458H151.772V182.349ZM164.73 182.4L153.071 182.349V169.47L164.73 169.812V182.4ZM1798.76 524.823L1576.43 604.018L1679.41 526.418L1679.93 526.077L1679.95 526.545L1798.76 524.823ZM1391 525.469C1388.25 525.469 1386.01 527.647 1386.01 530.331C1386.01 531.053 1386.18 531.737 1386.48 532.345L1376.13 536.764L1294.42 534.877L1336.73 481.515L1491.05 537.131L1489.65 537.321L1408.59 536.182V536.296L1395.94 530.939C1395.97 530.737 1396.01 530.534 1396.01 530.319C1395.99 527.647 1393.76 525.469 1391 525.469ZM1210.18 575.285L1318.11 561.546L1278.35 578.527L1278.38 578.071L1210.18 575.285ZM1024.84 653.746L924.056 611.439L1151.66 631.446L1024.73 653.189L1024.84 653.746ZM920.339 609.843C920.248 607.234 918.064 605.145 915.361 605.145C913.008 605.145 911.046 606.741 910.526 608.868L834.478 620.911L885.961 592.95L886.455 593.026L886.442 593.039H886.506L1133.78 628.61L920.339 609.843ZM530.778 666.878L490.772 638.069L736.905 636.372L579.662 661.268L530.778 666.878ZM550.391 665.903L533.651 668.549L532.598 667.941L550.391 665.903ZM350.698 601.688C351.751 601.283 352.622 600.548 353.194 599.599L528.296 667.321L369.791 696.978L355.689 686.974L355.897 686.961L350.698 601.688ZM186.579 518.048L247.472 497.078L247.654 497.205L247.849 496.951L258.65 493.228C259.495 494.761 261.119 495.812 263.03 495.812C264.655 495.812 266.072 495.052 266.981 493.887L352.661 555.594L189.204 519.213L189.23 519.124L186.579 518.048ZM202.839 465.534L245.834 495.926L79.7526 473.005L199.459 464.736L197.666 465.129L202.839 465.534ZM159.518 435.092L279.446 447.35L202.956 463.977L159.024 436.523C159.258 436.08 159.427 435.599 159.518 435.092ZM193.13 426.43L229.458 414.097L286.153 396.47L349.151 426.874L287.27 418.073C287.283 417.921 287.322 417.782 287.322 417.617C287.322 415.388 285.464 413.577 283.176 413.577C280.889 413.577 279.03 415.388 279.03 417.617C279.03 419.149 279.914 420.466 281.214 421.15L282.786 446.324L195.261 427.697H281.357V426.43H193.13ZM179.469 401.142H208.103L208.389 401.13L227.794 413.324L201.578 422.226L202.449 421.289L179.469 401.142ZM224.61 111.486V279.855H225.909V111.524L236.645 112.271V278.804L211.794 281.476H211.183V294.19L210.013 294.341V236.218L209.351 236.268H208.194V111.486H224.61ZM208.194 110.22V88.3252H224.623V110.22H208.194ZM247.758 113.056V278.424H240.298L237.945 278.677V112.372L247.758 113.056ZM237.945 111.094V90.0981L247.758 91.4657V111.777L237.945 111.094ZM240.376 279.678H271.374L258.078 281.488H223.609L240.376 279.678ZM249.058 278.411V113.145L253.62 113.462V278.411H249.058ZM336.973 143.422V163.81H254.933V143.422H336.973ZM254.933 142.156V121.769H336.973V142.156H254.933ZM336.973 165.076V185.464H254.933V165.076H336.973ZM336.973 186.73V207.232H315.865V186.73H336.973ZM626.505 120.996V128.29L597.559 123.997V116.07L626.505 120.996ZM597.546 114.791V106.877L626.492 112.448V119.717L597.546 114.791ZM626.505 129.569V136.876L597.559 133.229V125.276L626.505 129.569ZM626.505 138.155V145.474L597.559 142.46V134.495L626.505 138.155ZM626.505 146.753V154.097L597.559 151.717V143.726L626.505 146.753ZM626.505 155.364V162.721L597.559 160.986V152.983L626.505 155.364ZM626.505 164V171.37L597.559 170.281V162.265L626.505 164ZM626.505 172.636V180.032L597.559 179.588V171.547L626.505 172.636ZM626.505 181.298V188.706L597.559 188.908V180.855L626.505 181.298ZM626.505 189.972V197.393L597.559 198.241V190.175L626.505 189.972ZM626.505 198.659V206.092L597.559 207.586V199.507L626.505 198.659ZM597.546 208.853L626.492 207.359V214.804L597.546 216.957V208.853ZM597.572 218.223L626.505 216.083V223.542L597.559 226.341V218.223H597.572ZM597.585 227.607L626.505 224.808V232.28L597.559 235.737V227.607H597.585ZM597.598 237.003L626.505 233.559V241.042L597.559 245.158V237.016H597.598V237.003ZM597.611 246.412L626.505 242.309V249.805L597.559 254.579V246.412H597.611ZM597.624 255.846L626.492 251.097V258.594L597.546 264.026V255.846H597.624ZM597.637 265.28L626.492 259.872V267.382L609.829 270.889L609.907 271.244H599.847L597.546 271.712V265.28H597.637ZM626.505 268.686V271.244H614.326L626.505 268.686ZM599.912 272.51H636.63L613.793 277.727H574.684L599.912 272.51ZM641.608 283.92V294.076L636.903 295.418V285.287L641.608 283.92ZM636.903 283.97V273.751L641.608 272.675V282.59L636.903 283.97ZM642.609 295.114H673.868L653.904 302.079H618.108L642.609 295.114ZM659.375 234.508V269.091L644.935 272.206V236.218L659.375 234.508ZM644.935 234.939V185.705L659.375 185.768V233.229L644.935 234.939ZM661.325 234.268H666.316V269.079H660.675V234.356L661.325 234.268ZM660.675 233.077V185.781L666.316 185.806V233.001H661.247L660.675 233.077ZM666.316 270.345V293.848H660.675V270.345H666.316ZM692.22 347.463L703.19 341.942L706.933 353.428L700.305 351.148C700.058 349.844 698.888 348.856 697.471 348.856C696.106 348.856 694.963 349.793 694.664 351.034L688.061 354.352L678.248 353.529V347.463H692.22ZM692.155 141.954L692.168 141.751H699.98V162.48L692.324 161.911H692.181L692.155 141.954ZM712.067 355.2V350.477H725.273V365.711H712.067V356.543L712.093 356.555L712.522 355.365L712.067 355.2ZM790.156 217.514V159.302H807.69V217.527H799.098L798.462 217.616V217.514H790.156ZM790.156 158.036V133.887H807.69V158.036H790.156ZM799.189 218.781H808.197L792.912 221.085V221.022H783.8L799.189 218.781ZM874.796 254.833L866.711 258.897H800.801L812.369 254.833H874.796ZM831.527 253.566V134.102L835.257 135.204H834.854V253.566H831.527ZM841.639 253.389V253.566H836.154V135.331L841.119 135.356V253.389H841.639ZM842.419 194.151V159.973L851.218 161.303V182.222L842.419 194.151ZM842.939 196.038H845.343V253.579H842.939V196.038ZM846.643 253.566V196.025H849.36V253.566H846.643ZM850.659 253.566V196.025H853.376V253.566H850.659ZM854.676 253.566V196.025H857.392V253.566H854.676ZM858.679 253.566V196.025H861.395V253.566H858.679ZM862.695 253.566V196.025H865.412V253.566H862.695ZM866.711 253.566V196.025H869.428V253.566H866.711ZM870.728 253.566V196.025H873.431V253.566H870.728ZM904.664 371.637L904.846 371.662L904.95 371.574L973.655 355.124L951.117 397.343L911.02 389.897C911.124 389.543 911.202 389.176 911.202 388.796C911.202 386.567 909.343 384.756 907.055 384.756C904.768 384.756 902.909 386.567 902.909 388.796C902.909 389.555 903.143 390.265 903.52 390.872L899.699 394.431L807.599 385.073L903.624 371.789L903.572 371.916L904.664 371.637ZM917.375 301.483L908.68 312.475V239.042L917.493 234.61V300.559L916.713 300.217L917.375 301.483ZM918.038 302.724L925.707 317.312L919.663 330.153L908.979 314.172L918.038 302.724ZM949.037 316.198L950.467 317.654L949.83 315.679L965.323 311.601L973.772 352.035L948.647 324.847C948.881 324.492 949.024 324.062 949.024 323.606C949.024 322.365 947.985 321.352 946.711 321.352C945.437 321.352 944.397 322.365 944.397 323.606C944.397 323.91 944.462 324.201 944.566 324.454L940.329 330.393L940.316 330.102L922.367 330.748L948.245 316.375L949.011 316.325L949.037 316.198ZM1094.36 257.631L1155.23 279.5L1155.45 278.905V279.538H1189.88V272.27L1229.34 283.426H1146.76L1090.39 262.114L1015.68 262.076L992.839 248.78H1008.19V251.034L1019.59 257.542L1019.91 256.998V257.631H1094.36ZM1020.58 256.365V245.006H1093.82V256.365H1020.58ZM1095.13 256.567V245.323L1154.81 263.19V278.019L1095.13 256.567ZM1234.42 152.818V168.242H1216.59V152.818H1234.42ZM1216.59 151.552V136.914H1234.42V151.552H1216.59ZM1234.42 169.508V185.008H1216.59V169.508H1234.42ZM1234.42 186.274V198.482H1216.59V186.274H1234.42ZM1234.42 199.748V216.983H1216.59V199.748H1234.42ZM1234.42 218.236V235.319H1216.59V218.236H1234.42ZM1239.86 236.585V236.496L1259.89 239.358V239.447H1297.76V239.358L1321.4 242.233H1247.5L1210.27 236.585H1239.86ZM1254.18 151.552H1235.72V136.914H1254.18V151.552ZM1259.89 220.87V238.079L1249.76 236.636V219.996L1259.89 220.87ZM1254.18 152.818V168.242H1235.72V152.818H1254.18ZM1254.18 169.508V185.008H1235.72V169.508H1254.18ZM1254.18 186.274V198.482H1235.72V186.274H1254.18ZM1254.18 199.748V216.983H1235.72V199.748H1254.18ZM1248.47 219.882V236.446L1240.36 235.281V219.173L1248.47 219.882ZM1239.05 218.236V235.319H1235.72V218.236H1239.05ZM1261.19 238.181V220.946H1280.25V238.181H1261.19ZM1281.57 238.181V220.946H1296.47V238.181H1281.57ZM1361.29 61.0362V74.1932L1343.6 78.3467V65.6709L1361.29 61.0362ZM1343.6 64.354V57.9211L1361.29 52.9065V59.7193L1343.6 64.354ZM1361.29 75.4848V88.6418L1343.6 92.3268V79.6383L1361.29 75.4848ZM1361.29 89.9208V103.065L1343.6 106.282V93.6058L1361.29 89.9208ZM1361.29 104.344V228.607L1356.79 228.253H1343.62V107.561L1361.29 104.344ZM1356.74 229.519L1380.89 231.406H1352.26L1331.4 229.519H1356.74ZM1381.5 70.7362V84.4377L1362.58 88.3759V75.1809L1381.5 70.7362ZM1362.59 73.8893V60.6943L1381.52 55.743V69.4445L1362.59 73.8893ZM1381.5 85.7166V99.4055L1362.58 102.837V89.6549L1381.5 85.7166ZM1381.5 100.672V129.493H1382.39L1377.8 130.152V149.399L1363.61 150.463V228.797L1362.59 228.721V104.116L1381.5 100.672ZM1436.14 70.5209V84.2097H1419.55V70.5209H1436.14ZM1419.53 69.2546V55.5531H1436.13V69.2546H1419.53ZM1436.14 85.476V95.062H1424.65L1419.55 95.8978V85.476H1436.14ZM1424.1 96.4296V108.346L1406.26 110.929V99.3548L1418.71 97.316H1419.53V97.1768L1424.1 96.4296ZM1418.23 54.2868H1401.01V46.9802H1418.23V54.2868ZM1418.23 55.5531V69.2546H1401.01V55.5531H1418.23ZM1418.23 70.5209V84.2097H1401.01V70.5209H1418.23ZM1418.23 85.476V96.1131L1404.96 98.2785V99.1775H1401.01V85.476H1418.23ZM1404.96 100.444V111.119L1401.01 111.689V100.444H1404.96ZM1428.42 109.004V122.883H1428.61L1396.38 127.492V113.639L1428.42 109.004ZM1399.71 54.2868H1382.8V46.9802H1399.71V54.2868ZM1399.71 55.5531V69.2546H1382.8V55.5531H1399.71ZM1399.71 70.5209V84.2097H1382.8V70.5209H1399.71ZM1399.71 85.476V99.1775L1382.8 99.1902V85.476H1399.71ZM1399.71 100.444V111.879L1395.09 112.55V127.67L1382.8 129.43V100.444H1399.71ZM1435.83 123.123V145.069L1379.1 149.311V131.253L1435.83 123.123ZM1487.22 193.885V248.463L1465.48 246.247H1412.87V250.261L1401 248.767V193.72L1446.85 193.898V246.196H1448.15V193.898H1487.22V193.885ZM1448.17 192.619V145.461H1487.22V192.619H1448.17ZM1676.96 291.859V291.771H1697.95V290.049L1724.77 293.113H1663.76L1621.01 287.212H1652.06V288.871L1676.96 291.859ZM1761.07 240.587L1719.26 237.801V223.593H1718.63L1705.69 223.2V201.698H1766.12V251.578L1761.72 251.287V240.574H1761.07V240.587ZM1742 240.587H1719.26V239.067L1742 240.587ZM1760.39 241.853V251.211L1747.46 250.362H1706.91V241.853H1760.39ZM1764.2 267.179H1735.92L1686.42 262.456H1701.68L1764.2 267.179ZM1702.4 261.227V251.667L1763.64 255.782V265.849L1702.4 261.227ZM1752.59 320.731V303.953H1767.96V320.731H1752.59ZM1767.96 321.998V338.32H1752.59V321.998H1767.96ZM1733.27 302.686V302.724L1710.99 299.647H1736.4L1759.13 302.699H1733.27V302.686ZM1733.92 320.731V303.94H1751.29V320.719L1733.92 320.731ZM1751.29 321.998V338.32H1733.92V321.998H1751.29ZM1717.4 317.996V301.813L1732.6 303.915V320.592L1717.4 317.996ZM1732.62 321.858V338.181L1717.41 335.079V319.288L1732.62 321.858ZM1687.49 327.038L1664.31 322.517V294.367H1735.24V298.368H1701.14V331.546H1688.09V327.038H1687.49ZM1710.64 355.314L1688.07 350.743V336.902L1730.3 344.437V367.129L1711.24 363.077V355.302H1710.64V355.314ZM1356.31 487.239L1336.71 480.173L1336.27 480.008L1336.13 480.185L1223.96 500.142L1203.74 486.074L1204.11 485.808L1205.7 485.833L1432.27 467.801L1356.31 487.239ZM348.891 592.317C346.136 592.317 343.9 594.495 343.9 597.18C343.9 597.737 344.017 598.269 344.199 598.763L244.197 631.244L355.442 557.734L355.767 557.76L488.445 637.968L526.203 665.156L353.701 598.434C353.818 598.028 353.896 597.61 353.896 597.18C353.883 594.483 351.647 592.317 348.891 592.317ZM263.03 486.086C260.275 486.086 258.039 488.264 258.039 490.949C258.039 491.329 258.091 491.696 258.182 492.051L247.693 495.66L205.334 465.711L276.522 471.271L276.405 471.942L414.828 495.153L267.956 490.291C267.618 487.923 265.552 486.086 263.03 486.086ZM210.013 369.206V368.395H257.935L244.288 375.651L210.013 369.206ZM241.558 376.424L241.389 376.474L241.038 376.335L241.558 376.424ZM241.025 376.322L240.908 376.601L210.026 384.908V370.497L241.025 376.322ZM211.833 297.178H258.234L281.396 293.848V292.683H306.611L265.968 298.178H210.026V295.633L211.196 295.481V297.191H211.833V297.178ZM212.483 295.912V282.742H257.48V295.912H212.483ZM292.209 207.789V224.276L276.184 225.214V208.448L292.209 207.789ZM276.184 207.194V187.275L292.209 187.465V206.523L276.184 207.194ZM292.209 225.543V242.068L276.184 243.246V226.48L292.209 225.543ZM292.209 243.347V259.683L276.184 261.278V244.525L292.209 243.347ZM292.209 260.949V279.26L281.383 280.615V278.31L280.694 278.399H276.184V262.519L292.209 260.949ZM292.209 280.539V291.416H281.383V281.906L292.209 280.539ZM280.096 279.766V292.746L258.793 295.823V282.653L280.096 279.766ZM299.306 225.517V242.017H293.509V225.517H299.306ZM293.509 224.251V207.764H314.565V220.034L299.956 220.591H299.319V224.251H293.509ZM299.306 243.271V245.297H314.565V259.645H293.509V243.258H299.306V243.271ZM341.288 268.876V270.358H370.922V272.016H311.862L341.288 268.876ZM315.865 270.307V262.62H336.973V268.053L315.865 270.307ZM338.273 267.914V245.297H341.288V267.584L338.273 267.914ZM370.922 245.31V255.466H342.588V245.31H370.922ZM351.543 244.044V221.858H370.922V244.044H351.543ZM370.922 256.732V269.091H342.588V256.732H370.922ZM519.081 201.698V218.312H454.938V201.698H519.081ZM464.205 200.115V199.279L477.723 198.938V199.672L464.205 200.115ZM488.433 177.182V163.253L503.341 163.671V177.309L488.433 177.182ZM493.216 198.545L506.109 198.216V198.748L493.216 199.165V198.545ZM491.916 178.487V197.317L479.022 197.646V178.385L491.916 178.487ZM491.916 198.583V199.216L479.022 199.634V198.912L491.916 198.583ZM596.247 190.162V198.228H569.927V197.975H536.432V190.149H596.247V190.162ZM536.432 188.896V180.842H596.247V188.896H536.432ZM590.71 264.026V255.846L596.247 255.833V264.026H590.71ZM596.247 265.292V271.991L590.71 273.131V265.292H596.247ZM590.71 254.579V246.412H596.247V254.579H590.71ZM590.71 245.158V237.016H596.247V245.171H590.71V245.158ZM590.71 235.737V227.607H596.247V235.737H590.71ZM590.71 226.341V218.223H596.247V226.341H590.71ZM590.71 216.957V214.146L569.927 215.526V208.84H596.247V216.945H590.71V216.957ZM575.893 216.4L589.423 215.501V273.245H590.164L575.958 276.17V216.4H575.893ZM589.683 291.923V302.231H580.182V291.923H589.683ZM580.182 290.657V278.994H589.683V290.657H580.182ZM608.815 303.497L586.615 310.196H546.531L569.381 303.75L569.303 303.497H608.815ZM600.484 291.923V302.231H590.983V291.923H600.484ZM590.983 290.657V278.994H600.484V290.657H590.983ZM622.021 289.618V299.647L614.521 301.775V291.796L622.021 289.618ZM614.521 290.479V278.854L622.021 277.145V288.301L614.521 290.479ZM626.037 316.578V329.748H614.313V316.578H626.037ZM614.313 315.312V303.497H614.534V303.345H626.05V315.312H614.313ZM651.291 331.014L631.21 339.372H590.372L613.767 331.014H651.291ZM638.696 316.578V329.748H627.337V316.578H638.696ZM627.337 315.312V303.345H638.696V315.312H627.337ZM647.86 357.201V346.716L653.968 343.867V354.124L647.86 357.201ZM653.968 355.555V365.293L647.86 368.37V358.632L653.968 355.555ZM647.86 345.323V333.825L653.968 331.28V342.461L647.86 345.323ZM653.358 315.312H639.996V303.345H653.358V315.312ZM653.358 316.578V329.748H639.996V316.578H653.358ZM640.152 361.089V350.325L646.573 347.324V357.847L640.152 361.089ZM646.56 359.278V369.016L640.139 372.245V362.507L646.56 359.278ZM640.152 348.92V337.029L646.573 334.357V345.918L640.152 348.92ZM694.716 352.44C695.067 353.618 696.158 354.479 697.471 354.479C698.069 354.479 698.628 354.301 699.096 353.997L710.456 366.255L695.898 376.474L670.189 364.786L688.347 355.656L688.958 355.707L688.997 355.34L694.716 352.44ZM710.767 356.087V364.698L699.967 353.048C700.071 352.87 700.161 352.668 700.214 352.465L710.767 356.087ZM724.194 374.537C724.675 374.904 725.286 375.132 725.949 375.132C727.365 375.132 728.535 374.144 728.782 372.84L796.551 384.794L715.057 388.606L724.194 374.537ZM741.104 373.727L764.018 371.637L795.485 383.313L741.104 373.727ZM799.722 386.947C799.735 386.985 799.761 387.01 799.774 387.036L740.441 455.036L710.092 425.468L799.722 386.947ZM898.464 395.57L855.871 435.181L806.351 388.15C806.871 387.656 807.261 387.023 807.456 386.314L898.464 395.57ZM997.362 267.736V283.742L991.773 278.437V263.646L997.362 267.736ZM991.773 262.063V249.628L997.362 252.882V266.141L991.773 262.063ZM997.362 285.515V301.61L991.773 295.532V280.209L997.362 285.515ZM997.362 303.51V317.781L991.773 310.664V297.444L997.362 303.51ZM1006.16 331.065V331.28H1006.33L1014.41 341.575L975.942 353.2L991.318 312.171L1006.16 331.065ZM1006.16 274.156V292.1L998.662 284.983V268.686L1006.16 274.156ZM998.662 267.103V253.642L1006.16 258.011V272.574L998.662 267.103ZM1006.16 293.873V311.171L998.662 303.016V286.744L1006.16 293.873ZM1006.16 313.07V328.975L998.662 319.427V304.915L1006.16 313.07ZM1070.52 280.792V292.48H1052.85V280.792H1070.52ZM1052.84 279.526V263.342H1070.51V279.526H1052.84ZM1081.16 293.746L1099.82 304.485H1063.82L1048.2 293.746H1081.16ZM1089.5 280.792V297.077L1081.51 292.48H1071.82V280.792H1089.5ZM1071.82 279.526V263.342H1089.51V279.526H1071.82ZM1099.69 285.275V302.94L1090.8 297.824V281.159L1099.69 285.275ZM1090.8 279.766V263.633L1099.69 266.989V283.869L1090.8 279.766ZM1111.73 290.846V313.691L1102.84 308.562V304.751L1100.99 303.687V285.87L1111.73 290.846ZM1100.99 284.477V267.483L1111.73 271.548V289.454L1100.99 284.477ZM1111.73 315.16V322.238L1102.84 316.578V310.044L1111.73 315.16ZM1101.54 305.751V327.937H1064.25V305.751H1101.54ZM1062.96 305.447V327.126L1046.97 312.665V294.468L1062.96 305.447ZM1051.54 279.526H1033.85V263.342H1051.54V279.526ZM1051.54 280.792V292.48H1045.67V301.18H1033.86V280.792H1051.54ZM1045.67 302.446V308.347H1033.86V302.446H1045.67ZM1045.67 309.613V313.21L1063.35 329.203H1102.84V318.085L1131.03 336.054H1058.63L1042.65 321.744V321.643H1042.53L1029.08 309.601H1045.67V309.613ZM1127.47 298.14V322.77L1113.03 314.438V291.442L1127.47 298.14ZM1113.03 290.049V272.042L1127.74 277.613H1127.47V296.747L1113.03 290.049ZM1127.47 324.239V332.28L1113.03 323.074V315.919L1127.47 324.239ZM1196.37 253.022V233.622L1208.94 235.331H1201.94L1201.24 235.23V253.959L1196.37 253.022ZM1201.24 254.757V274.169L1196.37 272.789V254.301L1201.15 255.212L1201.24 254.757ZM1215.29 169.508V185.008H1200.07V169.508H1215.29ZM1200.07 168.242V152.818H1215.29V168.242H1200.07ZM1215.29 186.274V198.469L1196.38 197.532V186.274H1215.29ZM1215.29 199.735V216.894L1196.38 215.032V198.798L1215.29 199.735ZM1215.29 218.16V234.901L1196.38 232.33V216.286L1215.29 218.16ZM1351.57 249.742V249.818H1397.78V249.628L1422.68 252.768H1352.26L1332.49 250.033V247.349L1351.57 249.742ZM1341.13 247.146V231.672L1351.56 232.609V248.45L1341.13 247.146ZM1352.87 248.552V232.672H1367.62V248.552H1352.87ZM1399.71 193.695V248.59L1397.78 248.349V231.418H1397.15L1364.9 228.898V193.568L1399.71 193.695ZM1364.9 192.302V151.628L1399.73 149.032V192.441L1364.9 192.302ZM1396.48 232.672V248.552H1383.73V232.672H1396.48ZM1368.91 248.552V232.672H1382.43V248.552H1368.91ZM1510.98 353.276C1511.48 353.656 1512.09 353.883 1512.76 353.883C1513.14 353.883 1513.51 353.807 1513.84 353.681L1525.09 366.103L1500.62 359.189L1510.98 353.276ZM1515.75 353.883L1528.54 360.836V367.091L1527.41 366.775L1515.75 353.883ZM1515.38 352.225C1515.55 351.87 1515.64 351.477 1515.64 351.072C1515.64 349.515 1514.35 348.261 1512.75 348.261C1511.15 348.261 1509.87 349.515 1509.87 351.072C1509.87 351.503 1509.97 351.908 1510.15 352.275L1498.88 358.695L1483.74 354.415L1483.69 354.263L1483.47 354.339L1474.63 351.845V322.124L1528.53 333.939V359.367L1515.38 352.225ZM1607.62 351.465L1629.81 356.454V395.697L1576.04 380.501V344.361L1606.84 351.288V351.465H1607.62ZM1685.73 385.605C1686.15 386.643 1687.19 387.39 1688.41 387.39C1689.45 387.39 1690.35 386.846 1690.86 386.048L1708.96 395.912H1656.52L1685.73 385.605ZM1691.27 384.819C1691.28 384.743 1691.3 384.655 1691.3 384.579C1691.3 383.021 1690.01 381.768 1688.41 381.768C1686.9 381.768 1685.68 382.895 1685.55 384.326L1653.06 395.786L1652.75 395.9V395.912H1631.11V356.568L1709.94 356.581V394.988L1691.27 384.819ZM1003.96 505.448C1001.68 505.448 999.819 507.259 999.819 509.488C999.819 510.108 999.975 510.691 1000.23 511.223L990.096 518.517L955.627 519.872L971.237 510.843L971.796 510.906L971.848 510.501L1034.07 474.525C1034.78 475.095 1035.69 475.462 1036.69 475.462C1038.06 475.462 1039.27 474.804 1040.02 473.816L1134.43 515.503L1016.4 513.768L1007.83 510.906C1007.99 510.463 1008.1 509.982 1008.1 509.488C1008.1 507.246 1006.25 505.448 1003.96 505.448ZM432.114 602.422L358.653 558.013L554.538 575.488L431.88 601.409L432.114 602.422ZM428.748 483.161L429.19 483.263L429.229 483.187L432.53 483.44L432.231 483.313L475.11 485.314L424.29 495.444L283.215 471.802L426.668 482.997L426.551 483.06L428.748 483.161ZM264.616 323.783V348.388H219.424V323.796L264.616 323.783ZM219.437 322.53V299.432H264.629V322.53H219.437ZM259.872 349.654H265.461L265.604 349.629H265.916V349.565L305.506 341.284V355.213L296.291 357.442L285.568 354.707C285.581 354.631 285.594 354.555 285.594 354.466C285.594 352.908 284.307 351.655 282.708 351.655C281.11 351.655 279.823 352.908 279.823 354.466C279.823 355.2 280.122 355.859 280.59 356.353L263.719 365.318L259.872 366.243V349.654ZM292.677 319.199V342.563H293.21L265.916 348.274V323.745L292.677 319.199ZM265.916 322.466V299.432H266.007V298.799L266.098 299.432L292.677 295.836V317.92L265.916 322.466ZM300.606 291.404V273.27H340.053V308.094H316.424V291.34L315.085 291.518V291.404H300.606ZM334.581 344.804L327.381 342.651C327.368 341.106 326.081 339.865 324.495 339.865C322.897 339.865 321.61 341.119 321.61 342.677C321.61 343.449 321.922 344.146 322.442 344.652L319.582 347.577L319.621 347.362L306.897 345.007L306.78 345.576V341.018L315.995 339.093V339.435H351.881L334.464 344.424L334.581 344.804ZM332.099 358.974C331.735 357.822 330.656 356.973 329.343 356.973C327.745 356.973 326.458 358.227 326.458 359.784C326.458 359.936 326.484 360.088 326.51 360.24L322.65 364.394L322.702 364.191L308.664 360.608L323.572 345.323C323.858 345.425 324.17 345.488 324.495 345.488C325.093 345.488 325.652 345.311 326.107 345.007L351.296 365.217L332.099 358.974ZM306.806 355.593V346.273L318.711 348.476L308.248 359.215L306.806 355.593ZM307.261 360.253L298.916 358.126L305.766 356.467L307.261 360.253ZM316.424 338.169V309.36H340.053V338.169H316.424ZM315.124 292.797V314.096L293.977 317.692V295.658L315.124 292.797ZM315.124 315.388V337.979L293.977 342.398V318.971L315.124 315.388ZM281.837 357.138C282.11 357.227 282.409 357.29 282.708 357.29C283.579 357.29 284.359 356.897 284.892 356.302L288.596 359.316L268.671 364.141L281.837 357.138ZM287.036 356.403L293.652 358.088L290.156 358.936L287.036 356.403ZM296.278 358.759L321.831 365.28L311.576 376.322L291.391 359.936L296.278 358.759ZM327.082 361.507C327.615 362.165 328.42 362.596 329.343 362.596C330.227 362.596 331.007 362.203 331.527 361.595L355.897 381.628L312.953 376.702L327.082 361.507ZM352.245 397.812L384.505 407.107L351.673 425.949L352.245 397.812ZM351.244 396.204L350.984 396.128V396.343L317.503 396.862L356.82 383.566L351.244 396.204ZM386.22 407.588L386.259 407.6L395.189 402.447L447.88 440.803L352.921 426.696L386.22 407.588ZM430.035 371.511L430.061 371.561L430.1 371.536L441.434 376.715L429.957 386.782L420.677 367.952C420.807 367.775 420.937 367.585 421.028 367.382L430.035 371.511ZM443.773 377.791V378.019H493.424L520.601 388.036L431.439 387.2L442.72 377.298L443.773 377.791ZM459.916 363.735C459.565 362.558 458.473 361.697 457.161 361.697C455.562 361.697 454.275 362.95 454.275 364.508C454.275 364.799 454.34 365.078 454.418 365.344L445.073 373.537V219.578H486.275V367.914L459.916 363.735ZM486.275 369.206V374.03L463.282 365.559L486.275 369.206ZM455.081 366.458C455.601 366.99 456.342 367.319 457.148 367.319C458.33 367.319 459.357 366.623 459.799 365.622L486.275 375.385V376.753H445.073V375.246L455.081 366.458ZM586.07 325.898V339.372H572.708V325.898H586.07ZM572.708 324.632V311.462H586.07V324.632H572.708ZM585.914 340.638V352.908H572.708V340.638H585.914ZM585.914 354.175V365.534H572.708V354.175H585.914ZM585.914 366.8V376.753H572.708V366.8H585.914ZM585.914 378.019V378.197H587.213V378.019H600.731V378.197H602.031V378.019H615.548V378.197H616.848V378.019H631.21L645.286 384.655L636.097 393.899L569.719 378.019H571.408V378.197H572.708V378.019H585.914ZM587.447 325.898L596.247 322.808V335.927L587.356 339.106V325.911H587.447V325.898ZM587.369 324.581V311.297L596.26 308.613V321.466L587.369 324.581ZM600.731 354.175V365.534H587.213V354.175H600.731ZM587.213 352.908V340.638H600.731V352.908H587.213ZM600.731 366.8V376.753H587.213V366.8H600.731ZM615.548 354.175V365.534H602.031V354.175H615.548ZM602.031 352.908V340.638H615.548V352.908H602.031ZM615.548 366.8V376.753H602.031V366.8H615.548ZM630.703 354.175V365.534H616.848V354.175H630.703ZM616.848 352.908V340.638H630.703V352.908H616.848ZM630.703 366.8V376.753H616.848V366.8H630.703ZM638.852 363.166V372.903L632.003 376.348V366.623L638.852 363.166ZM632.003 365.192V354.137L638.852 350.933V361.735L632.003 365.192ZM653.501 378.209C653.955 378.501 654.488 378.665 655.073 378.665C656.451 378.665 657.608 377.715 657.894 376.449L692.012 377.677L638.501 393.291L653.501 378.209ZM634.862 395.684L623.97 413.197L570.824 379.59L635.044 394.95L634.095 395.9L634.862 395.684ZM803.479 389.29C804.115 389.29 804.713 389.138 805.259 388.884L854.507 435.649L742.143 455.049L800.541 388.112C801.295 388.846 802.322 389.29 803.479 389.29ZM1041.36 347.729V373.727L1028.1 356.923V333.774L1041.36 347.729ZM1028.1 331.913V310.449L1041.35 322.302V345.842L1028.1 331.913ZM1056.23 394.659L978.009 355.048L1026.93 358.657L1027.01 357.619L1056.23 394.659ZM1145.87 396.735L1141.74 407.258L1124.35 397.179H1133.87V386.744L1145.87 396.735ZM1133.86 385.085V356.745L1145.99 365.685V395.165L1133.86 385.085ZM1144.19 408.677L1186.63 405.878L1200.77 420.2L1152.79 434.712L1153.18 435.928L1214.54 417.364C1214.56 417.44 1214.6 417.516 1214.63 417.592L1159.67 454.099L1143.05 408.93L1145.13 409.196L1144.19 408.677ZM1257.47 395.672L1252 408.993L1233.47 397.179H1234.55V391.417L1257.47 395.672ZM1234.55 390.113V372.891L1256.4 394.177L1234.55 390.113ZM1302.02 292.923V310.246L1281.1 303.788V287.212L1302.02 292.923ZM1281.1 285.895V284.996H1302.02V291.606L1281.1 285.895ZM1302.02 311.589V328.912L1281.1 321.681V305.13L1302.02 311.589ZM1302.02 330.241V347.552L1281.1 339.549V323.023L1302.02 330.241ZM1302.02 348.92V365.344L1281.1 355.479V340.916L1302.02 348.92ZM1302.02 366.737V366.977H1302.48L1328.53 383.566L1304.71 374.575L1304.62 374.512H1304.52L1281.1 365.913V356.885L1302.02 366.737ZM1335.21 273.599V294.038L1332.49 293.417V273.067L1335.21 273.599ZM1332.49 271.763V251.3L1335.21 251.679V272.308L1332.49 271.763ZM1335.21 295.342V315.767L1332.49 315.058V294.721L1335.21 295.342ZM1335.21 317.072V337.472L1332.49 336.674V316.363L1335.21 317.072ZM1335.21 338.802V359.291L1332.49 358.278V338.004L1335.21 338.802ZM1351.1 366.61L1334.27 385.161L1326.59 366.977H1332.49V359.633L1351.1 366.61ZM1373.26 276.879V297.874H1352.87V276.879H1373.26ZM1352.87 275.613V254.022H1373.26V275.613H1352.87ZM1373.26 299.128V320.124H1352.87V299.115L1373.26 299.128ZM1373.26 321.39V342.373H1352.87V321.39H1373.26ZM1373.26 343.652V365.572H1374.56V343.652H1394.1V362.216L1384.04 365.711H1352.86V343.639H1373.26V343.652ZM1413.61 276.879V297.874H1395.4V276.879H1413.61ZM1395.4 275.613V254.022H1413.61V275.613H1395.4ZM1413.61 299.128V320.124H1395.4V299.128H1413.61ZM1413.61 321.39V342.373H1395.4V321.39H1413.61ZM1413.61 343.652V365.572H1414.91V343.652H1432.13V365.723H1409.33L1403.96 361.621C1404.11 361.279 1404.18 360.911 1404.18 360.532C1404.18 358.974 1402.9 357.72 1401.3 357.72C1399.7 357.72 1398.41 358.974 1398.41 360.532C1398.41 360.595 1398.43 360.658 1398.43 360.722L1395.38 361.785V343.664H1413.61V343.652ZM1432.13 299.141V320.124H1414.91V299.128L1432.13 299.141ZM1414.91 297.874V276.879H1432.13V297.862H1414.91V297.874ZM1432.13 321.39V342.373H1414.91V321.39H1432.13ZM1443.92 375.158C1443.96 375.297 1443.99 375.436 1444.05 375.575L1427.47 391.202L1426.9 391.05L1411.06 385.997L1443.92 375.158ZM1460.63 380.311L1460.62 380.476L1461.05 380.501L1480.92 389.847L1430.19 390.404L1444.81 376.614C1445.32 377.057 1446 377.336 1446.74 377.336C1448.13 377.336 1449.3 376.373 1449.56 375.094L1460.63 380.311ZM1521.91 411.653L1482.49 395.862L1557.79 405.498L1521.91 411.653ZM1583.6 402.371L1549.94 420.77L1524.48 412.501L1583.6 402.371ZM1498.6 412.4C1497.86 411.729 1496.88 411.311 1495.79 411.311C1494.61 411.311 1493.54 411.805 1492.79 412.577L1431.39 414.502L1477.62 395.279L1518.78 411.754L1498.6 412.4ZM1265.72 376.677C1266.06 376.816 1266.44 376.892 1266.84 376.892C1268.01 376.892 1269.02 376.209 1269.46 375.221L1327.76 396.786L1259.26 394.583L1265.72 376.677ZM1333.33 397.356L1333.14 397.432L1270.28 374.182L1304.15 375.753L1333.33 397.356ZM1308.46 377.348L1333.44 386.782L1333.94 396.216L1308.46 377.348ZM1259.5 396.368L1293.69 410.943L1253.24 409.348L1258.6 396.318L1259.99 397.673L1259.5 396.368ZM1261.72 395.938L1331.23 398.179L1297.14 411.032L1261.72 395.938ZM1332.35 399.116L1333.49 398.686V398.787L1347.2 398.306L1323.61 414.021L1301.5 411.399L1332.35 399.116ZM1334.88 386.592L1356.42 373.423L1335.24 396.014L1334.78 387.289L1335.26 387.466L1334.88 386.592ZM1358.86 372.688C1359.37 373.106 1360.01 373.359 1360.72 373.359C1361.75 373.359 1362.64 372.827 1363.15 372.042L1423.65 391.341L1393.23 394.519L1371.6 382.059L1371.31 382.249L1337.18 395.824L1358.86 372.688ZM1366.22 385.643L1349.22 396.963L1336.66 397.407L1366.22 385.643ZM1349.63 398.217L1350.45 398.192L1350.44 397.685L1371.66 383.553L1392.9 395.786V395.824H1392.95L1425.56 414.616L1325.86 414.046L1349.63 398.217ZM1395.1 395.596L1426.68 392.303L1459.98 401.256L1427.99 414.565L1395.1 395.596ZM1477.79 393.988L1477.62 393.924L1461.92 400.458L1429.32 391.696L1482.42 391.113L1539.49 401.889L1477.79 393.988ZM1409.58 385.149L1409.72 385.554L1368.57 372.435L1384.26 366.977H1408.88L1425.68 379.843L1409.58 385.149ZM1398.82 361.912C1399.31 362.748 1400.23 363.317 1401.3 363.317C1402.03 363.317 1402.68 363.052 1403.18 362.621L1407.21 365.711H1387.9L1394.08 363.558V365.572H1395.38V363.115L1398.82 361.912ZM1394.1 275.613H1374.56V254.022H1394.1V275.613ZM1394.1 276.879V297.874H1374.56V276.879H1394.1ZM1394.1 299.128V320.124H1374.56V299.128H1394.1ZM1394.1 321.39V342.373H1374.56V321.39H1394.1ZM1380.4 366.977L1367.17 371.586L1367.34 372.042L1363.58 370.839C1363.59 370.738 1363.61 370.649 1363.61 370.548C1363.61 368.991 1362.32 367.737 1360.72 367.737C1359.12 367.737 1357.83 368.991 1357.83 370.548C1357.83 370.713 1357.86 370.865 1357.89 371.029L1337.55 383.477L1352.51 366.99H1380.4V366.977ZM1351.57 275.562L1336.51 272.561V251.857L1351.57 253.946V275.562ZM1351.57 276.866V297.811L1336.51 294.341V273.865L1351.57 276.866ZM1351.57 299.115V320.06L1336.51 316.109V295.646L1351.57 299.115ZM1351.57 321.365V342.297L1336.51 337.865V317.414L1351.57 321.365ZM1351.57 343.614V365.42L1336.51 359.772V339.182L1351.57 343.614ZM1332.67 384.693L1304.84 366.977H1325.18L1332.67 384.693ZM1300.31 374.309L1269.44 372.878C1268.97 371.941 1268 371.283 1266.85 371.283C1265.25 371.283 1263.97 372.536 1263.97 374.094C1263.97 374.778 1264.23 375.398 1264.64 375.892L1264.36 376.69L1249.59 366.99H1280.34L1300.31 374.309ZM1263.9 377.918L1258.34 393.329L1248.76 367.965L1263.9 377.918ZM1252.41 410.589L1254.76 410.754L1254.62 410.665L1299.79 412.45L1321.43 415.021L1267.46 439.334L1229.55 419.82L1252.41 410.589ZM1218.38 419.985C1220.11 419.985 1221.59 418.947 1222.22 417.478L1227.59 420.238L1227.73 420.567L1228 420.453L1265.38 439.689L1162.01 454.074L1215.34 418.643C1216.08 419.466 1217.18 419.985 1218.38 419.985ZM1228.05 419.061L1222.49 416.199C1222.49 416.11 1222.52 416.034 1222.52 415.945C1222.52 413.717 1220.66 411.906 1218.37 411.906C1216.08 411.906 1214.23 413.717 1214.23 415.945C1214.23 416.009 1214.24 416.059 1214.24 416.123L1202.12 419.782L1188.5 405.98L1249.5 410.386L1228.05 419.061ZM1036.67 467.383C1034.38 467.383 1032.52 469.194 1032.52 471.422C1032.52 472.208 1032.75 472.942 1033.16 473.55L1022.72 479.578V479.54L963.517 480.122L955.367 471.764L1067.64 450.68L1067.44 450.794L1067.98 450.617L1070.54 450.136L1194.25 484.415L1086.33 483.085V483.566L1040.73 472.132C1040.77 471.904 1040.81 471.663 1040.81 471.422C1040.81 469.194 1038.95 467.383 1036.67 467.383ZM964.751 481.376L1020.58 480.819L984.001 501.966L984.443 501.561L964.751 481.376ZM1006.98 419.668L982.961 403.523L991.071 384.566L1006.98 419.668ZM992.345 384.25L1056.58 396.799L1008.83 420.58L992.345 384.25ZM1008.59 422.188L1068.5 449.237L954.327 470.675L950.168 466.408L1008.59 422.188ZM1136.73 427.507L1142.11 410.196L1157.47 451.909L1136.73 427.507ZM1157.87 454.365L1072.94 448.996L1135.8 428.381L1157.87 454.365ZM1135.49 427.152L1078.57 445.818L1140.96 409.563L1135.49 427.152ZM1071.07 448.692L1059.57 398.217L1140.11 408.563L1071.07 448.692ZM1076.63 450.503L1157.4 455.606L1156.65 456.113L1159.15 455.758L1199.3 484.478H1199.24L1076.63 450.503ZM1132.56 363.735H1097.29V337.333H1132.56V363.735ZM1132.56 365.002V395.912H1122.15L1110.86 389.366C1111.05 388.986 1111.17 388.568 1111.17 388.112C1111.17 386.554 1109.88 385.301 1108.28 385.301C1106.68 385.301 1105.4 386.554 1105.4 388.112C1105.4 388.251 1105.42 388.39 1105.44 388.53L1097.27 389.809V364.989H1132.56V365.002ZM1105.94 389.733C1106.46 390.455 1107.32 390.923 1108.3 390.923C1108.95 390.923 1109.54 390.708 1110.02 390.353L1119.62 395.912H1097.29V391.1L1105.94 389.733ZM1121.8 397.179L1139.02 407.157L1061.39 397.179H1121.8ZM1066.65 395.912L1095.99 391.303V395.912H1066.65ZM1095.99 363.735H1059.04V337.333H1095.99V363.735ZM1095.99 365.002V390.024L1059.04 395.824V365.002H1095.99ZM1059.44 397.179L1059.4 397.445L1059.33 397.179H1059.44ZM1069.67 448.376L1009.98 421.428L1058.07 397.483L1069.67 448.376ZM1057.74 363.102L1042.66 347.235V323.492L1057.74 336.991V363.102ZM1057.74 364.964V394.494L1042.66 375.373V349.097L1057.74 364.964ZM1054.16 395.039L991.799 382.857L991.838 382.755L991.552 382.641L976.475 355.707L1054.16 395.039ZM990.304 383.047L982.493 401.307L976.046 357.568L990.304 383.047ZM1006.42 420.821H933.336L982.051 404.447L1006.42 420.821ZM1006.6 422.087L949.258 465.483L945.632 461.761L930.399 422.087H1006.6ZM943.344 459.418L917.83 433.256C917.83 433.193 917.856 433.129 917.856 433.053C917.856 430.825 915.998 429.014 913.71 429.014C912.216 429.014 910.929 429.786 910.201 430.939L866.906 434.51L929.047 422.176L943.344 459.418ZM909.655 432.268C909.603 432.521 909.577 432.787 909.577 433.066C909.577 433.155 909.603 433.231 909.603 433.319L805.571 488.898L856.17 436.675L909.655 432.268ZM718.605 461.102L695.534 452.934C695.43 450.794 693.637 449.085 691.414 449.085C689.127 449.085 687.268 450.896 687.268 453.124C687.268 453.314 687.294 453.504 687.32 453.681L668.292 466.585L683.772 405.182C683.889 405.194 684.006 405.22 684.136 405.22C685.071 405.22 685.916 404.903 686.618 404.397L739.895 456.303L718.605 461.102ZM741.455 457.278L795.836 488.442L720.854 461.9L741.455 457.278ZM506.889 482.186C506.499 479.881 504.458 478.121 501.976 478.121C500.013 478.121 498.324 479.236 497.505 480.857L479.425 484.465L479.438 484.263L431.127 482.009L470.418 460.52L470.483 460.583L470.678 460.38L478.84 455.923C479.594 456.695 480.647 457.176 481.83 457.176C482.844 457.176 483.766 456.809 484.494 456.214L588.279 491.367L519.847 487.302C514.505 485.175 510.047 483.427 506.889 482.186ZM445.242 510.108L425.876 496.432L497.063 482.287C497.05 482.338 497.05 482.376 497.05 482.427L445.242 510.108ZM612.52 447.198L652.929 474.93L547.337 456.911L612.52 447.198ZM543.321 456.227L456.303 442.145L575.035 435.966L609.764 446.337L543.321 456.227ZM612.26 445.754L575.386 434.737L566.3 429.267L623.164 414.983L612.26 445.754ZM565.261 428.216L565.391 428.722L529.972 407.385L525.137 389.593L621.28 414.147L565.261 428.216ZM528.374 406.41L516.481 399.243L428.033 417.997L430.347 388.454L523.734 389.328L528.374 406.41ZM528.868 408.196L529.063 408.93L529.778 408.74L573.007 434.788L452.728 441.044L516.377 400.648L528.868 408.196ZM532.637 455.771L485.911 453.795C485.95 453.58 485.976 453.352 485.976 453.124C485.976 450.896 484.117 449.085 481.83 449.085C479.542 449.085 477.684 450.896 477.684 453.124C477.684 453.745 477.84 454.327 478.099 454.859L470.6 458.962L452.728 442.855L532.637 455.771ZM592.841 492.874L592.919 492.899L602.927 509.969L554.044 500.662C543.035 496.356 532.429 492.19 523.682 488.758L592.841 492.874ZM602.563 511.197L601.771 511.742L603.98 511.527L621.228 526.811C612.13 523.379 585.992 513.173 560.465 503.194L602.563 511.197ZM594.31 492.722L644.103 483.022L604.409 509.944L594.31 492.722ZM593.244 491.633L593.101 491.62L485.404 455.15C485.43 455.112 485.443 455.074 485.469 455.049L543.269 457.493L653.891 476.374L646.781 481.198L593.244 491.633ZM613.832 446.552L681.042 403.827C681.445 404.283 681.952 404.663 682.524 404.903L666.693 467.687L655.606 475.209L613.832 446.552ZM680.327 402.763L613.897 444.995L624.672 414.616L680.275 402.573C680.301 402.649 680.314 402.712 680.327 402.763ZM571.408 324.632H558.814V311.462H571.408V324.632ZM571.408 325.898V339.372H558.814V325.898H571.408ZM571.408 340.638V352.908H558.814V340.638H571.408ZM571.408 354.175V365.534H558.814V354.175H571.408ZM571.408 366.8V376.753H564.416L563.662 376.576L563.948 376.753H558.814V366.8H571.408ZM565.95 378.019L620.851 412.729L525.813 388.454L542.151 378.019H557.514V378.197H558.814V378.019H565.95ZM541.306 376.639L534.509 375.563L541.306 372.84V376.639ZM557.514 340.638V352.908H542.606V340.638H557.514ZM542.606 339.372V325.898H557.514V339.372H542.606ZM557.514 354.175V365.534H542.606V354.175H557.514ZM557.514 366.8V376.753H542.606V366.8H557.514ZM557.514 324.632H542.606V311.462H557.514V324.632ZM545.011 309.309L541.865 310.196H541.306V340.005V340.309V371.473L532.065 375.17L528.907 374.664V219.54L545.011 218.464V309.309ZM529.765 376.095L528.907 376.436V375.955L529.765 376.095ZM532.221 376.487L540.201 377.753L524.163 387.998L497.089 378.019H528.894V377.817L532.221 376.487ZM527.607 376.753H493.658L487.575 374.512V369.408L527.607 375.753V376.753ZM489.992 376.753H487.575V375.867L489.992 376.753ZM418.389 369.092C418.844 369.092 419.273 368.978 419.663 368.788L428.514 386.757L402.753 374.79L403.416 374.664L402.454 374.385L415.984 367.788C416.478 368.573 417.375 369.092 418.389 369.092ZM428.423 388.125L428.072 388.428L429.047 388.441L426.837 416.73L402.311 375.993L428.423 388.125ZM426.98 419.364L444.098 436.485L416.387 416.313L426.98 419.364ZM428.605 419.174L513.037 401.269L450.428 441.006L428.605 419.174ZM450.623 442.665L469.417 459.608L430.399 480.945L450.623 442.665ZM443.955 510.767L443.5 510.995L389.795 522.012L268.385 491.582L424.082 496.736L443.955 510.767ZM390.107 523.24L439.12 513.185L361.213 552.137L390.107 523.24ZM443.942 512.198L446.646 511.641L617.978 529.432L357.548 555.797L358.367 554.974L443.942 512.198ZM447.321 510.45L497.076 483.87C497.505 486.137 499.532 487.859 501.976 487.859C504.523 487.859 506.616 485.985 506.902 483.579C509.917 484.757 513.96 486.352 518.756 488.226L518.743 488.492L519.561 488.543C528.413 492.013 539.643 496.419 551.457 501.042L551.366 501.472L553.654 501.903C582.144 513.059 613.26 525.203 621.852 528.419L621.293 528.533L447.321 510.45ZM605.709 511.349L793.561 492.874L624.373 527.875L605.709 511.349ZM606.619 509.982L647.288 482.389L647.938 482.262L647.886 481.984L667.772 468.497L667.837 468.51L667.85 468.447L687.762 454.935C688.451 456.239 689.828 457.138 691.44 457.138C693.325 457.138 694.911 455.898 695.404 454.213L718.189 462.28L718.241 462.482L718.553 462.406L799.384 491.012L606.619 509.982ZM742.325 456.303L853.857 437.055L853.779 437.118L853.974 437.08L802.14 490.582L742.325 456.303ZM909.889 434.611C910.513 436.067 911.995 437.093 913.71 437.093C915.387 437.093 916.817 436.118 917.466 434.725L944.501 462.444L944.592 462.685L944.696 462.647L983.39 502.32L970.938 509.513L804.362 490.962L909.889 434.611ZM969.092 510.602L952.963 519.935L817.841 493.76L969.092 510.602ZM1137.25 516.794L1197.93 574.488L1020.35 515.098L1137.25 516.794ZM1044.35 474.335L1179.12 508.12L1137.6 515.503L1044.35 474.335ZM1089.64 484.39L1199.03 485.744L1202.33 486.656L1222.17 500.459L1182.15 507.576L1089.64 484.39ZM1201.54 484.503L1161 455.505L1264.95 441.031L1203.71 484.529L1201.54 484.503ZM1267.61 440.714L1433.71 466.395L1205.91 484.542L1267.61 440.714ZM1269.66 439.752L1323.92 415.312H1324.29L1434.68 465.268L1269.66 439.752ZM1327.41 415.325L1424.82 415.882L1424.52 416.009L1427.44 415.92L1438.26 465.496L1327.41 415.325ZM1428.76 415.895L1430.36 415.907L1430.22 415.819L1491.96 413.881C1491.77 414.337 1491.66 414.831 1491.66 415.35C1491.66 415.629 1491.68 415.907 1491.75 416.173L1439.56 465.344L1428.76 415.895ZM1499.53 413.641L1521.75 412.944L1548.4 421.606L1547.43 422.138L1548.73 422.112L1541.63 431.926L1499.88 415.743C1499.9 415.616 1499.92 415.477 1499.92 415.35C1499.94 414.742 1499.78 414.16 1499.53 413.641ZM1540.88 433.003L1540.85 433.041L1541.92 433.775L1542.13 433.484L1618.11 462.938L1617.94 463.191L1618.76 463.242L1675.05 522.657L1501.17 417.617L1540.88 433.003ZM1542.89 432.42L1550.35 422.087L1645.01 420.365L1618.8 461.837L1542.89 432.42ZM1552.58 420.77L1584.13 403.523C1584.81 404.878 1586.21 405.815 1587.85 405.815C1589.66 405.815 1591.18 404.675 1591.75 403.105L1616.94 410.614L1617.82 411.095L1617.93 410.905L1645.34 419.086L1552.58 420.77ZM1617.46 409.449L1593.49 396.47L1630.44 397.179H1652.36L1646.17 418.009L1617.46 409.449ZM1591.17 395.153L1577.69 382.287L1625.54 395.811L1591.17 395.153ZM1630.52 355.314L1613.39 351.465H1686.74L1686.67 351.756L1704.26 355.314H1630.52ZM1686.77 350.198H1608.13V328.304H1686.77V350.198ZM1580.77 386.997L1562.64 372.726C1562.7 372.6 1562.74 372.448 1562.78 372.308L1574.74 374.689V381.451L1575.05 381.54L1580.77 386.997ZM1574.74 373.397L1562.83 371.029C1562.57 369.738 1561.4 368.775 1560 368.775C1558.4 368.775 1557.11 370.029 1557.11 371.586C1557.11 371.827 1557.15 372.068 1557.22 372.283L1555.5 374.018L1545.43 368.535H1574.74V373.397ZM1557.87 373.461C1558.4 374.03 1559.15 374.398 1560 374.398C1560.7 374.398 1561.34 374.144 1561.84 373.739L1588.4 394.633L1545.54 385.959L1557.87 373.461ZM1546.02 387.352L1590.57 396.368L1590.62 396.419H1590.71L1611.49 407.664L1592 401.851C1592 401.826 1592.01 401.813 1592.01 401.788C1592.01 399.559 1590.15 397.749 1587.86 397.749C1585.84 397.749 1584.16 399.167 1583.8 401.054L1560.65 405.017L1560.73 404.612L1485.26 390.366L1544.14 386.997L1546.4 387.795L1546.02 387.352ZM1482.6 389.239L1464.52 380.742L1540.68 385.769L1541.05 385.896L1482.6 389.239ZM1461.39 379.26L1449.45 373.651C1449.08 372.536 1448 371.726 1446.72 371.726C1445.4 371.726 1444.28 372.612 1443.96 373.803L1427.14 379.349L1421.33 374.892L1474.01 366.964H1474.63V366.939L1486.65 366.369L1486.8 366.762L1536.25 384.186L1461.39 379.26ZM1473.33 343.652V365.723H1453.33V343.652H1473.33ZM1453.34 342.385V321.39H1473.34V342.373H1453.34V342.385ZM1474.63 365.685V353.162L1482.74 355.454L1486.21 365.128L1474.63 365.685ZM1487.58 365.078L1484.27 355.897L1497.35 359.595L1487.74 365.078H1487.58ZM1474.63 320.833V319.946L1433.43 311.373V294.62L1528.53 313.032V332.647L1474.63 320.833ZM1469.27 320.124H1433.43V312.665L1469.27 320.124ZM1452.04 321.39V342.373H1433.43V321.39H1452.04ZM1452.04 343.652V365.723H1433.43V343.652H1452.04ZM1465.51 366.977L1419.92 373.828L1410.97 366.977H1465.51ZM1432.13 275.613H1414.91V254.022H1432.13V275.613ZM1339.83 246.981L1332.49 246.057V242.233H1331.88L1328.47 241.815V230.532L1339.83 231.558V246.981ZM1317.37 228.265L1316.7 228.202V240.397L1315.51 240.257V192.087H1340.76V228.265H1317.37ZM1318 229.582L1327.17 230.418V241.663L1318 240.549V229.582ZM1331.19 243.499V365.711H1303.32V283.73H1279.8V365.711H1248.1V243.499H1331.19ZM1256.73 392.709L1234.59 371.143L1234.55 371.181V360.57L1246.93 366.8L1256.73 392.709ZM1246.81 314.438V339.169L1234.57 333.914V310.082L1246.81 314.438ZM1234.55 308.739V285.009L1246.8 288.466V313.083L1234.55 308.739ZM1246.81 340.549V365.306L1234.57 359.139V335.294L1246.81 340.549ZM1246.81 261.341L1202.55 252.034V236.686L1246.81 243.41V261.341ZM1202.54 274.448V253.338L1246.8 262.646V287.161L1234.59 283.717L1234.62 283.628L1234.55 283.616V283.464H1234.02L1202.2 274.473H1202.54V274.448ZM1233.25 306.65V333.584H1206.56V306.65H1233.25ZM1206.56 305.384V284.692H1233.25V305.384H1206.56ZM1233.25 334.863V364.698H1206.56V334.851H1233.25V334.863ZM1233.25 365.964V389.872L1220.05 387.415C1219.98 385.908 1218.74 384.718 1217.18 384.718C1215.58 384.718 1214.29 385.972 1214.29 387.529C1214.29 387.833 1214.36 388.112 1214.45 388.39L1206.57 393V365.964H1233.25ZM1233.25 391.164V395.912H1231.49L1220.27 388.745L1233.25 391.164ZM1215.1 389.479C1215.62 390.011 1216.36 390.341 1217.16 390.341C1217.94 390.341 1218.63 390.037 1219.15 389.555L1229.11 395.912H1206.56V394.469L1215.1 389.479ZM1231.11 397.179L1249.85 409.145L1188.98 404.751L1201.93 397.179H1231.11ZM1204.09 395.912L1205.26 395.229V395.912H1204.09ZM1205.26 305.384H1177.78V284.692H1205.26V305.384ZM1205.26 306.65V333.584H1177.78V306.65H1205.26ZM1205.26 334.863V364.698H1177.78V334.851H1205.26V334.863ZM1205.26 365.964V393.747L1201.57 395.9H1177.78V365.964H1205.26ZM1199.39 397.179L1186.68 404.612L1147.04 407.22L1177.7 397.179H1199.39ZM1176.48 305.384H1147.29V284.692H1176.48V305.384ZM1176.48 306.65V333.584H1147.29V306.65H1176.48ZM1176.48 334.863V364.698H1147.29V334.851H1176.48V334.863ZM1176.48 365.964V395.912H1147.29V365.964H1176.48ZM1173.62 397.179L1143.17 407.157L1147.09 397.179H1173.62ZM1145.99 305.308L1128.77 297.343V277.993L1145.99 284.502V305.308ZM1145.87 306.65H1145.99V333.445L1128.77 323.517V298.736L1145.87 306.65ZM1145.73 334.775L1145.88 334.863H1145.99V364.103L1133.86 355.162V336.079H1133.41L1128.74 333.103H1128.77V324.999L1145.73 334.775ZM1032.56 279.526H1016.16V263.342H1032.56V279.526ZM1032.56 280.792V301.18H1016.16V280.792H1032.56ZM1032.56 302.446V308.347H1026.8V321.922H1016.14V302.433H1032.56V302.446ZM1026.8 323.201V332.229L1026.71 332.318L1026.8 332.419V341.284H1016.14V323.201H1026.8ZM1026.8 342.55V357.353L1026.81 357.366L978.347 353.795L1015.61 342.55H1026.8ZM1014.86 278.93L1007.47 273.536V258.771L1014.86 263.076V278.93ZM1014.86 280.513V300.356L1007.47 293.341V275.119L1014.86 280.513ZM1014.86 302.129V320.63L1007.47 312.602V295.114L1014.86 302.129ZM1014.86 322.517V340.043L1007.47 330.634V314.488L1014.86 322.517ZM981.427 402.978L952.443 397.597L974.526 356.226L981.427 402.978ZM979.633 403.928L929.697 420.707L908.927 392.379C909.538 392.075 910.058 391.645 910.448 391.1L979.633 403.928ZM904.352 391.847C905.08 392.455 906.016 392.835 907.042 392.835C907.237 392.835 907.432 392.81 907.627 392.772L928.345 421.023L857.938 434.991L900.154 395.735L900.921 395.811L901.012 394.937L904.352 391.847ZM709.325 424.417L709.585 424.974L687.541 403.498C688.009 402.839 688.295 402.054 688.295 401.193C688.295 398.964 686.436 397.153 684.149 397.153C681.861 397.153 680.002 398.964 680.002 401.193C680.002 401.244 680.015 401.294 680.015 401.345L625.517 413.147L636.669 395.216L713.848 389.935L798.786 385.972L709.325 424.417ZM713.458 388.682L642.102 393.57L695.911 377.867L696.028 377.918L696.197 377.804L722.049 375.449L713.458 388.682ZM692.779 376.449L657.868 375.183C657.556 373.954 656.425 373.043 655.073 373.043C653.475 373.043 652.188 374.296 652.188 375.854C652.188 376.386 652.344 376.867 652.604 377.285L646.235 383.692L633.042 377.475L668.656 365.483L692.779 376.449ZM638.852 349.527L632.003 352.731V340.423L638.852 337.573V349.527ZM605.202 319.668V332.723L597.546 335.459V322.352L605.202 319.668ZM597.546 321.023V308.22L605.202 305.916V318.351L597.546 321.023ZM613.013 316.92V329.937L606.502 332.268V319.212L613.013 316.92ZM606.502 317.895V305.523L613.013 303.56V315.616L606.502 317.895ZM613.221 290.657H601.784V278.994H613.234V290.657H613.221ZM613.221 291.923V302.079H613V302.231H601.784V291.923H613.221ZM546.31 308.942V218.375L559.828 217.476V305.13L546.31 308.942ZM569.147 302.231V291.923H578.869V302.231H569.147ZM578.882 290.657H569.16V278.994H578.882V290.657ZM574.645 276.436L567.86 277.841V302.864L561.14 304.763V217.388L574.658 216.489V276.436H574.645ZM569.927 207.586V199.507H596.247V207.586H569.927ZM568.627 215.615L528.231 218.312H520.38V201.458L568.627 199.279V215.615ZM527.607 219.578V374.461L487.575 368.117V219.578H527.607ZM462.905 200.153L454.275 200.432H453.651V216.907H439.692V199.292H462.905V200.153ZM453.651 218.173V218.312H444.423V218.945H443.773V237.661H439.692V218.173H453.651ZM443.773 238.928V255.706H439.692V238.928H443.773ZM443.773 256.973V273.751H439.692V256.973H443.773ZM443.773 275.018V291.796H439.692V275.018H443.773ZM443.773 293.062V309.841H439.692V293.062H443.773ZM443.773 311.107V327.886H439.692V311.107H443.773ZM443.773 329.152V345.931H439.692V329.152H443.773ZM443.773 347.197V365.394H439.692V347.197H443.773ZM443.773 366.648V374.676L442.486 375.803L431.517 370.776L439.224 366.648H443.773ZM438.392 238.928V255.706H416.608V238.928H438.392ZM416.608 237.661V218.173H438.392V237.661H416.608ZM438.392 256.973V273.751H416.608V256.973H438.392ZM438.392 275.018V291.796H416.608V275.018H438.392ZM438.392 293.062V306.27H412.501V293.062H438.392ZM438.392 307.536V324.024H412.501V307.536H438.392ZM438.392 325.277V341.638H412.501V325.277H438.392ZM438.392 342.905V360.418H412.501V342.905H438.392ZM438.392 216.907H416.608V199.292H438.392V216.907ZM406.418 176.98V162.303H429.658V176.98H406.418ZM415.309 178.246V198.026H394.851V178.246H415.309ZM415.309 199.292V216.907H394.851V199.292H415.309ZM415.309 218.173V237.661H394.851V218.173H415.309ZM415.309 238.928V255.706H394.851V238.928H415.309ZM415.309 256.973V273.751H394.851V256.973H415.309ZM415.309 275.018V291.796H394.851V275.018H415.309ZM411.201 293.062V306.409L394.838 309.803V293.062H411.201ZM411.201 307.688V324.201L394.838 327.848V311.107L411.201 307.688ZM411.201 325.48V341.727L394.838 345.88V329.14L411.201 325.48ZM411.201 343.006V360.874L394.838 365.521V347.185L411.201 343.006ZM412.579 361.798L412.54 361.684H438.392V365.635L430.048 370.105L421.249 366.078C421.145 364.622 419.91 363.457 418.389 363.457C416.79 363.457 415.504 364.71 415.504 366.268C415.504 366.382 415.53 366.483 415.543 366.585L400.622 373.853L376.225 366.711L394.357 366.977L412.579 361.798ZM425.941 417.744L413.398 414.122L395.28 400.927L386.051 406.22L352.505 396.558L358.445 383.059L400.362 375.233L425.941 417.744ZM357.873 381.603L332.138 360.456C332.151 360.418 332.164 360.38 332.164 360.354L354.078 367.471L355.429 368.547L355.858 368.041L365.983 371.333L357.873 381.603ZM354.727 366.331L326.991 344.07C327.03 344.006 327.069 343.943 327.095 343.88L360.199 353.795L366.009 369.978L354.727 366.331ZM361.564 353.795L370.922 352.275V365.774L367.309 369.763L361.564 353.795ZM362.461 352.364L370.922 343.436V350.996L362.461 352.364ZM360.498 352.579L336.128 345.273L355.429 339.739L355.338 339.435H370.922V341.575L360.498 352.579ZM341.353 338.169V309.36H370.922V338.169H341.353ZM341.353 308.094V273.27H370.922V308.094H341.353ZM314.565 260.924V270.446L299.93 272.004H299.319V279.222H293.522V260.924H314.565ZM299.306 280.488V291.404H293.509V280.488H299.306ZM218.137 299.445V322.542H210.026V299.445H218.137ZM218.137 323.796V348.388H210.026V323.796H218.137ZM258.572 349.654V367.129H210.026V349.654H258.572ZM244.574 376.918L264.148 366.521L289.831 360.304L310.588 377.158L286.101 395.051L243.287 377.26L244.574 376.918ZM311.615 378.007L311.706 378.07L311.901 377.855L355.065 382.806L313.369 396.913L289.662 395.368L291.391 394.836L288.336 395.026L311.615 378.007ZM310.224 397.976L309.405 398.255L350.945 397.609L350.373 426.051L289.324 396.596L310.224 397.976ZM449.31 442.399L428.553 481.718L286.828 419.491C286.867 419.428 286.906 419.377 286.932 419.301L449.31 442.399ZM283.176 421.656C284.281 421.656 285.295 421.226 286.036 420.529L421.95 480.198L284.099 446.628L282.539 421.593C282.747 421.618 282.955 421.656 283.176 421.656ZM421.067 481.287L206.361 464.534L283.475 447.78L421.067 481.287ZM267.67 492.709L388.521 522.999L357.574 553.948L354.61 555.43L267.631 492.785C267.657 492.76 267.657 492.735 267.67 492.709ZM432.4 602.6L558.84 575.881L561.426 576.109L561.504 575.311L636.11 559.545C636.149 559.621 636.188 559.697 636.24 559.773L488.835 636.714L432.4 602.6ZM640.542 552.479C637.787 552.479 635.551 554.657 635.551 557.342C635.551 557.684 635.59 558.026 635.668 558.355L558.775 574.602L359.822 556.848L624.061 530.091L729.367 583.542L696.912 581.921V582.035L645.286 558.798C645.442 558.329 645.546 557.848 645.546 557.342C645.533 554.657 643.298 552.479 640.542 552.479ZM626.895 530.103L626.596 529.837L626.726 529.825L882.529 591.494L732.486 583.706L626.895 530.103ZM627.09 528.609L801.191 492.595L801.087 492.139L801.984 492.051L886.805 591.216L627.09 528.609ZM803.934 492.355L951.286 520.897L950.532 521.328L988.212 519.846L888.664 591.431L803.934 492.355ZM990.538 519.758H990.655V519.682L1000.96 512.261C1001.72 513.034 1002.77 513.515 1003.95 513.515C1005.25 513.515 1006.38 512.92 1007.15 512.02L1198.43 575.995L1197.86 576.248L890.692 591.557L990.538 519.758ZM1139.36 517.035L1291.25 535.84L1200.94 574.906L1200.2 574.88L1139.36 517.035ZM1141.76 516.06L1334.93 481.68L1292.86 534.763L1141.76 516.06ZM1437.81 467.674L1414.97 507.892L1416.12 508.5L1439.5 467.32L1674.62 525.532L1493.79 536.764L1358.46 487.986L1437.81 467.674ZM1440.45 466.269L1492.25 417.44C1492.98 418.605 1494.28 419.39 1495.79 419.39C1497.12 419.39 1498.29 418.769 1499.05 417.82L1675.64 524.494L1440.45 466.269ZM1620.63 463.343L1758.87 471.549L1679.12 525.076L1620.63 463.343ZM1620.18 462.052L1646.26 420.795L1757.34 470.194L1620.18 462.052ZM1653.72 397.179H1711.24V397.153L1721.58 402.788L1647.22 419.073L1653.72 397.179ZM1719.54 404.523L1695.21 413.755L1658.21 417.959L1719.54 404.523ZM1724.27 404.093L1761.68 403.624L1701.11 412.868L1724.27 404.093ZM1730 402.75L1738.79 382.616C1738.96 382.641 1739.12 382.667 1739.28 382.667C1739.99 382.667 1740.64 382.413 1741.13 381.996L1748.98 387.732V388.163L1749.55 388.15L1768.85 402.257L1730 402.75ZM1737.59 382.122L1728.59 402.776L1724.31 402.826L1724.12 402.712L1724.01 402.244L1723.48 402.358L1711.24 395.684V390.771L1736.89 381.4C1737.07 381.679 1737.32 381.92 1737.59 382.122ZM1711.22 389.429V373.119L1729.41 382.781L1711.22 389.429ZM1702.44 316.73L1716.11 319.06V334.813L1702.44 332.014V316.73ZM1702.44 315.438V299.736L1716.11 301.623V317.768L1702.44 315.438ZM1735.24 268.382V293.025L1697.95 288.77V276.727H1697.34L1676.12 274.258H1673.79V262.506L1735.24 268.382ZM1676.04 275.524L1686.37 276.727H1676.34L1664.83 275.524H1676.04ZM1696.65 277.993V290.505H1676.96V277.993H1696.65ZM1675.66 277.93V290.416L1653.35 287.744V275.6L1675.66 277.93ZM1663.02 294.291V322.276L1612.45 312.424V287.313L1663.02 294.291ZM1680.86 327.038H1607.54L1536.42 313.273H1611.16V313.463L1680.86 327.038ZM1611.16 312.007H1529.88L1529.83 311.994V262.443H1611.16V312.007ZM1606.84 328.19V349.983L1575.53 342.943L1574.74 342.765L1529.84 332.926V313.285L1606.84 328.19ZM1574.74 344.07V367.281H1543.1L1529.84 360.076V334.218L1574.74 344.07ZM1540.42 367.294H1529.83V361.545L1540.42 367.294ZM1542.75 368.56L1554.56 374.98L1544.27 385.415L1529 368.535L1529.83 368.775V368.56H1542.75ZM1542.09 384.908L1541.27 384.617V384.528L1540.97 384.503L1488.58 366.04L1499.06 360.063L1526.68 367.864L1542.09 384.908ZM1528.53 311.741L1433.43 293.328V252.756H1432.82L1414.18 250.413V247.602L1528.54 262.38V311.741H1528.53ZM1446.87 192.619L1401.01 192.441V148.931L1446.87 145.499V192.619ZM1342.3 64.6959L1325.55 69.09V63.037L1342.3 58.2883V64.6959ZM1342.3 66.0128V78.6506L1325.55 82.5888V70.4069L1342.3 66.0128ZM1342.3 79.9423V92.58L1325.55 96.0624V83.8678L1342.3 79.9423ZM1342.3 93.8717V106.509L1325.55 109.549V97.354L1342.3 93.8717ZM1342.3 107.788V228.253H1342.06V190.808H1331.57V178.499H1325.55V110.84L1342.3 107.788ZM1330.27 179.766V190.808H1314.88L1312.43 190.795V179.766H1330.27ZM1215.29 151.552H1196.38V140.13L1215.29 137.053V151.552ZM1198.77 152.818V168.242H1182.47V152.818H1198.77ZM1198.77 169.508V185.008H1182.47V169.508H1198.77ZM1195.07 186.274V197.469L1180.16 196.734V186.274H1195.07ZM1195.07 198.735V214.906L1180.16 213.437V198.013L1195.07 198.735ZM1195.07 216.172V232.166L1180.16 230.139V214.703L1195.07 216.172ZM1195.07 233.445V252.781L1180.16 249.945V231.431L1195.07 233.445ZM1195.07 254.06V272.434L1189.88 270.965V262.089H1189.32L1180.16 259.708H1180.17V251.211L1195.07 254.06ZM1156.1 278.285V263.355H1188.58V278.285H1156.1ZM1019.28 255.896L1009.5 250.312V248.78H1009.59V247.513H1009.5V238.928L1019.28 244.727V255.896ZM1008.2 237.167V247.513H990.473V262.481L990.369 262.62L990.473 262.696V278.639L990.304 278.804L990.473 278.956V301.483H984.91V229.354H1020.35V237.155L1008.2 237.167ZM990.473 302.762V310.753L975.058 351.87L966.558 311.272L966.74 311.221L966.675 311.107L984.404 302.775H990.473V302.762ZM966.09 309.968L962.893 303.915H978.971L966.09 309.968ZM925.46 353.352L970.106 354.681L906.939 369.801L925.46 353.352ZM906.237 368.712L914.646 347.717L924.108 352.832L906.237 368.712ZM920.937 332.052L939.64 331.381L925.499 351.199L920.69 332.457L921.366 332.698L920.937 332.052ZM926.435 352.111L945.437 325.48C945.801 325.721 946.243 325.86 946.724 325.86C947.062 325.86 947.374 325.784 947.66 325.657L973.382 353.504L926.435 352.111ZM921.197 329.937L926.864 317.908L945.255 316.578L921.197 329.937ZM926.812 316.641L919.572 302.889L947.27 315.172L926.812 316.641ZM919.26 332.116L924.225 351.439L914.776 346.324L901.623 325.759L918.883 331.812L918.74 332.116H919.26ZM913.593 346.868L905.015 368.281L900.999 327.164L913.593 346.868ZM807.326 383.819C806.728 382.299 805.233 381.223 803.466 381.223C801.802 381.223 800.385 382.173 799.722 383.553L767.242 371.498L866.828 366.99L899.725 371.042L807.326 383.819ZM779.758 256.643V271.016H762.38V256.643H779.758ZM762.38 255.377V241.701H779.758V255.377H762.38ZM779.758 272.282V286.655H762.38V272.282H779.758ZM779.758 287.921V302.294H762.38V287.921H779.758ZM779.758 303.56V317.933H762.38V303.56H779.758ZM779.758 319.199V333.572H762.38V319.199H779.758ZM779.758 334.838V349.211H762.38V334.838H779.758ZM779.758 350.477V365.711H762.38V350.477H779.758ZM796.421 363.064V366.977H838.936L769.945 370.105L796.421 363.064ZM804.297 236.028V248.514L793.873 251.565V238.522L804.297 236.028ZM793.86 237.206V222.225L804.284 220.642V234.711L793.86 237.206ZM804.297 249.831V256.352L796.421 259.1V265.748L793.86 266.609V252.882L804.297 249.831ZM822.715 356.087C823.235 356.555 823.911 356.847 824.664 356.847C825.288 356.847 825.847 356.657 826.328 356.327L861.967 365.723H797.721V362.735L822.715 356.087ZM827.251 355.251C827.433 354.884 827.55 354.466 827.55 354.023C827.55 352.465 826.263 351.212 824.664 351.212C823.066 351.212 821.779 352.465 821.779 354.023C821.779 354.352 821.844 354.669 821.961 354.96L797.721 361.405V345.804H866.204V365.508L827.251 355.251ZM797.721 344.551V324.239H866.204V344.551H797.721ZM797.721 322.973V302.775H866.204V322.973H797.721ZM797.721 301.509V281.425H866.204V301.509H797.721ZM797.721 280.146V260.164H866.204V280.146H797.721ZM796.421 267.09V280.539L793.86 281.539V267.952L796.421 267.09ZM796.421 281.906V294.455L793.86 295.734V282.907L796.421 281.906ZM796.421 295.886V308.815L793.86 310.297V297.153L796.421 295.886ZM796.421 310.284V323.454L793.86 325.1V311.766L796.421 310.284ZM796.421 324.974V337.903L793.86 339.739V326.62L796.421 324.974ZM796.421 339.473V353.25L796.226 353.01L793.86 354.884V341.309L796.421 339.473ZM796.421 354.491V361.76L782.592 365.432L793.445 356.847H793.873V356.517L796.421 354.491ZM792.561 237.509L781.045 240.257V232.444V224.162L792.561 222.428V237.509ZM792.561 238.814V251.933L781.045 255.301V241.562L792.561 238.814ZM792.561 253.262V267.052L781.045 270.927V256.631L792.561 253.262ZM792.561 268.382V282.046L781.045 286.541V272.257L792.561 268.382ZM792.561 283.413V296.393L781.045 302.129V287.909L792.561 283.413ZM792.561 297.811V311.057L781.045 317.73V303.56L792.561 297.811ZM792.561 312.526V325.936L781.045 333.319V319.187L792.561 312.526ZM781.058 334.838L792.561 327.456V340.676L781.045 348.932L781.058 334.838ZM781.084 350.477L792.561 342.246V355.91L781.045 365.014V350.477H781.084ZM867.504 343.5V323.872L876.81 314.944V333.116L867.504 343.5ZM876.81 335.041V353.149L867.504 365.002V345.412L876.81 335.041ZM867.504 322.086V302.433L876.81 294.949V313.172L867.504 322.086ZM867.504 300.787V281.121L876.81 275.043V293.303L867.504 300.787ZM867.504 279.602V259.936L876.81 255.25V273.523L867.504 279.602ZM874.731 253.566V196.025H877.447V253.49L877.304 253.566H874.731ZM815.969 246.412V253.566H812.252L805.597 255.884V249.438L815.969 246.412ZM805.597 248.121V235.711L815.982 233.242V245.095L805.597 248.121ZM830.227 253.566H817.282V232.432H817.022V232.419H817.295V217.4L816.593 217.502H809.016V159.302H830.253V253.566H830.227ZM815.969 218.882V231.925L805.584 234.394V220.44L815.969 218.882ZM784.905 222.301L780.356 222.985H770.439L775.144 222.301H784.905ZM779.758 224.251V232.432V240.422H762.38V232.432V224.251H779.758ZM761.679 222.985H761.081V232.432V237.117H742.156V222.288H766.384L761.679 222.985ZM761.081 238.396V240.435H731.667L742.052 238.396H761.081ZM744.483 349.211V334.838H761.081V349.211H744.483ZM761.081 350.477V365.711H744.483V350.477H761.081ZM744.483 333.572V319.199H761.081V333.572H744.483ZM744.483 317.933V303.56H761.081V317.933H744.483ZM744.483 302.294V287.921H761.081V302.294H744.483ZM744.483 286.655V272.282H761.081V286.655H744.483ZM744.483 271.016V256.643H761.081V271.016H744.483ZM744.483 255.377V241.701H761.081V255.377H744.483ZM726.572 349.211V334.838H743.17V349.211H726.572ZM743.183 350.477V365.711H726.585V350.477H743.183ZM726.572 333.572V319.199H743.17V333.572H726.572ZM726.572 317.933V303.56H743.17V317.933H726.572ZM726.572 302.294V287.921H743.17V302.294H726.572ZM726.572 286.655V272.282H743.17V286.655H726.572ZM726.572 271.016V256.643H743.17V271.016H726.572ZM726.572 255.377V241.701H743.17V255.377H726.572ZM740.857 237.332L726.572 240.143V224.175L740.363 222.301H740.857V237.332ZM725.884 222.985H721.023L727.625 222.111V222.301H730.953L725.884 222.985ZM728.366 205.624H714.381V186.009L728.366 186.072V205.624ZM728.366 206.89V220.743L714.381 222.592V206.89H728.366ZM725.273 224.251V240.422H712.067V224.251H725.273ZM725.273 241.701V255.377H712.067V241.701H725.273ZM725.273 256.643V271.016H712.067V256.643H725.273ZM725.273 272.282V286.655H712.067V272.282H725.273ZM725.273 287.921V302.294H712.067V287.921H725.273ZM725.273 303.56V317.933H712.067V303.56H725.273ZM725.273 319.199V333.572H712.067V319.199H725.273ZM725.273 334.838V349.211H712.067V334.838H725.273ZM776.756 366.977L763.979 370.371L736.737 372.853L736.75 372.954L728.704 371.536C728.353 370.371 727.261 369.51 725.949 369.51C724.35 369.51 723.063 370.763 723.063 372.321C723.063 372.739 723.167 373.131 723.336 373.499L722.842 374.271L722.829 374.132L698.29 376.36L711.638 366.99H776.756V366.977ZM710.767 354.745L708.025 353.807L708.389 353.694L704.36 341.36L710.767 338.131V354.745ZM685.903 355.441L668.448 364.217L639.658 373.917L677.728 354.757L685.903 355.441ZM661.689 313.767V326.683L654.657 329.608V316.287L661.689 313.767ZM654.657 314.982V303.155L661.689 300.698V312.437L654.657 314.982ZM655.268 353.478V343.272L661.689 340.271V350.249L655.268 353.478ZM661.689 351.667V361.405L655.268 364.634V354.897L661.689 351.667ZM655.268 341.853V330.735L661.689 328.063V338.852L655.268 341.853ZM662.989 349.591V339.663L669.708 336.522V346.21L662.989 349.591ZM669.708 347.628V357.366L662.989 360.747V351.009L669.708 347.628ZM662.989 338.244V327.519L669.708 324.72V335.104L662.989 338.244ZM662.989 326.151V313.298L669.708 310.88V323.34L662.989 326.151ZM662.989 311.981V300.318H662.82L669.708 297.912V309.563L662.989 311.981ZM676.948 321.719V331.723L671.008 334.496V324.188L676.948 321.719ZM671.008 322.808V310.424L676.948 308.296V320.339L671.008 322.808ZM676.948 333.129V342.563L671.008 345.551V335.902L676.948 333.129ZM676.948 343.981V353.731L671.008 356.72V346.969L676.948 343.981ZM676.948 306.941L671.008 309.081V297.457H670.995L676.948 295.38V306.941ZM628.818 287.643V297.71L623.333 299.267V289.238L628.818 287.643ZM623.32 287.921V276.854L628.805 275.6V286.326L623.32 287.921ZM635.603 285.667V295.785L630.118 297.343V287.263L635.603 285.667ZM630.118 285.946V275.309L635.603 274.055V284.35L630.118 285.946ZM596.247 114.791H533.339V106.864L596.247 106.851V114.791ZM596.247 116.045V123.997H533.339V116.057L596.247 116.045ZM596.247 125.251V133.216H533.339V125.251H596.247ZM596.247 134.482V142.46H533.339V134.482H596.247ZM596.247 143.726V151.717H533.339V143.726H596.247ZM596.247 152.983V160.986H533.339V152.983H596.247ZM596.247 162.253V170.281H533.339V162.265L596.247 162.253ZM596.247 171.547V179.588H536.432V177.588L533.352 177.562V171.547H596.247ZM535.132 178.841V196.215L521.615 196.557V178.727L535.132 178.841ZM535.132 197.481V197.988H529.466L521.615 198.241V197.823L535.132 197.481ZM529.492 199.254H541.189L518.314 200.293L518.327 200.444H493.177L520.315 199.558V199.571H521.615V199.52L529.492 199.254ZM507.422 198.71V198.19L520.315 197.861V198.292L507.422 198.71ZM520.315 196.595L507.422 196.924V178.613L520.315 178.715V196.595ZM518.626 162.822L504.64 162.43V149.134L508.098 149.387C508.215 149.551 508.397 149.653 508.618 149.653C508.8 149.653 508.969 149.577 509.086 149.463L518.613 150.172V162.822H518.626ZM518.626 164.089V177.436L504.64 177.322V163.709L518.626 164.089ZM506.122 178.601V196.949L493.229 197.279V178.487L506.122 178.601ZM503.341 162.404L488.433 161.987V147.931L503.341 149.045V162.404ZM497.323 134.812L481.492 133.343V122.63L497.323 124.58V134.812ZM497.323 136.091V147.335L481.492 146.158V134.622L497.323 136.091ZM487.133 147.842V161.961L472.225 161.543V146.728L487.133 147.842ZM487.133 163.228V177.182L472.225 177.056V162.81L487.133 163.228ZM477.723 178.36V197.671L464.205 198.013V178.246L477.723 178.36ZM470.925 161.505L454.171 161.037V145.373L470.925 146.626V161.505ZM470.925 162.772V177.03L464.205 176.98H454.171V162.316L470.925 162.772ZM462.905 178.246V198.026H439.692V178.246H462.905ZM452.871 161.037H430.958V145.613H452.871V161.037ZM452.871 162.303V176.98H430.958V162.303H452.871ZM438.392 178.246V198.026H416.608V178.246H438.392ZM429.658 161.037H406.418V145.613H429.658V161.037ZM410.747 144.347H394.916V131.177H410.747V144.347ZM405.119 145.613V161.037H384.726V145.613H405.119ZM405.119 162.303V176.98H384.726V162.303H405.119ZM393.551 178.246V198.026H372.222V178.246H393.551ZM393.551 199.292V216.907H372.222V199.292H393.551ZM393.551 218.173V237.661H372.222V218.173H393.551ZM393.551 238.928V255.706H372.222V238.928H393.551ZM393.551 256.973V273.751H372.222V256.973H393.551ZM393.551 275.018V291.796H372.222V275.018H393.551ZM393.551 293.062V309.841H372.222V293.062H393.551ZM393.551 311.107V327.886H372.222V311.107H393.551ZM393.551 329.152V345.931H372.222V329.152H393.551ZM393.551 347.197V365.711L372.222 365.407V347.197H393.551ZM397.957 374.41L359.536 381.578L367.569 371.409L371.793 366.749L397.957 374.41ZM370.922 220.579H333.411L370.922 219.161V220.579ZM350.243 221.845V244.031H326.237V221.845H350.243ZM336.973 245.31V261.354H315.865V245.31H336.973ZM324.937 244.044H300.619V221.858H324.937V244.044ZM314.565 206.497H293.509V187.49L314.565 187.743V206.497ZM274.884 186.73V207.232H254.92V186.73H274.884ZM274.884 208.498V225.277H254.92V208.498H274.884ZM274.884 226.53V243.309H254.92V226.543L274.884 226.53ZM274.884 244.575V261.354H254.92V244.575H274.884ZM274.884 262.62V278.411H254.92V262.62H274.884ZM236.645 111.005L225.909 110.258V88.4265L236.645 89.9208V111.005ZM209.532 386.339L210.013 386.225V386.212L241.285 377.804L283.41 395.317L208.727 399.825L193.624 390.328L209.532 386.339ZM281.019 396.735L229.367 412.792L210.585 400.99L281.019 396.735ZM353.155 557.532L353.402 557.557L241.597 631.434L128.675 591.887L353.155 557.532ZM344.771 599.915C345.668 601.194 347.176 602.043 348.891 602.043C349.073 602.043 349.242 602.005 349.411 601.992L352.934 659.799L293.756 643.071L293.613 642.97L242.637 654.278L186.956 651.175L344.771 599.915ZM347.514 659.571L314.929 658.077L296.85 645.249L347.514 659.571ZM352.947 661.091L352.973 660.458L354.545 686.189L316.84 659.444L352.947 661.091ZM491.422 636.803L637.033 560.799C637.93 561.66 639.164 562.204 640.542 562.204C642.31 562.204 643.856 561.305 644.74 559.95L794.315 627.28L745.276 635.043L491.422 636.803ZM699.798 583.339L732.096 584.96L798.825 626.571L796.603 626.926L699.798 583.339ZM734.722 585.087L883.556 592.811L830.708 621.506L800.736 626.254L734.722 585.087ZM893.122 592.697L1197.93 577.501L1156.31 630.56L893.122 592.697ZM1200.32 576.552L1202.64 576.26L1276.61 579.3L1158.65 629.686L1200.32 576.552ZM1204.57 574.728L1293.77 536.131L1373.31 537.967L1321.88 559.938L1321.87 559.798L1204.57 574.728ZM1481.27 538.474L1430.26 545.476L1411.4 537.499L1481.27 538.474ZM1489.72 538.6L1492.75 538.638V538.182L1493.45 538.081L1570.24 604.727L1432.52 546.451L1489.72 538.6ZM1495.27 537.955L1676.95 526.672L1572.75 605.196L1495.27 537.955ZM1856.25 513.072L1681.25 525.19L1760.42 472.056L1856.25 513.072ZM1799.12 429.305L1878.93 462.622L1762.74 471.195L1761.86 470.802L1799.12 429.305ZM1797.33 429.381L1760.63 470.245L1697.58 442.196L1797.33 429.381ZM1781.12 430.191L1695.6 441.183L1695.63 441.335L1648.42 420.339L1695.42 415.008L1759.04 417.427L1781.12 430.191ZM1807.94 418.022L1759.4 416.173L1758.4 415.591L1758.08 416.123L1702.06 413.995L1770.71 403.523L1807.94 418.022ZM1792.29 387.593L1770.8 402.079L1751.7 388.112L1792.29 387.593ZM1788.6 386.377L1749.98 386.884L1741.92 380.995C1742.08 380.653 1742.17 380.261 1742.17 379.855C1742.17 378.298 1740.88 377.044 1739.28 377.044C1737.69 377.044 1736.4 378.298 1736.4 379.855C1736.4 379.982 1736.43 380.096 1736.44 380.223L1731.02 382.198L1711.22 371.675V368.725L1739.93 371.954L1739.58 372.118L1741.7 372.194L1741.52 372.777L1788.6 386.377ZM1765.94 361.367C1766.44 361.76 1767.06 362.013 1767.76 362.013C1767.85 362.013 1767.96 362 1768.05 361.988L1777.21 367.294H1753.31L1765.94 361.367ZM1750.46 368.623L1750.63 368.547H1779.38L1786.43 372.625L1745.04 371.055L1750.46 368.623ZM1747.54 368.547L1742.21 370.941L1711.22 367.458V364.381L1730.81 368.535L1747.54 368.547ZM1797.98 343.284H1731.01L1688.07 335.623V332.825H1701.12V333.091H1701.49V333.103L1733.9 339.726V339.574H1769.26V338.067L1797.98 343.284ZM1780.3 268.445V338.789L1769.26 336.788V302.686H1768.65L1736.53 298.381V293.734V268.433H1780.3V268.445ZM1792.02 254.567H1764.32L1720.58 251.629H1747.42L1792.02 254.567ZM1789.1 182.703H1753.36V181.247H1789.1V182.703ZM1748.27 123.01H1793.89V182.716H1790.4V179.994H1752.06V182.716H1748.27V123.01ZM1746.97 123.06V157.757L1689.62 159.391V127.353L1746.97 123.06ZM1660.61 105.94L1735.91 98.1138V122.617L1660.61 128.239V105.94ZM1639.61 131.076L1688.32 127.429V159.403L1639.61 160.784V131.076ZM1688.32 160.682V161.949H1643.88L1688.32 160.682ZM1693.26 199.647H1634.06V163.215H1693.26V199.647ZM1696.02 199.647H1694.57V161.949H1689.63V160.644L1746.98 159.011V182.703H1737.44V199.862H1738.74V183.97H1778.63V252.414L1767.42 251.679V200.444H1766.79L1696.02 199.647ZM1698.26 224.859H1717.96V240.587H1706.3L1698.26 240.055V224.859ZM1670.8 223.656L1696.96 224.821V239.953L1670.8 238.206V223.656ZM1669.5 236.458V238.13L1644.4 236.458H1669.5ZM1626.04 236.496L1705.61 241.802V250.35H1701.77L1701.1 250.299V261.164H1673.19L1672.5 261.101V274.245H1652.75L1652.06 274.169V285.921H1612.45V261.164H1611.83L1553.19 255.174V242.043L1621.06 248.843V285.857H1622.36V248.906H1682.76V260.594H1684.06V247.64H1683.42L1626.02 243.284V236.496H1626.04ZM1577.88 218.236H1625.66V235.179H1625.41L1624.74 235.129V243.195L1592.15 240.726H1577.89V218.236H1577.88ZM1592.1 241.992L1666.71 247.653H1621.75L1565.22 241.992H1592.1ZM1533.91 216.21L1576.58 218.211V240.726H1552.56L1551.89 240.663V255.06L1533.91 253.224V216.21ZM1599.37 261.177H1529.23L1423.37 247.501H1465.41L1599.37 261.177ZM1488.52 248.59V193.885H1523.49V252.161L1488.52 248.59ZM1523.49 145.461V192.619H1488.52V145.461H1523.49ZM1498.81 123.022V144.182H1448.18V144.132L1437.14 144.955V123.022H1498.81ZM1479.66 108.903V121.756H1436.39L1429.72 122.706V108.903H1479.66ZM1437.44 46.9802H1455.94V54.2741H1437.44V46.9802ZM1437.44 55.5531H1455.94V69.2546H1437.44V55.5531ZM1437.44 70.5209H1455.94V84.2097H1437.44V70.5209ZM1437.44 85.476H1455.94V95.062H1437.44V85.476ZM1437.44 96.3283H1461.15V107.636H1428.98L1425.41 108.156V96.3157H1436.14V96.4043H1437.44V96.3283ZM1436.14 46.9802V54.2741H1419.55V46.9802H1436.14ZM1376.02 35.7733H1431.67V45.7138H1382.17L1376.03 47.4487V35.7733H1376.02ZM1381.5 47.1954V54.4261L1362.58 59.3774V52.5393L1381.5 47.1954ZM1317.22 53.4257L1374.72 36.0012V47.8286L1361.33 51.6149H1361.28V51.6275L1317.2 64.1007V53.4257H1317.22ZM1309.34 67.6337L1324.25 63.4169V69.4319L1309.34 73.3321V67.6337ZM1309.34 74.6491L1324.25 70.7488V82.8928L1309.34 86.3878V74.6491ZM1309.34 87.6921L1324.25 84.1844V96.341L1309.34 99.4435V87.6921ZM1309.34 100.735L1324.25 97.6326V109.789L1309.34 112.499V100.735ZM1309.34 113.778L1324.25 111.068V168.103H1309.34V113.778ZM1307.03 169.382H1323.33V178.512H1311.77L1307.03 178.601V169.382ZM1287.82 170.18L1305.73 169.407V178.626L1287.82 178.968V170.18ZM1281.57 180.335L1311.13 179.778V190.783L1281.57 190.58V180.335ZM1274.16 191.796L1314.21 192.074V240.08L1308.73 239.409V194.898C1308.73 194.543 1308.44 194.265 1308.08 194.265C1307.72 194.265 1307.43 194.543 1307.43 194.898V239.257L1303.79 238.814V194.898C1303.79 194.543 1303.5 194.265 1303.14 194.265C1302.78 194.265 1302.49 194.543 1302.49 194.898V238.649L1298.85 238.206V194.898C1298.85 194.543 1298.57 194.265 1298.2 194.265C1297.84 194.265 1297.55 194.543 1297.55 194.898V219.68H1297.14L1293.9 219.49C1293.9 219.477 1293.91 219.464 1293.91 219.452V194.797C1293.91 194.442 1293.63 194.164 1293.26 194.164C1292.9 194.164 1292.61 194.442 1292.61 194.797V219.426L1288.97 219.211V194.683C1288.97 194.328 1288.69 194.05 1288.32 194.05C1287.96 194.05 1287.67 194.328 1287.67 194.683V219.135L1284.03 218.92V194.455C1284.03 194.1 1283.75 193.822 1283.38 193.822C1283.02 193.822 1282.73 194.1 1282.73 194.455V218.844L1279.1 218.629V194.455C1279.1 194.1 1278.81 193.822 1278.45 193.822C1278.08 193.822 1277.8 194.1 1277.8 194.455V218.553L1274.16 218.337V191.796ZM1265.85 219.11L1275.53 219.68H1260.89L1254.34 219.11H1265.85ZM1254.18 119.552V135.66H1235.72V119.552H1254.18ZM1223.84 89.313H1237.67V102.407H1223.84V89.313ZM1223.84 103.66H1237.67V118.274H1223.84V103.66ZM1209.34 89.313H1222.54V102.407H1209.34V89.313ZM1209.34 103.66H1222.54V118.274H1215.94L1209.34 119.73V103.66ZM1216.01 119.552H1234.42V135.66H1216.59V119.717H1215.29V135.774L1196.38 138.851V123.909L1216.01 119.552ZM1199.15 92.4281L1208.04 89.5536V102.508L1199.15 104.243V92.4281ZM1199.15 105.534L1208.04 103.8V120.034L1199.15 121.996V105.534ZM1190.97 95.062L1197.85 92.8333V104.483L1190.97 105.826V95.062ZM1190.97 107.13L1197.85 105.788V122.288L1190.97 123.807V107.13ZM1180.16 127.505L1195.07 124.2V139.066L1180.16 141.485V127.505ZM1180.16 142.764L1195.07 140.345V151.565H1180.16V142.764ZM1164.26 152.818H1181.17V168.242H1164.26V152.818ZM1164.26 169.508H1181.17V185.008H1164.26V169.508ZM1164.26 186.274H1178.86V259.379L1164.26 255.592V186.274ZM1162.96 119.552V134.938H1145.43V119.552H1162.96ZM1145.44 250.362V236.978L1162.98 236.99V250.362H1145.44ZM1162.96 251.629V255.263L1148.91 251.629H1162.96ZM1145.44 235.711V220.009H1162.98V235.711H1145.44ZM1145.44 218.743V203.104H1162.98V218.743H1145.44ZM1145.44 201.837V186.274H1162.98V201.837H1145.44ZM1145.44 185.008V169.508H1162.98V185.008H1145.44ZM1145.44 168.242V152.818H1162.98V168.242H1145.44ZM1145.44 151.552V136.192H1162.98V151.552H1145.44ZM1133.39 89.313H1147.22V104.205H1133.39V89.313ZM1133.39 105.471H1147.22V118.286H1133.39V105.471ZM1125.37 235.711V220.009H1144.14V235.711H1125.37ZM1144.14 236.978V250.388L1125.37 245.525V236.965L1144.14 236.978ZM1125.37 218.743V203.104H1144.14V218.743H1125.37ZM1125.37 201.837V186.274H1144.14V201.837H1125.37ZM1125.37 185.008V169.508H1144.14V185.008H1125.37ZM1125.37 168.242V152.818H1144.14V168.242H1125.37ZM1125.37 151.552V136.192H1144.14V151.552H1125.37ZM1125.37 134.926V119.552H1144.14V134.938H1125.37V134.926ZM1118.89 89.313H1132.09V104.205H1118.89V89.313ZM1118.89 105.471H1132.09V118.286H1124.72L1124.19 118.438H1124.07V118.476L1118.89 119.945V105.471ZM1124.07 119.755V135.001L1105.15 139.041V125.112L1124.07 119.755ZM1105.16 216.071V201.812L1124.09 203.078V218.679L1105.16 216.071ZM1124.07 219.958V235.623L1105.15 231.646V217.337L1124.07 219.958ZM1105.16 200.558V186.363L1124.09 186.287V201.825L1105.16 200.558ZM1105.16 185.084V170.952L1124.09 169.534V185.008L1105.16 185.084ZM1105.16 169.686V155.617L1124.09 152.869V168.268L1105.16 169.686ZM1105.16 154.325V140.333L1124.09 136.28V151.59L1105.16 154.325ZM1108.71 93.3652L1117.6 89.6295V104.293L1108.71 107.016V93.3652ZM1108.71 108.346L1117.6 105.598V120.3L1108.71 122.807V108.346ZM1100.52 96.8095L1107.4 93.9223V107.434L1100.52 109.549V96.8095ZM1100.52 110.866L1107.4 108.738V123.161L1100.52 125.112V110.866ZM1088.96 129.708L1103.86 125.491V139.332L1088.96 142.523V129.708ZM1088.96 143.802L1103.86 140.611V154.515L1088.96 156.668V143.802ZM1088.96 157.96L1103.86 155.794V169.774L1088.96 170.889V157.96ZM1088.96 172.168L1103.86 171.053V185.097L1088.96 185.16V172.168ZM1088.96 186.426L1103.86 186.363V200.47L1088.96 199.469V186.426ZM1088.96 200.748L1103.86 201.736V215.893L1088.96 213.829V200.748ZM1088.96 215.121L1103.86 217.172V231.38L1088.96 228.253V215.121ZM1088.96 229.544L1103.86 232.672V239.713H1105.16V232.951L1124.09 236.927V245.196L1093.21 237.193H1088.97V229.544H1088.96ZM1029.08 184.856H1072.23V237.18H1068.9V188.427C1068.9 188.073 1068.61 187.794 1068.25 187.794C1067.89 187.794 1067.6 188.073 1067.6 188.427V237.18H1064.59V188.44C1064.59 188.085 1064.3 187.807 1063.94 187.807C1063.57 187.807 1063.29 188.085 1063.29 188.44V237.18H1060.26V188.44C1060.26 188.085 1059.97 187.807 1059.61 187.807C1059.24 187.807 1058.96 188.085 1058.96 188.44V237.18H1055.93V188.44C1055.93 188.085 1055.64 187.807 1055.28 187.807C1054.91 187.807 1054.63 188.085 1054.63 188.44V237.18H1051.61V188.44C1051.61 188.085 1051.33 187.807 1050.96 187.807C1050.6 187.807 1050.31 188.085 1050.31 188.44V237.18H1047.29V188.44C1047.29 188.085 1047 187.807 1046.64 187.807C1046.27 187.807 1045.99 188.085 1045.99 188.44V237.18H1042.97V188.44C1042.97 188.085 1042.68 187.807 1042.32 187.807C1041.96 187.807 1041.67 188.085 1041.67 188.44V237.18H1038.64V188.44C1038.64 188.085 1038.36 187.807 1037.99 187.807C1037.63 187.807 1037.34 188.085 1037.34 188.44V237.18H1034.33V188.44C1034.33 188.085 1034.04 187.807 1033.68 187.807C1033.31 187.807 1033.03 188.085 1033.03 188.44V237.18H1029.08V184.856ZM1092.95 238.434L1184.27 262.076H1155.55L1094.36 243.765L1020.59 243.74V243.689H1020.03L1011.18 238.446H1092.95V238.434ZM1005.91 185.109L1027.76 184.869V237.18H1024.05V188.44C1024.05 188.085 1023.76 187.807 1023.4 187.807C1023.03 187.807 1022.75 188.085 1022.75 188.44V237.18H1021.65V228.113H1021.11L1021.03 228.088V188.453C1021.03 188.098 1020.74 187.819 1020.38 187.819C1020.02 187.819 1019.73 188.098 1019.73 188.453V227.67L1018.02 227.113C1018.02 227.1 1018.02 227.1 1018.02 227.088V188.44C1018.02 188.085 1017.73 187.807 1017.37 187.807C1017 187.807 1016.72 188.085 1016.72 188.44V226.695L1015 226.151V188.44C1015 188.085 1014.71 187.807 1014.35 187.807C1013.99 187.807 1013.7 188.085 1013.7 188.44V225.733L1011.89 225.15C1011.96 225.049 1012 224.948 1012 224.834V188.44C1012 188.085 1011.71 187.807 1011.35 187.807C1010.98 187.807 1010.7 188.085 1010.7 188.44V224.77L1008.98 224.226V188.453C1008.98 188.098 1008.7 187.819 1008.33 187.819C1007.97 187.819 1007.68 188.098 1007.68 188.453V223.808L1005.89 223.238V185.109H1005.91ZM1002.66 223.517L1007.81 225.176C1007.93 225.353 1008.12 225.467 1008.34 225.467C1008.42 225.467 1008.5 225.454 1008.58 225.416L1016.95 228.101H984.391L973.876 223.504H1002.66V223.517ZM971.497 223.859L983.611 229.152V232.887L971.497 226.796V223.859ZM971.497 228.215L983.611 234.306V239.624L971.497 232.621V228.215ZM971.497 234.09L983.611 241.093V246.361L971.497 238.446V234.09ZM971.497 239.966L983.611 247.868V247.855V253.072L971.497 244.246V239.966ZM971.497 245.842L983.585 254.643L983.624 254.605V259.822L971.51 250.071V245.842H971.497ZM971.497 251.705L983.559 261.405L983.611 261.341V266.533L971.497 255.858V251.705ZM971.497 257.568L983.533 268.179L983.611 268.091V273.257L971.497 261.645V257.568ZM971.497 263.431L983.52 274.954L983.624 274.853V279.994L971.51 267.432V263.431H971.497ZM971.497 269.281L983.494 281.716L983.611 281.615V286.718L971.497 273.207V269.281ZM971.497 275.119L983.481 288.478L983.611 288.365V293.417L971.497 278.943V275.119ZM971.497 280.957L983.468 295.253L983.611 295.139V300.255L971.497 284.819V280.957ZM970.873 286.11L983.26 301.889L980.79 303.054V302.648H962.217L960.943 300.255L970.873 286.11ZM959.435 300.167L959.357 300.28L959.565 300.42L964.855 310.411L949.934 314.337L955.809 294.253C955.913 294.266 956.017 294.278 956.121 294.278C956.186 294.278 956.251 294.266 956.329 294.253L959.435 300.167ZM953.911 292.695C954.041 293.1 954.288 293.455 954.6 293.721L948.959 313.02L943.591 296.431L953.911 292.695ZM942.279 296.583L947.53 312.817L928.384 293.202L942.279 296.583ZM921.145 211.423L924.836 210.651V289.897C924.056 290.264 923.51 291.024 923.51 291.923C923.51 292.125 923.549 292.315 923.601 292.505L921.145 295.633V211.423ZM921.145 297.723L924.342 293.645C924.745 293.974 925.252 294.177 925.824 294.177C926.318 294.177 926.773 294.025 927.15 293.772L946.217 313.311L918.792 301.142V298.039H921.145V297.723ZM900.726 215.083H916.336V218.553H900.726V215.083ZM900.726 222.301H916.336V225.771H900.726V222.301ZM900.726 227.037H917.635V221.035H900.726V219.819H917.635V213.817H900.726V211.55H919.832V296.773H918.779V233.103H917.622V228.253H900.726V227.037ZM900.726 229.519H916.336V233.103H900.726V229.519ZM900.726 234.369H915.14L907.874 238.029H900.726V234.369ZM900.726 239.295H907.38V313.513H900.726V239.295ZM900.726 314.78H907.835L918.168 330.229L900.726 324.112V314.78ZM903.897 370.27L868.44 365.901L878.11 353.58V347.4H882.958L892.303 335.484H892.316V335.471L897.853 328.418H897.879V328.393L899.582 326.215L903.897 370.27ZM878.747 346.134V196.038H881.996V346.146H878.747V346.134ZM883.595 195.974L885.48 195.848V342.132L883.296 344.905V196.038H883.621L883.595 195.974ZM886.779 340.473V195.759L888.261 195.658V338.586L886.779 340.473ZM889.548 336.928V195.569L891.03 195.468V335.041L889.548 336.928ZM892.329 333.395V195.392L893.811 195.291V331.508L892.329 333.395ZM895.111 329.849V195.202L896.593 195.101V327.975L895.111 329.849ZM899.426 323.657L899.335 323.619L899.413 324.366L897.892 326.303V195.012L899.439 194.911V323.657H899.426ZM883.673 172.611L898.893 193.682L883.075 194.733L873.119 171.446L883.673 172.611ZM861.148 141.029L866.022 142.447V162.24L861.148 161.505V141.029ZM861.148 162.797L866.022 163.531V170.066H861.148V162.797ZM861.148 171.598V171.332H871.637L881.658 194.771H843.55L860.629 171.598H861.148ZM852.505 138.522L859.849 140.662V161.328L852.505 160.226V138.522ZM852.505 161.493L859.849 162.594V170.484L852.505 180.449V161.493ZM851.205 138.142V160.024L842.406 158.694V135.584L851.205 138.142ZM838.624 110.612L844.551 113.082V123.529L838.624 121.161V110.612ZM838.624 122.541L844.551 124.909V134.875L842.419 134.254V134.09H838.624V122.541ZM829.357 106.75L837.311 110.068V120.642L829.357 117.463V106.75ZM829.357 118.831L837.311 122.009V134.09H835.946L830.201 132.393V132.608H829.344V118.831H829.357ZM817.633 104.559L821.558 106.206V132.507H822.858V106.383L828.057 106.421V132.621H817.633V104.559ZM830.227 133.887V158.036H808.989V133.887H830.227ZM800.346 104.23H816.333V115.336H800.346V104.23ZM800.346 116.602H816.333V132.633H800.346V116.602ZM786.374 104.23H799.046V115.336H786.374V104.23ZM786.374 116.602H799.046V132.633H786.374V116.602ZM771.791 133.887H788.856V158.036H771.791V133.887ZM771.791 159.302H788.856V217.514H771.791V159.302ZM790.481 218.781L775.053 221.035H749.682L766.267 218.781H790.481ZM752.788 218.781H756.857L740.259 221.035H735.762L752.788 218.781ZM724.662 155.288V165.596L739.011 166.672V219.338L729.666 220.579V184.818L713.081 184.742V222.77L711.365 222.997H710.767V241.068V336.826L710.716 336.738L692.714 345.792V163.202L710.845 164.557V153.591L724.662 155.288ZM701.266 162.569V153.528H709.546V163.177L701.266 162.569ZM720.958 144.777V153.566L710.495 152.287H710.482L709.559 152.173V152.287H701.279V141.865L720.958 144.777ZM689.608 78.2454L714.42 142.523L701.253 140.573V140.485H692.051L681.367 74.915L689.608 78.2454ZM671.307 74.4971H680.002L690.725 140.269L680.834 137.509V137.711H651.005L671.307 74.4971ZM690.855 141.624V161.898H682.121V139.18L690.855 141.624ZM646.014 138.978H680.834V151.337L672.724 150.299V150.223H646.027V138.978H646.014ZM680.821 152.603V161.898H672.711V151.565L680.821 152.603ZM627.805 165.469H641.231V151.489H671.411V163.177H690.855V163.481H691.414V346.21H678.248V320.757V293.848H667.616V184.54L643.622 184.438V293.848H644.922V273.511L659.362 270.37V293.848H642.895V271.244H627.779V165.469H627.805ZM626.505 103.901V111.157L597.559 105.598V97.6959L626.505 103.901ZM585.823 81.6138L593.907 83.8298C594.024 83.9944 594.219 84.1211 594.44 84.1211C594.544 84.1211 594.635 84.0957 594.726 84.0578L618.485 90.5666V100.887L597.559 96.4043V95.6319H585.836V81.6138H585.823ZM596.247 96.8982V105.598H533.339V96.8982H596.247ZM584.523 81.4112V95.6319H541.995V81.4112H584.523ZM475.006 6.23025H556.123V80.1449H544.465V11.0042C544.465 10.6497 544.179 10.3711 543.815 10.3711C543.451 10.3711 543.165 10.6497 543.165 11.0042V80.1449H540.695V95.6319H532.741V11.0042C532.741 10.6497 532.455 10.3711 532.091 10.3711C531.727 10.3711 531.441 10.6497 531.441 11.0042V177.537L521.017 177.448V11.0042C521.017 10.6497 520.731 10.3711 520.367 10.3711C520.003 10.3711 519.717 10.6497 519.717 11.0042V148.994L509.293 148.209V11.0042C509.293 10.6497 509.008 10.3711 508.644 10.3711C508.28 10.3711 507.994 10.6497 507.994 11.0042V148.12L498.649 147.424V123.465L497.57 123.326V11.0042C497.57 10.6497 497.284 10.3711 496.92 10.3711C496.556 10.3711 496.27 10.6497 496.27 11.0042V123.161L485.846 121.882V11.0042C485.846 10.6497 485.56 10.3711 485.196 10.3711C484.832 10.3711 484.546 10.6497 484.546 11.0042V121.718L475.045 120.553V6.23025H475.006ZM462.97 120.35L480.192 122.465V133.216L462.97 131.608V120.35ZM462.97 132.887L480.192 134.495V146.056L462.97 144.765V132.887ZM445.372 118.185L461.671 120.186V131.494L445.372 129.974V118.185ZM445.372 131.241L461.671 132.76V144.663L452.637 143.992L452.611 144.347H445.372V131.241ZM429.632 118.096H444.072V129.911H429.632V118.096ZM429.632 131.177H444.072V144.347H429.632V131.177ZM412.046 118.096H428.345V129.911H412.046V118.096ZM412.046 131.177H428.345V144.347H412.046V131.177ZM410.747 129.911H394.916V118.096H410.747V129.911ZM404.781 116.83H393.616V144.347H383.426V176.98H370.922V217.894L315.865 219.984V208.498H336.973V218.971H338.273V108.637L404.781 116.83ZM355.65 51.4882V33.9625L372.534 38.7745L372.287 54.8693L384.037 57.2626V113.006L337.025 107.219V47.702L355.65 51.4882ZM354.35 33.8738V49.9307L337.038 46.4103V46.2964H333.983V33.8738H354.35ZM335.738 47.55V107.206H331.163V47.5373L335.738 47.55ZM330.084 1.67153L351.478 7.76249V32.6075H333.398L330.084 31.8604V1.67153ZM315.332 29.847L332.671 33.7472V46.2837H330.578L326.536 45.3846V45.258H315.332V29.847ZM329.863 47.4234V107.206H326.536V46.6762L329.863 47.4234ZM272.83 47.1321H282.617V29.6823H314.032V46.5243H325.236V107.206H272.83V47.1321ZM336.921 108.472H336.973V120.502H254.933V108.472H336.921ZM259.924 93.1625V107.206H253.633V112.183L249.071 111.866V91.6556L259.924 93.1625ZM218.969 73.9906L251.462 78.8026V90.7059L224.61 86.9576V87.0589H218.969V73.9906ZM183.317 73.8893H217.669V87.0589H183.317V73.8893ZM206.894 88.3252V110.22H190.816V88.3252H206.894ZM189.516 236.268H174.062V111.486H189.516V236.268ZM189.516 110.22H174.062V88.3252H189.516V110.22ZM190.816 236.268V111.486H206.894V236.268H190.816ZM187.021 239.067L208.714 237.573V275.955L187.021 278.297V239.067ZM187.021 279.576L208.714 277.234V309.487L187.021 312.627V279.576ZM187.021 313.919L208.714 310.778V343.867L187.021 347.476V313.919ZM187.021 348.755L208.714 345.159V385.25L192.142 389.416L192.064 389.366L192.012 389.454L187.034 390.708V348.755H187.021ZM187.021 391.999L191.921 390.771L206.4 399.876H178.027L177.988 399.851L177.871 399.863L169.812 396.318L185.708 392.329V392.341H187.008V391.999H187.021ZM157.387 241.106L185.721 239.156V278.437L157.387 281.488V241.106ZM157.387 282.767L185.721 279.716V312.83L157.387 316.932V282.767ZM157.387 318.211L185.721 314.109V347.691L157.387 352.402V318.211ZM157.387 353.668L185.721 348.97V391.024L167.928 395.494L157.387 390.86V353.668ZM157.387 392.24L165.913 395.988L157.387 398.128V392.24ZM125.283 241.144H156.087V281.628H125.283V241.144ZM125.283 282.894H156.087V317.122H125.283V282.894ZM125.283 318.376H156.087V352.604H125.283V318.376ZM125.283 353.871H156.087V390.29L149.666 387.466C149.822 387.124 149.913 386.744 149.913 386.352C149.913 384.794 148.626 383.54 147.028 383.54C145.429 383.54 144.142 384.794 144.142 386.352C144.142 386.82 144.272 387.263 144.48 387.643L126.829 398.318H125.283V353.871ZM145.338 388.618C145.819 388.96 146.391 389.163 147.028 389.163C147.729 389.163 148.366 388.91 148.86 388.504L156.087 391.683V398.331H129.299L145.338 388.618ZM114.586 407.208L127.206 399.572H157.387V399.433L167.811 396.811L175.375 400.142L114.586 407.208ZM177.676 401.269L201.565 422.226L189.178 426.43L130.651 424.734L177.676 401.269ZM90.9174 431.014L168.889 404.232L127.895 424.683L90.9174 431.014ZM129.754 425.975L185.773 427.583L185.448 427.697H189.217L271.881 445.311L159.557 433.826C159.31 431.369 157.205 429.432 154.618 429.432C151.863 429.432 149.627 431.61 149.627 434.294C149.627 434.547 149.666 434.775 149.705 435.016L142.777 438.384L129.754 425.975ZM150.056 436.257C150.836 437.967 152.577 439.157 154.618 439.157C156.074 439.157 157.387 438.536 158.296 437.561L199.719 463.445L76.8281 471.942L150.056 436.257ZM78.5308 474.12L243.989 496.951L185.734 517.01L185.942 516.807L184.707 517.288L78.5308 474.12ZM16.5588 537.904L56.2011 485.542L88.9158 554.442L16.5588 537.904ZM57.5139 485.276L181.64 518.403L180.899 518.656L181.055 518.694L90.1376 554.011L57.5139 485.276ZM104.942 593.622L90.6575 555.176L180.522 520.264L104.942 593.622ZM123.047 589.924L124.347 591.266L106.358 594.014L183.434 519.213L351.127 556.544L126.128 590.988L123.047 589.924ZM5.45894 622.19L88.9548 595.648L180.366 650.454L5.45894 622.19ZM127.713 592.9L240.57 632.409L183.719 650.872L127.713 592.9ZM85.7314 688.557L183.602 652.252L186.696 652.746L186.072 652.366L238.062 655.266L86.1863 688.95L85.7314 688.557ZM178.767 768.689L88.2919 690.76L448.205 757.001L178.767 768.689ZM89.0458 689.608L242.741 655.532L247.095 655.772L247.16 654.544L293.314 644.312L314.331 659.217V659.305L314.474 659.318L368.843 697.877L368.791 698.257L369.506 698.346L451.117 756.229L89.0458 689.608ZM454.002 756.723L372.209 698.713L640.932 733.904L454.002 756.723ZM373.444 697.598L530.479 668.207L531.636 668.878L530.037 669.132L530.245 670.385L533.391 669.892L642.895 732.891L373.444 697.598ZM646.027 733.207L535.405 669.562L579.857 662.522L607.918 659.305L607.775 658.102L745.393 636.309H745.952V636.22L796.434 628.23L796.551 628.281L796.59 628.205L830.669 622.81L830.747 622.949L831.163 622.721L910.409 610.172C910.409 610.274 910.435 610.375 910.435 610.476L646.027 733.207ZM649.575 732.966L910.721 611.742C911.436 613.566 913.242 614.87 915.374 614.87C917.713 614.87 919.65 613.3 920.196 611.198L1110.4 691.039L649.575 732.966ZM1112.92 690.722L1026.06 654.253L1156.71 631.864L1156.79 631.852L1376.39 538.043H1376.46V538.018L1387.2 533.434C1388.11 534.497 1389.47 535.194 1391.02 535.194C1393.1 535.194 1394.86 533.953 1395.62 532.205L1429.19 546.413L1429.26 546.895L1430.06 546.781L1568.91 605.538L1568.09 605.576L1275.08 589.785C1274.72 587.455 1272.66 585.669 1270.17 585.669C1267.41 585.669 1265.18 587.847 1265.18 590.532C1265.18 590.899 1265.23 591.254 1265.31 591.595L1112.92 690.722ZM1351.01 614.858L1275.08 591.355C1275.09 591.254 1275.11 591.152 1275.11 591.051L1554.86 606.12L1351.01 614.668V614.858ZM1115.16 690.786L1265.79 592.811C1266.63 594.343 1268.27 595.394 1270.17 595.394C1272.17 595.394 1273.9 594.229 1274.69 592.571L1582.25 687.734L1115.16 690.786ZM1586.21 687.633L1354.12 615.82L1568.11 606.855L1568.46 606.867L1567.69 607.146L1569.8 606.943L1576.32 607.298L1576.23 607.26L1678.24 611.755C1678.18 612.046 1678.14 612.35 1678.14 612.667C1678.14 613.224 1678.26 613.756 1678.44 614.25L1586.21 687.633ZM1818.65 748.213L1587.73 688.05L1679 615.415C1679.9 616.681 1681.41 617.517 1683.11 617.517C1684.56 617.517 1685.86 616.896 1686.77 615.921L1818.65 748.213ZM1738.44 632.928L1688.1 612.654C1688.1 609.97 1685.86 607.792 1683.11 607.792C1681.15 607.792 1679.48 608.893 1678.66 610.501L1578.62 606.095L1894.94 575.703L1738.44 632.928ZM1577.75 604.892L1802.53 524.823L1897.59 574.158L1577.75 604.892Z" fill="url(#paint0_radial_1092_15699)"/>
<defs>
<radialGradient id="paint0_radial_1092_15699" cx="0" cy="0" r="1" gradientUnits="userSpaceOnUse" gradientTransform="translate(951 395.583) rotate(90) scale(395.583 951)">
<stop stop-color="#FF9F9F"/>
<stop offset="1" stop-color="#FF9F9F" stop-opacity="0"/>
</radialGradient>
</defs>
</svg>
