<svg width="267" height="253" viewBox="0 0 267 253" fill="none" xmlns="http://www.w3.org/2000/svg">
<g filter="url(#filter0_d_1037_1076)">
<rect x="2" width="263" height="248" rx="10" fill="white"/>
</g>
<path d="M63.906 170.492H61.1063C61.0551 170.13 60.9507 169.808 60.7931 169.527C60.6354 169.241 60.433 168.999 60.1858 168.798C59.9387 168.598 59.6531 168.445 59.3293 168.338C59.0097 168.232 58.6624 168.178 58.2874 168.178C57.6098 168.178 57.0196 168.347 56.5168 168.683C56.0139 169.016 55.624 169.501 55.347 170.141C55.07 170.776 54.9316 171.547 54.9316 172.455C54.9316 173.388 55.07 174.172 55.347 174.807C55.6283 175.442 56.0203 175.921 56.5232 176.245C57.026 176.569 57.6077 176.731 58.2682 176.731C58.6389 176.731 58.982 176.682 59.2973 176.584C59.6169 176.486 59.9003 176.343 60.1475 176.156C60.3946 175.964 60.5992 175.732 60.7611 175.459C60.9273 175.186 61.0423 174.875 61.1063 174.526L63.906 174.538C63.8335 175.139 63.6524 175.719 63.3627 176.277C63.0771 176.831 62.6915 177.327 62.2057 177.766C61.7242 178.201 61.1489 178.546 60.4798 178.802C59.8151 179.053 59.0629 179.179 58.2235 179.179C57.0558 179.179 56.0118 178.915 55.0914 178.386C54.1752 177.858 53.4507 177.093 52.9181 176.092C52.3896 175.09 52.1254 173.878 52.1254 172.455C52.1254 171.027 52.3939 169.812 52.9308 168.811C53.4678 167.81 54.1965 167.047 55.1169 166.523C56.0374 165.994 57.0729 165.73 58.2235 165.73C58.982 165.73 59.6851 165.837 60.3328 166.05C60.9848 166.263 61.5622 166.574 62.0651 166.983C62.5679 167.388 62.977 167.884 63.2923 168.472C63.6119 169.06 63.8165 169.734 63.906 170.492ZM68.5626 173.324V179H65.8396V165.909H68.4859V170.914H68.6009C68.8225 170.335 69.1805 169.881 69.6748 169.553C70.1691 169.22 70.7892 169.054 71.5349 169.054C72.2167 169.054 72.8112 169.203 73.3183 169.501C73.8296 169.795 74.2259 170.219 74.5072 170.773C74.7927 171.323 74.9333 171.982 74.9291 172.749V179H72.2061V173.234C72.2103 172.629 72.0569 172.158 71.7458 171.822C71.439 171.485 71.0086 171.317 70.4546 171.317C70.0839 171.317 69.7558 171.396 69.4703 171.553C69.189 171.711 68.9674 171.941 68.8055 172.244C68.6478 172.542 68.5669 172.902 68.5626 173.324ZM77.072 179V169.182H79.795V179H77.072ZM79.4434 167.776H77.4236L77.2829 166.625C77.7346 166.604 78.0564 166.544 78.2481 166.446C78.4399 166.344 78.5336 166.21 78.5294 166.043C78.5336 165.813 78.4122 165.658 78.165 165.577C77.9221 165.496 77.6175 165.455 77.251 165.455L77.3213 164.222C78.4591 164.222 79.3241 164.375 79.9165 164.682C80.5131 164.989 80.8092 165.415 80.805 165.96C80.8092 166.348 80.6686 166.642 80.3831 166.842C80.1018 167.038 79.7886 167.162 79.4434 167.213V167.776ZM91.8121 165.909V179H89.0443V168.536H88.9676L85.9697 170.415V167.961L89.2105 165.909H91.8121ZM99.7046 179.179C98.8012 179.179 97.9958 179.013 97.2884 178.68C96.5853 178.348 96.0271 177.89 95.6137 177.306C95.2004 176.722 94.9852 176.053 94.9681 175.299H97.6528C97.6826 175.806 97.8957 176.217 98.292 176.533C98.6883 176.848 99.1592 177.006 99.7046 177.006C100.139 177.006 100.523 176.91 100.855 176.718C101.192 176.522 101.454 176.251 101.641 175.906C101.833 175.557 101.929 175.156 101.929 174.705C101.929 174.244 101.831 173.839 101.635 173.49C101.443 173.141 101.177 172.868 100.836 172.672C100.495 172.476 100.105 172.376 99.6663 172.371C99.2828 172.371 98.9099 172.45 98.5477 172.608C98.1897 172.766 97.9106 172.981 97.7103 173.254L95.2494 172.812L95.8694 165.909H103.872V168.172H98.1514L97.8126 171.451H97.8893C98.1194 171.127 98.4667 170.859 98.9312 170.646C99.3957 170.433 99.9156 170.326 100.491 170.326C101.279 170.326 101.982 170.511 102.6 170.882C103.218 171.253 103.706 171.762 104.064 172.41C104.422 173.053 104.599 173.795 104.595 174.634C104.599 175.516 104.394 176.3 103.981 176.987C103.572 177.668 102.999 178.205 102.261 178.597C101.528 178.985 100.676 179.179 99.7046 179.179ZM106.551 182.682V169.182H109.235V170.831H109.357C109.476 170.567 109.649 170.298 109.874 170.026C110.104 169.749 110.403 169.518 110.769 169.335C111.14 169.148 111.6 169.054 112.15 169.054C112.866 169.054 113.526 169.241 114.131 169.616C114.737 169.987 115.22 170.548 115.582 171.298C115.945 172.043 116.126 172.979 116.126 174.104C116.126 175.199 115.949 176.124 115.595 176.878C115.246 177.628 114.769 178.197 114.163 178.585C113.563 178.968 112.889 179.16 112.144 179.16C111.615 179.16 111.166 179.072 110.795 178.898C110.428 178.723 110.128 178.504 109.894 178.239C109.659 177.971 109.48 177.7 109.357 177.428H109.274V182.682H106.551ZM109.216 174.091C109.216 174.675 109.297 175.184 109.459 175.619C109.621 176.053 109.855 176.392 110.162 176.635C110.469 176.874 110.842 176.993 111.281 176.993C111.724 176.993 112.099 176.871 112.406 176.629C112.712 176.381 112.945 176.04 113.102 175.606C113.264 175.167 113.345 174.662 113.345 174.091C113.345 173.524 113.266 173.026 113.109 172.595C112.951 172.165 112.719 171.828 112.412 171.585C112.105 171.342 111.728 171.221 111.281 171.221C110.837 171.221 110.462 171.338 110.156 171.572C109.853 171.807 109.621 172.139 109.459 172.57C109.297 173 109.216 173.507 109.216 174.091ZM120.664 173.324V179H117.941V165.909H120.587V170.914H120.703C120.924 170.335 121.282 169.881 121.776 169.553C122.271 169.22 122.891 169.054 123.636 169.054C124.318 169.054 124.913 169.203 125.42 169.501C125.931 169.795 126.328 170.219 126.609 170.773C126.894 171.323 127.035 171.982 127.031 172.749V179H124.308V173.234C124.312 172.629 124.158 172.158 123.847 171.822C123.541 171.485 123.11 171.317 122.556 171.317C122.185 171.317 121.857 171.396 121.572 171.553C121.291 171.711 121.069 171.941 120.907 172.244C120.749 172.542 120.668 172.902 120.664 173.324ZM135.615 169.182L137.418 172.614L139.265 169.182H142.058L139.214 174.091L142.135 179H139.354L137.418 175.606L135.513 179H132.7L135.615 174.091L132.803 169.182H135.615ZM147.798 179.192C146.788 179.192 145.919 178.987 145.19 178.578C144.466 178.165 143.908 177.581 143.516 176.827C143.124 176.068 142.928 175.171 142.928 174.136C142.928 173.126 143.124 172.239 143.516 171.477C143.908 170.714 144.46 170.119 145.171 169.693C145.887 169.267 146.727 169.054 147.69 169.054C148.337 169.054 148.94 169.158 149.499 169.367C150.061 169.572 150.551 169.881 150.969 170.294C151.391 170.707 151.719 171.227 151.953 171.854C152.188 172.476 152.305 173.205 152.305 174.04V174.788H144.014V173.1H149.742C149.742 172.708 149.656 172.361 149.486 172.058C149.315 171.756 149.079 171.519 148.776 171.349C148.478 171.174 148.131 171.087 147.734 171.087C147.321 171.087 146.955 171.183 146.635 171.374C146.32 171.562 146.073 171.815 145.894 172.135C145.715 172.45 145.623 172.802 145.619 173.19V174.794C145.619 175.28 145.708 175.7 145.887 176.053C146.07 176.407 146.328 176.68 146.661 176.871C146.993 177.063 147.387 177.159 147.843 177.159C148.146 177.159 148.423 177.116 148.674 177.031C148.926 176.946 149.141 176.818 149.32 176.648C149.499 176.477 149.635 176.268 149.729 176.021L152.247 176.188C152.119 176.793 151.857 177.321 151.461 177.773C151.069 178.22 150.562 178.57 149.94 178.821C149.322 179.068 148.608 179.192 147.798 179.192ZM146.648 167.916L148.003 165.008H150.521L148.572 167.916H146.648ZM159.304 169.182V171.227H153.391V169.182H159.304ZM154.734 166.83H157.457V175.983C157.457 176.234 157.495 176.43 157.572 176.571C157.649 176.707 157.755 176.803 157.891 176.859C158.032 176.914 158.194 176.942 158.377 176.942C158.505 176.942 158.633 176.931 158.761 176.91C158.889 176.884 158.987 176.865 159.055 176.852L159.483 178.879C159.347 178.921 159.155 178.97 158.908 179.026C158.661 179.085 158.36 179.121 158.006 179.134C157.35 179.16 156.775 179.072 156.281 178.872C155.791 178.672 155.409 178.361 155.136 177.939C154.864 177.517 154.729 176.984 154.734 176.341V166.83ZM168.862 179.16C168.116 179.16 167.441 178.968 166.835 178.585C166.235 178.197 165.757 177.628 165.404 176.878C165.054 176.124 164.88 175.199 164.88 174.104C164.88 172.979 165.061 172.043 165.423 171.298C165.785 170.548 166.267 169.987 166.867 169.616C167.473 169.241 168.135 169.054 168.855 169.054C169.405 169.054 169.863 169.148 170.23 169.335C170.6 169.518 170.899 169.749 171.125 170.026C171.355 170.298 171.529 170.567 171.649 170.831H171.732V165.909H174.448V179H171.764V177.428H171.649C171.521 177.7 171.34 177.971 171.105 178.239C170.875 178.504 170.575 178.723 170.204 178.898C169.838 179.072 169.39 179.16 168.862 179.16ZM169.725 176.993C170.164 176.993 170.534 176.874 170.837 176.635C171.144 176.392 171.378 176.053 171.54 175.619C171.706 175.184 171.789 174.675 171.789 174.091C171.789 173.507 171.708 173 171.546 172.57C171.384 172.139 171.15 171.807 170.843 171.572C170.536 171.338 170.164 171.221 169.725 171.221C169.277 171.221 168.9 171.342 168.593 171.585C168.286 171.828 168.054 172.165 167.897 172.595C167.739 173.026 167.66 173.524 167.66 174.091C167.66 174.662 167.739 175.167 167.897 175.606C168.059 176.04 168.291 176.381 168.593 176.629C168.9 176.871 169.277 176.993 169.725 176.993ZM182.983 174.82V169.182H185.706V179H183.092V177.217H182.99C182.768 177.792 182.4 178.254 181.884 178.604C181.373 178.953 180.748 179.128 180.011 179.128C179.355 179.128 178.777 178.979 178.279 178.68C177.78 178.382 177.39 177.958 177.109 177.408C176.832 176.859 176.691 176.2 176.687 175.433V169.182H179.41V174.947C179.415 175.527 179.57 175.985 179.877 176.322C180.184 176.658 180.595 176.827 181.111 176.827C181.439 176.827 181.745 176.752 182.031 176.603C182.316 176.45 182.547 176.224 182.721 175.925C182.9 175.627 182.988 175.259 182.983 174.82ZM189.566 182.682C189.22 182.682 188.897 182.654 188.594 182.599C188.296 182.548 188.049 182.482 187.853 182.401L188.466 180.368C188.786 180.466 189.073 180.519 189.329 180.528C189.589 180.536 189.813 180.477 190 180.349C190.192 180.221 190.348 180.004 190.467 179.697L190.627 179.281L187.105 169.182H189.968L192.001 176.392H192.103L194.155 169.182H197.038L193.222 180.061C193.039 180.589 192.789 181.05 192.474 181.442C192.163 181.838 191.769 182.143 191.291 182.356C190.814 182.573 190.239 182.682 189.566 182.682ZM202.589 179.192C201.579 179.192 200.71 178.987 199.981 178.578C199.257 178.165 198.699 177.581 198.307 176.827C197.915 176.068 197.719 175.171 197.719 174.136C197.719 173.126 197.915 172.239 198.307 171.477C198.699 170.714 199.251 170.119 199.962 169.693C200.678 169.267 201.518 169.054 202.481 169.054C203.128 169.054 203.731 169.158 204.29 169.367C204.852 169.572 205.342 169.881 205.76 170.294C206.182 170.707 206.51 171.227 206.744 171.854C206.979 172.476 207.096 173.205 207.096 174.04V174.788H198.805V173.1H204.533C204.533 172.708 204.447 172.361 204.277 172.058C204.106 171.756 203.87 171.519 203.567 171.349C203.269 171.174 202.922 171.087 202.525 171.087C202.112 171.087 201.746 171.183 201.426 171.374C201.111 171.562 200.864 171.815 200.685 172.135C200.506 172.45 200.414 172.802 200.41 173.19V174.794C200.41 175.28 200.499 175.7 200.678 176.053C200.861 176.407 201.119 176.68 201.452 176.871C201.784 177.063 202.178 177.159 202.634 177.159C202.937 177.159 203.214 177.116 203.465 177.031C203.717 176.946 203.932 176.818 204.111 176.648C204.29 176.477 204.426 176.268 204.52 176.021L207.038 176.188C206.91 176.793 206.648 177.321 206.252 177.773C205.86 178.22 205.353 178.57 204.731 178.821C204.113 179.068 203.399 179.192 202.589 179.192ZM203.702 168.006L202.417 166.446L201.132 168.006H198.812V167.916L201.4 165.104H203.427L206.022 167.916V168.006H203.702ZM202.423 182.675C202.018 182.675 201.671 182.541 201.381 182.273C201.092 182.004 200.947 181.68 200.947 181.301C200.947 180.922 201.092 180.598 201.381 180.33C201.671 180.061 202.018 179.927 202.423 179.927C202.828 179.927 203.173 180.061 203.459 180.33C203.748 180.598 203.893 180.922 203.893 181.301C203.893 181.68 203.748 182.004 203.459 182.273C203.173 182.541 202.828 182.675 202.423 182.675ZM214.095 169.182V171.227H208.182V169.182H214.095ZM209.525 166.83H212.248V175.983C212.248 176.234 212.286 176.43 212.363 176.571C212.44 176.707 212.546 176.803 212.682 176.859C212.823 176.914 212.985 176.942 213.168 176.942C213.296 176.942 213.424 176.931 213.552 176.91C213.68 176.884 213.778 176.865 213.846 176.852L214.274 178.879C214.138 178.921 213.946 178.97 213.699 179.026C213.452 179.085 213.151 179.121 212.797 179.134C212.141 179.16 211.566 179.072 211.072 178.872C210.582 178.672 210.2 178.361 209.927 177.939C209.655 177.517 209.521 176.984 209.525 176.341V166.83ZM104.812 196.182V198.227H98.8992V196.182H104.812ZM100.242 193.83H102.965V202.983C102.965 203.234 103.003 203.43 103.08 203.571C103.156 203.707 103.263 203.803 103.399 203.859C103.54 203.914 103.702 203.942 103.885 203.942C104.013 203.942 104.141 203.931 104.269 203.91C104.396 203.884 104.494 203.865 104.563 203.852L104.991 205.879C104.854 205.921 104.663 205.97 104.416 206.026C104.168 206.085 103.868 206.121 103.514 206.134C102.858 206.16 102.283 206.072 101.788 205.872C101.298 205.672 100.917 205.361 100.644 204.939C100.372 204.517 100.237 203.984 100.242 203.341V193.83ZM116.966 195.638H118.545C118.541 196.38 118.43 197.002 118.213 197.505C117.995 198.004 117.627 198.379 117.107 198.63C116.591 198.881 115.886 199.007 114.991 199.007V197.793C115.584 197.793 116.018 197.714 116.295 197.556C116.576 197.398 116.758 197.162 116.839 196.847C116.924 196.527 116.966 196.124 116.966 195.638ZM112.946 201.82V196.182H115.662V206H113.054V204.217H112.952C112.731 204.792 112.362 205.254 111.846 205.604C111.335 205.953 110.711 206.128 109.973 206.128C109.317 206.128 108.74 205.979 108.241 205.68C107.743 205.382 107.353 204.958 107.071 204.408C106.794 203.859 106.654 203.2 106.65 202.433V196.182H109.373V201.947C109.373 202.527 109.526 202.985 109.833 203.322C110.144 203.658 110.557 203.827 111.073 203.827C111.401 203.827 111.706 203.752 111.987 203.603C112.272 203.45 112.503 203.224 112.677 202.925C112.856 202.627 112.946 202.259 112.946 201.82ZM111.571 209.675C111.167 209.675 110.819 209.541 110.53 209.273C110.24 209.004 110.095 208.68 110.095 208.301C110.095 207.922 110.24 207.598 110.53 207.33C110.819 207.061 111.167 206.927 111.571 206.927C111.976 206.927 112.321 207.061 112.607 207.33C112.897 207.598 113.042 207.922 113.042 208.301C113.042 208.68 112.897 209.004 112.607 209.273C112.321 209.541 111.976 209.675 111.571 209.675ZM127.131 206.16C126.386 206.16 125.71 205.968 125.105 205.585C124.504 205.197 124.027 204.628 123.673 203.878C123.324 203.124 123.149 202.199 123.149 201.104C123.149 199.979 123.33 199.043 123.692 198.298C124.055 197.548 124.536 196.987 125.137 196.616C125.742 196.241 126.405 196.054 127.125 196.054C127.675 196.054 128.133 196.148 128.499 196.335C128.87 196.518 129.168 196.749 129.394 197.026C129.624 197.298 129.799 197.567 129.918 197.831H130.001V192.909H132.718V206H130.033V204.428H129.918C129.79 204.7 129.609 204.971 129.375 205.239C129.145 205.504 128.844 205.723 128.474 205.898C128.107 206.072 127.66 206.16 127.131 206.16ZM127.994 203.993C128.433 203.993 128.804 203.874 129.106 203.635C129.413 203.392 129.648 203.053 129.81 202.619C129.976 202.184 130.059 201.675 130.059 201.091C130.059 200.507 129.978 200 129.816 199.57C129.654 199.139 129.42 198.807 129.113 198.572C128.806 198.338 128.433 198.221 127.994 198.221C127.547 198.221 127.17 198.342 126.863 198.585C126.556 198.828 126.324 199.165 126.166 199.595C126.008 200.026 125.93 200.524 125.93 201.091C125.93 201.662 126.008 202.167 126.166 202.606C126.328 203.04 126.56 203.381 126.863 203.629C127.17 203.871 127.547 203.993 127.994 203.993ZM127.457 195.511V193.906H133.837V195.511H127.457ZM139.393 206.192C138.4 206.192 137.541 205.981 136.817 205.559C136.097 205.133 135.541 204.54 135.149 203.782C134.756 203.019 134.56 202.135 134.56 201.129C134.56 200.115 134.756 199.229 135.149 198.47C135.541 197.707 136.097 197.115 136.817 196.693C137.541 196.267 138.4 196.054 139.393 196.054C140.386 196.054 141.242 196.267 141.962 196.693C142.687 197.115 143.245 197.707 143.637 198.47C144.029 199.229 144.225 200.115 144.225 201.129C144.225 202.135 144.029 203.019 143.637 203.782C143.245 204.54 142.687 205.133 141.962 205.559C141.242 205.981 140.386 206.192 139.393 206.192ZM139.406 204.082C139.857 204.082 140.234 203.955 140.537 203.699C140.84 203.439 141.068 203.085 141.221 202.638C141.379 202.19 141.457 201.681 141.457 201.11C141.457 200.539 141.379 200.03 141.221 199.582C141.068 199.135 140.84 198.781 140.537 198.521C140.234 198.261 139.857 198.131 139.406 198.131C138.95 198.131 138.566 198.261 138.255 198.521C137.948 198.781 137.716 199.135 137.558 199.582C137.405 200.03 137.328 200.539 137.328 201.11C137.328 201.681 137.405 202.19 137.558 202.638C137.716 203.085 137.948 203.439 138.255 203.699C138.566 203.955 138.95 204.082 139.406 204.082ZM140.678 195.006L139.393 193.446L138.108 195.006H135.788V194.916L138.377 192.104H140.403L142.998 194.916V195.006H140.678ZM139.393 209.675C138.988 209.675 138.641 209.541 138.351 209.273C138.061 209.004 137.916 208.68 137.916 208.301C137.916 207.922 138.061 207.598 138.351 207.33C138.641 207.061 138.988 206.927 139.393 206.927C139.798 206.927 140.143 207.061 140.428 207.33C140.718 207.598 140.863 207.922 140.863 208.301C140.863 208.68 140.718 209.004 140.428 209.273C140.143 209.541 139.798 209.675 139.393 209.675ZM148.719 200.324V206H145.996V196.182H148.591V197.914H148.706C148.923 197.343 149.288 196.891 149.799 196.559C150.31 196.222 150.93 196.054 151.659 196.054C152.341 196.054 152.935 196.203 153.443 196.501C153.95 196.8 154.344 197.226 154.625 197.78C154.906 198.33 155.047 198.986 155.047 199.749V206H152.324V200.234C152.328 199.634 152.175 199.165 151.864 198.828C151.553 198.487 151.124 198.317 150.579 198.317C150.212 198.317 149.889 198.396 149.607 198.553C149.33 198.711 149.113 198.941 148.955 199.244C148.802 199.542 148.723 199.902 148.719 200.324ZM161.616 209.886C160.734 209.886 159.978 209.765 159.347 209.522C158.721 209.283 158.222 208.957 157.851 208.544C157.481 208.131 157.24 207.666 157.129 207.151L159.648 206.812C159.724 207.008 159.846 207.191 160.012 207.362C160.178 207.532 160.398 207.668 160.67 207.771C160.947 207.877 161.284 207.93 161.68 207.93C162.273 207.93 162.761 207.786 163.144 207.496C163.532 207.21 163.726 206.731 163.726 206.058V204.261H163.611C163.491 204.534 163.312 204.792 163.074 205.035C162.835 205.278 162.528 205.476 162.153 205.629C161.778 205.783 161.331 205.859 160.811 205.859C160.074 205.859 159.403 205.689 158.797 205.348C158.197 205.003 157.717 204.477 157.359 203.769C157.006 203.058 156.829 202.158 156.829 201.072C156.829 199.96 157.01 199.031 157.372 198.285C157.734 197.539 158.216 196.981 158.817 196.61C159.422 196.239 160.084 196.054 160.805 196.054C161.354 196.054 161.815 196.148 162.185 196.335C162.556 196.518 162.854 196.749 163.08 197.026C163.31 197.298 163.487 197.567 163.611 197.831H163.713V196.182H166.417V206.096C166.417 206.931 166.212 207.63 165.803 208.192C165.394 208.755 164.827 209.177 164.103 209.458C163.383 209.744 162.554 209.886 161.616 209.886ZM161.674 203.814C162.113 203.814 162.484 203.705 162.786 203.488C163.093 203.266 163.327 202.951 163.489 202.542C163.655 202.129 163.739 201.634 163.739 201.059C163.739 200.484 163.658 199.985 163.496 199.563C163.334 199.137 163.099 198.807 162.793 198.572C162.486 198.338 162.113 198.221 161.674 198.221C161.226 198.221 160.849 198.342 160.543 198.585C160.236 198.824 160.003 199.156 159.846 199.582C159.688 200.009 159.609 200.501 159.609 201.059C159.609 201.626 159.688 202.116 159.846 202.529C160.008 202.938 160.24 203.256 160.543 203.482C160.849 203.703 161.226 203.814 161.674 203.814Z" fill="black"/>
<g clip-path="url(#clip0_1037_1076)">
<path d="M173.806 79.964L177.395 71.2684C178.884 67.661 177.55 63.5565 174.223 61.5147L165.035 56.0173L162.965 47.4479C162.045 43.6474 158.525 41.1137 154.666 41.4174L144.152 42.2311L138.13 36.8981C136.645 35.6316 134.823 34.9993 133 35C131.18 35.0007 129.358 35.6321 127.871 36.8954L121.848 42.2311L111.335 41.4174C107.519 41.1497 103.952 43.6498 103.131 47.1363C103.33 46.5163 100.26 56.0604 100.09 56.5888L91.7786 61.512C88.4493 63.5565 87.1155 67.6609 88.6063 71.2711L92.1931 79.964L88.6091 88.6542C87.1157 92.2669 88.452 96.3687 91.7788 98.4106L100.958 103.87L103.036 112.478C103.95 116.275 107.454 118.796 111.335 118.508L121.735 117.705L127.871 123.1C129.357 124.366 131.177 125 133 125C134.821 125 136.644 124.366 138.13 123.1L144.266 117.705L154.666 118.508C158.595 118.819 162.051 116.278 162.965 112.477L165.035 103.908L174.223 98.4106C177.547 96.3687 178.881 92.2669 177.393 88.6542L173.806 79.964Z" fill="#FFEAEE"/>
<path d="M133 109.004C149.018 109.004 162.004 96.0184 162.004 80C162.004 63.9816 149.018 50.9961 133 50.9961C116.982 50.9961 103.996 63.9816 103.996 80C103.996 96.0184 116.982 109.004 133 109.004Z" fill="url(#paint0_linear_1037_1076)"/>
<path d="M148.048 70.2256C147.018 69.1956 145.349 69.1956 144.319 70.2256L133 81.5448L130.363 84.1815L121.681 75.4988C120.651 74.4689 118.982 74.4689 117.952 75.4988C116.922 76.5287 116.922 78.1974 117.952 79.2273L128.499 89.7742C129.014 90.2892 129.689 90.5467 130.363 90.5467C131.038 90.5467 131.712 90.2892 132.227 89.7742L133 89.0016L148.048 73.9539C149.078 72.924 149.078 71.2555 148.048 70.2256Z" fill="white"/>
<path d="M148.048 70.2256C147.018 69.1956 145.349 69.1956 144.319 70.2256L133 81.5448V89.0018L148.048 73.954C149.078 72.924 149.078 71.2555 148.048 70.2256Z" fill="white"/>
</g>
<defs>
<filter id="filter0_d_1037_1076" x="0" y="0" width="267" height="253" filterUnits="userSpaceOnUse" color-interpolation-filters="sRGB">
<feFlood flood-opacity="0" result="BackgroundImageFix"/>
<feColorMatrix in="SourceAlpha" type="matrix" values="0 0 0 0 0 0 0 0 0 0 0 0 0 0 0 0 0 0 127 0" result="hardAlpha"/>
<feOffset dy="3"/>
<feGaussianBlur stdDeviation="1"/>
<feComposite in2="hardAlpha" operator="out"/>
<feColorMatrix type="matrix" values="0 0 0 0 0 0 0 0 0 0 0 0 0 0 0 0 0 0 0.15 0"/>
<feBlend mode="normal" in2="BackgroundImageFix" result="effect1_dropShadow_1037_1076"/>
<feBlend mode="normal" in="SourceGraphic" in2="effect1_dropShadow_1037_1076" result="shape"/>
</filter>
<linearGradient id="paint0_linear_1037_1076" x1="133" y1="50.9961" x2="133" y2="109.004" gradientUnits="userSpaceOnUse">
<stop stop-color="#EE0033"/>
<stop offset="1" stop-color="#FF587C"/>
</linearGradient>
<clipPath id="clip0_1037_1076">
<rect width="90" height="90" fill="white" transform="translate(88 35)"/>
</clipPath>
</defs>
</svg>
