<svg width="72" height="72" viewBox="0 0 72 72" fill="none" xmlns="http://www.w3.org/2000/svg">
<circle cx="36" cy="36" r="36" fill="#DD242C"/>
<path d="M48.1389 28.0063C51.6706 28.0063 54.5336 25.1432 54.5336 21.6115C54.5336 18.0798 51.6706 15.2168 48.1389 15.2168C44.6072 15.2168 41.7441 18.0798 41.7441 21.6115C41.7441 25.1432 44.6072 28.0063 48.1389 28.0063Z" fill="white"/>
<path d="M27.3559 31.2032C27.3547 30.667 27.4029 30.1318 27.4998 29.6045H22.5598C20.4398 29.6045 18.4067 30.4467 16.9076 31.9457C15.4086 33.4448 14.5664 35.4779 14.5664 37.5979V45.5913C14.5664 46.0153 14.7348 46.422 15.0346 46.7218C15.3345 47.0216 15.7411 47.19 16.1651 47.19H22.5598C22.5616 45.0141 23.1976 42.8858 24.3902 41.0658C25.5827 39.2457 27.28 37.8128 29.2743 36.9425C28.0323 35.2865 27.3593 33.2732 27.3559 31.2032Z" fill="white"/>
<path d="M51.3356 29.6045H46.3956C46.4925 30.1318 46.5407 30.667 46.5395 31.2032C46.5361 33.2732 45.8631 35.2865 44.6211 36.9425C46.6154 37.8128 48.3127 39.2457 49.5052 41.0658C50.6978 42.8858 51.3338 45.0141 51.3356 47.19H57.7303C58.1543 47.19 58.5609 47.0216 58.8607 46.7218C59.1606 46.422 59.329 46.0153 59.329 45.5913V37.5979C59.329 35.4779 58.4868 33.4448 56.9878 31.9457C55.4887 30.4467 53.4556 29.6045 51.3356 29.6045Z" fill="white"/>
<path d="M25.758 28.0063C29.2897 28.0063 32.1528 25.1432 32.1528 21.6115C32.1528 18.0798 29.2897 15.2168 25.758 15.2168C22.2263 15.2168 19.3633 18.0798 19.3633 21.6115C19.3633 25.1432 22.2263 28.0063 25.758 28.0063Z" fill="white"/>
<path d="M36.9475 37.5981C40.4792 37.5981 43.3422 34.735 43.3422 31.2033C43.3422 27.6716 40.4792 24.8086 36.9475 24.8086C33.4158 24.8086 30.5527 27.6716 30.5527 31.2033C30.5527 34.735 33.4158 37.5981 36.9475 37.5981Z" fill="white"/>
<path d="M40.146 39.1973H33.7512C31.6312 39.1973 29.5981 40.0394 28.099 41.5385C26.6 43.0375 25.7578 45.0707 25.7578 47.1907V55.1841C25.7578 55.6081 25.9262 56.0147 26.2261 56.3146C26.5259 56.6144 26.9325 56.7828 27.3565 56.7828H46.5407C46.9647 56.7828 47.3713 56.6144 47.6712 56.3146C47.971 56.0147 48.1394 55.6081 48.1394 55.1841V47.1907C48.1394 46.141 47.9326 45.1015 47.5309 44.1317C47.1292 43.1619 46.5404 42.2807 45.7982 41.5385C45.0559 40.7962 44.1747 40.2074 43.2049 39.8057C42.2351 39.404 41.1957 39.1973 40.146 39.1973Z" fill="white"/>
</svg>
