<svg width="72" height="72" viewBox="0 0 72 72" fill="none" xmlns="http://www.w3.org/2000/svg">
<circle cx="36" cy="36" r="36" fill="#DD242C"/>
<g clip-path="url(#clip0_1092_15705)">
<path d="M35.3457 33.764C38.2923 33.764 40.8439 32.7071 42.9287 30.622C45.0135 28.5372 46.0703 25.9863 46.0703 23.0394C46.0703 20.0934 45.0135 17.5422 42.9283 15.4567C40.8432 13.3723 38.292 12.3154 35.3457 12.3154C32.3987 12.3154 29.8479 13.3723 27.7631 15.4571C25.6783 17.5419 24.6211 20.0931 24.6211 23.0394C24.6211 25.9863 25.6783 28.5375 27.7634 30.6223C29.8485 32.7068 32.3997 33.764 35.3457 33.764Z" fill="white"/>
<path d="M54.1111 46.5538C54.051 45.6862 53.9293 44.7397 53.7503 43.7403C53.5696 42.7334 53.3369 41.7816 53.0583 40.9116C52.7706 40.0124 52.3793 39.1244 51.8955 38.2734C51.3934 37.3902 50.8037 36.6211 50.1419 35.9882C49.45 35.3261 48.6027 34.7938 47.623 34.4055C46.6467 34.0193 45.5647 33.8236 44.4073 33.8236C43.9528 33.8236 43.5132 34.0101 42.6643 34.5628C42.1418 34.9035 41.5307 35.2976 40.8486 35.7334C40.2653 36.1051 39.4751 36.4533 38.4992 36.7685C37.5469 37.0766 36.5801 37.2329 35.6259 37.2329C34.6717 37.2329 33.7052 37.0766 32.752 36.7685C31.777 36.4536 30.9869 36.1054 30.4043 35.7338C29.7286 35.302 29.1171 34.9079 28.5868 34.5624C27.7389 34.0097 27.299 33.8232 26.8445 33.8232C25.6867 33.8232 24.6051 34.0193 23.6291 34.4058C22.6501 34.7934 21.8025 35.3258 21.1099 35.9885C20.4485 36.6218 19.8584 37.3905 19.357 38.2734C18.8736 39.1244 18.4822 40.012 18.1942 40.9119C17.9159 41.7819 17.6832 42.7334 17.5025 43.7403C17.3235 44.7384 17.2019 45.6852 17.1417 46.5548C17.0826 47.4068 17.0527 48.291 17.0527 49.1841C17.0527 51.5084 17.7916 53.3901 19.2486 54.7778C20.6876 56.1471 22.5917 56.8418 24.9071 56.8418H46.3467C48.6622 56.8418 50.5656 56.1475 52.0049 54.7778C53.4622 53.3911 54.2011 51.5091 54.2011 49.1838C54.2008 48.2866 54.1705 47.4017 54.1111 46.5538Z" fill="white"/>
</g>
<defs>
<clipPath id="clip0_1092_15705">
<rect width="44.5263" height="44.5263" fill="white" transform="translate(17.0527 12.3154)"/>
</clipPath>
</defs>
</svg>
