<svg width="72" height="72" viewBox="0 0 72 72" fill="none" xmlns="http://www.w3.org/2000/svg">
<circle cx="36" cy="36" r="36" fill="#DD242C"/>
<g clip-path="url(#clip0_1092_15714)">
<path d="M22.1409 40.4893C21.4229 40.4893 20.8418 41.0604 20.8418 41.766V54.6184C20.8418 55.324 21.4229 55.8951 22.1409 55.8951H26.038V40.4893H22.1409Z" fill="white"/>
<path d="M52.0234 21.6953C51.8355 22.1967 51.3497 22.5295 50.8058 22.5295H46.9086V54.6179C46.9086 55.3235 46.3275 55.8946 45.6095 55.8946H36.5161V22.5295H32.619C32.0751 22.5295 31.5892 22.1967 31.4013 21.6953C31.2125 21.194 31.3606 20.6305 31.7746 20.2841L40.8671 12.6238C41.3521 12.2127 42.0726 12.2127 42.5576 12.6238L51.6502 20.2841C52.0641 20.6305 52.2122 21.194 52.0234 21.6953Z" fill="white"/>
<path d="M30.0217 30.2754C29.3038 30.2754 28.7227 30.8465 28.7227 31.5521V40.4892V55.895C30.6201 55.895 32.0768 55.895 33.9189 55.895V30.2754H30.0217Z" fill="white"/>
</g>
<defs>
<clipPath id="clip0_1092_15714">
<rect width="31.2632" height="43.5789" fill="white" transform="translate(20.8418 12.3154)"/>
</clipPath>
</defs>
</svg>
