<svg width="508" height="615" viewBox="0 0 508 615" fill="none" xmlns="http://www.w3.org/2000/svg">
<g style="mix-blend-mode:screen" clip-path="url(#clip0_1040_1422)">
<g opacity="0.23">
<path opacity="0.23" d="M419.091 1955.71V1870.7L492.515 1828.14V1742.1L419.091 1699.64V1615.64L491.683 1573.64L565.107 1616.2L639.455 1573.18V1487.14L566.031 1444.59V1359.57L492.607 1317.01V1233.01L566.031 1190.46V1104.42L491.683 1061.4L418.166 1103.96L345.574 1061.96V977.96L418.166 935.961L491.683 978.424L566.031 935.405V849.367L492.607 806.904V722.906L566.031 680.351V595.333L639.455 552.87V466.833L566.031 424.277V339.259L492.607 296.704V212.706L566.031 170.15V85.1325L639.455 42.6699V-43.3679L565.107 -86.3868L491.683 -43.8315L419.091 -85.8306V-169.829L492.515 -212.384V-297.402L565.939 -339.957V-425.995L492.515 -468.551V-552.549L565.939 -595.104V-681.142L491.59 -724.161L418.074 -681.698L345.482 -723.697V-807.788L418.906 -850.343V-935.361L491.498 -977.36L564.922 -934.805L639.27 -977.824V-1063.86L564.922 -1106.88L491.498 -1064.33L418.906 -1106.32V-1190.32L492.33 -1232.88V-1318.92L417.981 -1361.93L343.632 -1318.92V-1233.9L270.208 -1191.44V-1105.4L343.632 -1062.84V-978.844L271.04 -936.845L197.616 -979.4L123.268 -936.381V-850.343L196.692 -807.788V-722.77L270.116 -680.307V-596.309L196.692 -553.754V-467.716L271.04 -424.697L344.465 -467.16L417.056 -425.161V-341.163L344.465 -299.164L271.04 -341.719L196.692 -298.7V-212.662L270.116 -170.107V-86.1087L196.692 -43.5534V41.4646L123.268 84.0199V170.058L196.692 212.613V297.631L270.116 340.094V424.092L196.692 466.647V551.665L123.268 594.128V680.166L197.616 723.184L271.04 680.722L343.632 722.721V806.719L270.208 849.182V934.292L196.784 976.848V1062.89L270.208 1105.44V1189.44L196.784 1231.99V1318.03L271.133 1361.05L344.557 1318.5L417.149 1360.49V1444.49L343.725 1487.05V1572.07L271.133 1614.16L197.709 1571.6L123.36 1614.62V1700.66L197.709 1743.68L271.133 1701.12L343.725 1743.12V1827.12L270.301 1869.68V1955.71L344.649 1998.73L419.091 1955.71ZM490.85 1743.12V1827.12L418.258 1869.12L382.009 1848.07L345.759 1827.03V1743.03L382.009 1721.98L418.258 1700.94L490.85 1743.12ZM637.698 1487.98V1571.97L565.107 1614.07L492.515 1571.97V1487.98L528.764 1466.93L565.014 1445.98L637.698 1487.98ZM564.274 1360.49V1444.49L528.025 1465.54L491.775 1486.49L455.525 1465.54L419.183 1444.49V1360.49L455.525 1339.45L491.775 1318.4L564.274 1360.49ZM564.274 1105.35V1189.35L491.683 1231.35L455.433 1210.3L419.091 1189.25V1105.26L491.683 1063.26L564.274 1105.35ZM417.334 1105.35V1189.35L381.084 1210.39L344.834 1231.44L308.585 1210.39L272.243 1189.35V1105.35L308.585 1084.3L344.834 1063.26L417.334 1105.35ZM564.274 850.294V934.292L491.683 976.291L419.091 934.292V850.294L455.433 829.248L491.683 808.202L564.274 850.294ZM345.667 806.812V722.814L381.916 701.86L418.166 680.815L454.508 701.86L490.758 722.814V806.812L454.508 827.765L418.166 848.811L381.916 827.765L345.667 806.812ZM491.683 721.238L455.433 700.192L419.091 679.239V595.24L491.683 553.241L527.932 574.287L564.182 595.333V679.331L491.683 721.238ZM345.667 551.665V467.667L418.258 425.668L490.85 467.667V551.665L418.258 593.664L345.667 551.665ZM272.243 424.092V340.094L304.331 321.551L344.834 298.095L417.426 340.094V424.092L344.834 466.091L308.585 445.045L272.243 424.092ZM345.667 212.613L418.258 170.614L454.508 191.567L490.85 212.613V296.611L418.258 338.61L345.667 296.611V212.613ZM272.243 169.038V85.0397L344.834 43.0407L417.426 85.0397V169.038L344.834 211.037L272.243 169.038ZM637.698 467.667V551.665L565.107 593.664L528.857 572.711L492.607 551.758V467.76L565.199 425.761L637.698 467.667ZM564.274 340.094V424.092L562.517 425.112L491.683 466.091L419.091 424.092V340.094L491.683 298.095L564.274 340.094ZM491.683 211.037L455.433 189.991L419.091 168.945V84.9471L455.433 63.9939L491.683 42.948L527.932 63.9939L564.182 84.9471V168.945L491.683 211.037ZM637.698 -42.5335V41.4646L565.107 83.4636L528.857 62.5105L492.607 41.4646V-42.5335L565.199 -84.5326L637.698 -42.5335ZM490.85 -42.5335V41.4646L454.508 62.5105L418.258 83.4636L345.667 41.4646V-42.5335L381.916 -63.5795L418.166 -84.6253L490.85 -42.5335ZM272.243 -86.016V-170.014L308.492 -191.06L344.742 -212.106L381.084 -191.06L417.334 -170.014V-86.016L381.084 -64.9701L344.742 -44.017L308.492 -64.9701L272.243 -86.016ZM564.274 -425.161V-341.163L491.683 -299.164L455.433 -320.209L419.091 -341.255V-425.253L455.433 -446.299L491.683 -467.253L564.274 -425.161ZM564.274 -680.215V-596.217L491.683 -554.218L455.433 -575.263L419.091 -596.309V-680.307L491.683 -722.306L564.274 -680.215ZM417.334 -680.215V-596.217L381.084 -575.171L344.742 -554.125L308.492 -575.171L272.243 -596.217V-680.215L308.492 -701.261L344.742 -722.214L417.334 -680.215ZM637.698 -1062.84V-978.844L565.107 -936.845L492.515 -978.844V-1062.84L565.107 -1104.84L637.698 -1062.84ZM490.85 -1062.84V-978.844L418.258 -936.845L382.009 -957.798L345.759 -978.844V-1062.84L382.009 -1083.89L418.258 -1104.93L490.85 -1062.84ZM418.258 -1359.99L490.85 -1317.99V-1233.99L418.258 -1191.99L381.916 -1212.94L345.667 -1233.9V-1317.9L418.258 -1359.99ZM272.243 -1106.42V-1190.42L344.834 -1232.41L381.177 -1211.37L417.426 -1190.32V-1106.32L381.177 -1085.28L344.834 -1064.23L272.243 -1106.42ZM381.084 -956.314L417.334 -935.269V-851.27L344.742 -809.271L308.492 -830.317L272.243 -851.27V-935.269L344.834 -977.268L381.084 -956.314ZM125.302 -851.363V-935.361L197.894 -977.36L270.486 -935.361V-851.363L234.236 -830.41L197.986 -809.364L125.302 -851.363ZM198.819 -723.79V-807.788L235.068 -828.834L271.318 -849.787L307.568 -828.834L343.817 -807.788V-723.79L307.568 -702.744L271.318 -681.698L198.819 -723.79ZM198.819 -468.643V-552.641L271.41 -594.64L307.66 -573.595L343.91 -552.549V-468.551L271.318 -426.551L198.819 -468.643ZM345.667 -468.643V-552.641L381.916 -573.687L418.166 -594.733L454.416 -573.687L490.758 -552.641V-468.643L454.416 -447.597L418.166 -426.551L345.667 -468.643ZM454.508 -318.633L490.85 -297.587V-213.589L418.258 -171.59L382.009 -192.543L345.759 -213.589V-297.587L418.351 -339.586L454.508 -318.633ZM198.819 -213.589V-297.587L271.41 -339.586L344.002 -297.587V-213.589L307.752 -192.543L271.503 -171.59L198.819 -213.589ZM271.318 -84.5326L307.568 -63.4867L343.817 -42.4409V41.5574L271.225 83.5564L234.976 62.6032L198.726 41.5574V-42.4409L271.318 -84.5326ZM125.302 169.038V85.0397L197.894 43.0407L234.143 64.0866L270.393 85.0397V169.038L216.758 200.097L197.801 211.037L125.302 169.038ZM198.819 296.611V212.613L271.41 170.614L344.002 212.613V296.611L304.239 319.697L271.503 338.703L198.819 296.611ZM271.318 425.668L307.66 446.714L343.91 467.76V551.758L307.66 572.711L271.318 593.757L235.068 572.711L198.819 551.758V467.76L271.318 425.668ZM125.302 679.239V595.24L197.894 553.241L234.143 574.287L270.393 595.333V679.331L197.801 721.33L125.302 679.239ZM272.243 679.239V595.24L308.585 574.194L344.834 553.149L417.426 595.148V679.146L381.177 700.099L344.927 721.145L272.243 679.239ZM344.834 808.295L381.084 829.341L417.334 850.387V934.292L344.742 976.291L308.492 955.246L272.243 934.292V850.294L344.834 808.295ZM198.819 1061.87V977.868L271.41 935.869L307.752 956.914L344.002 977.868V1061.87L307.752 1082.91L271.41 1103.96L198.819 1061.87ZM198.819 1316.92V1232.92L271.41 1190.92L307.752 1211.97L344.002 1233.01V1317.01L271.41 1359.01L198.819 1316.92ZM345.667 1316.92V1232.92L381.916 1211.88L418.166 1190.83L454.508 1211.88L490.758 1232.92V1316.92L454.508 1337.97L418.166 1359.01L345.667 1316.92ZM418.258 1446.07L454.601 1467.02L490.85 1488.07V1572.07L418.258 1614.16L382.009 1593.11L345.759 1572.07V1488.07L418.258 1446.07ZM125.302 1699.55V1615.55L197.894 1573.55L270.486 1615.55V1699.55L197.894 1741.55L125.302 1699.55ZM272.243 1699.55V1615.55L344.834 1573.55L381.084 1594.6L417.334 1615.64V1699.64L381.084 1720.69L344.834 1741.73L272.243 1699.55ZM272.243 1954.69V1870.7L344.834 1828.7L381.084 1849.74L417.334 1870.79V1954.79L344.742 1996.79L272.243 1954.69Z" fill="white"/>
<g opacity="0.23">
<path opacity="0.8" d="M128.445 86.8011L197.893 46.6562L267.341 86.8011V167.276L197.893 207.421L128.445 167.276V86.8011Z" fill="white"/>
<path opacity="0.8" d="M348.811 214.375L418.258 174.138L487.706 214.375V294.758L418.258 334.995L348.811 294.758V214.375Z" fill="white"/>
<path opacity="0.5" d="M201.869 -40.6785L271.317 -80.916L340.764 -40.6785V39.7038L271.317 79.9414L201.869 39.7038V-40.6785Z" fill="white"/>
<path opacity="0.5" d="M422.234 86.802L491.682 46.6572L561.13 86.802V167.277L491.682 207.422L422.234 167.277V86.802Z" fill="white"/>
<path opacity="0.8" d="M348.811 -40.6785L418.258 -80.916L487.706 -40.6785V39.7038L418.258 79.9415L348.811 39.7038V-40.6785Z" fill="white"/>
<path opacity="0.3" d="M495.658 -40.6785L565.106 -80.916L634.646 -40.6785V39.7038L565.106 79.9414L495.658 39.7038V-40.6785Z" fill="white"/>
<path opacity="0.8" d="M495.658 469.429L565.106 429.284L634.646 469.429V549.904L565.106 590.049L495.658 549.904V469.429Z" fill="white"/>
<path opacity="0.8" d="M422.234 341.947L491.682 301.71L561.13 341.947V422.33L491.682 462.475L422.234 422.33V341.947Z" fill="white"/>
<path opacity="0.8" d="M201.869 214.375L271.317 174.138L340.764 214.375V294.85L271.317 334.995L201.869 294.85V214.375Z" fill="white"/>
<path opacity="0.8" d="M275.293 341.948L344.833 301.711L414.281 341.948V422.331L344.833 462.476L275.293 422.331V341.948Z" fill="white"/>
<path opacity="0.5" d="M422.234 597.002L491.682 556.765L561.13 597.002V677.384L491.682 717.622L422.234 677.384V597.002Z" fill="white"/>
<path opacity="0.5" d="M201.869 469.429L271.317 429.284L340.857 469.429V549.904L271.317 590.049L201.869 549.904V469.429Z" fill="white"/>
<path opacity="0.8" d="M275.293 597.002L344.833 556.765L414.281 597.002V677.384L344.833 717.622L275.293 677.384V597.002Z" fill="white"/>
<path opacity="0.3" d="M128.445 597.002L197.893 556.765L267.341 597.002V677.384L197.893 717.622L128.445 677.384V597.002Z" fill="white"/>
</g>
</g>
<g opacity="0.23">
<path opacity="0.23" d="M378.587 -786.37C367.397 -785.907 358.427 -776.728 358.15 -765.417C358.15 -761.894 358.89 -758.649 360.277 -755.682L269.19 -702.929C266.878 -706.266 262.995 -708.584 258.648 -708.677C254.394 -708.769 250.603 -706.73 248.199 -703.67L157.39 -756.146C158.684 -758.835 159.424 -761.801 159.517 -764.954C159.701 -776.265 151.101 -785.629 140.097 -786.649L136.768 -786.741C125.764 -786 116.979 -777.006 116.794 -765.788C116.609 -753.921 125.949 -744.186 137.785 -744C145.276 -743.908 151.934 -747.616 155.91 -753.364L246.534 -700.982C245.794 -699.405 245.425 -697.644 245.332 -695.882C245.24 -688.743 250.788 -682.902 257.724 -682.532V-569.7C250.603 -568.773 244.962 -562.746 244.777 -555.329C244.592 -547.17 251.158 -540.402 259.296 -540.217C264.289 -540.124 268.728 -542.535 271.502 -546.336L362.866 -493.489C361.849 -491.172 361.202 -488.668 361.202 -485.98C361.017 -475.874 368.784 -467.437 378.679 -466.695V-364.711C369.894 -364.247 362.774 -357.108 362.589 -348.115C362.496 -344.87 363.421 -341.718 365.085 -339.122L270.762 -284.514C268.266 -287.574 264.474 -289.613 260.22 -289.613C252.545 -289.799 246.164 -283.587 245.979 -275.892C245.794 -268.845 250.973 -263.005 257.724 -261.892V-158.331C246.997 -157.312 238.489 -148.411 238.304 -137.378C238.212 -133.67 239.136 -130.239 240.708 -127.18L242.465 -124.398C246.257 -119.206 252.36 -115.683 259.296 -115.591C266.416 -115.498 272.797 -118.836 276.773 -124.12L364.531 -73.4062C363.698 -71.4592 363.236 -69.4194 363.144 -67.1016C362.959 -58.1084 369.802 -50.6915 378.679 -49.9497V59.2664C372.021 60.1935 366.75 65.849 366.658 72.8025C366.658 74.9349 367.027 76.8819 367.86 78.7362L273.259 133.53C270.3 128.987 265.121 125.834 259.296 125.742C253.285 125.649 247.921 128.709 244.87 133.437L243.298 136.311C242.558 138.258 242.003 140.298 242.003 142.43C241.818 151.516 248.846 159.026 257.816 159.675V269.354C250.973 270.189 245.517 275.844 245.425 282.983C245.425 285.023 245.794 286.877 246.534 288.639L152.119 343.339C149.067 339.167 144.258 336.386 138.802 336.293C129.463 336.201 121.695 343.618 121.51 353.074C121.325 362.068 128.26 369.485 137.045 370.319H140.282C148.697 369.392 155.355 362.438 155.448 353.723C155.448 351.035 154.893 348.531 153.783 346.306L248.199 291.606C250.696 295.036 254.579 297.261 259.111 297.354C263.734 297.447 267.896 295.221 270.485 291.698L365.363 346.585C364.623 348.439 364.161 350.478 364.068 352.611C363.883 361.233 370.356 368.465 378.679 369.67V475.363C369.154 476.198 361.664 484.171 361.479 493.998C361.479 496.594 361.941 499.098 362.774 501.323L271.502 554.169C269.005 550.739 265.029 548.421 260.498 548.421C255.504 548.328 251.065 550.924 248.476 554.818L247.089 557.785C246.627 559.176 246.257 560.566 246.257 562.143C246.164 569.096 251.158 574.937 257.724 576.142V684.06C248.846 685.544 242.003 693.146 241.818 702.51C241.633 712.987 249.956 721.702 260.498 721.887C266.693 721.98 272.149 719.106 275.663 714.656L362.311 764.814C361.294 767.131 360.739 769.635 360.647 772.231C360.462 782.614 368.507 791.144 378.679 791.608V898.413C371.836 899.619 366.565 905.46 366.38 912.691C366.38 914.638 366.658 916.492 367.305 918.254L277.975 969.988C274.184 964.703 267.988 961.18 261.053 960.995C249.216 960.809 239.506 970.266 239.229 982.041C239.044 993.073 247.182 1002.25 257.724 1003.74L261.053 1003.92C272.427 1003.74 281.767 994.464 282.044 982.875C282.137 979.259 281.304 975.829 279.732 972.769L368.784 921.221C371.374 925.207 375.812 927.803 380.898 927.896C385.8 927.989 390.053 925.671 392.828 922.055L483.637 974.624C482.712 976.756 482.25 979.074 482.157 981.577C481.972 991.683 489.647 1000.03 499.542 1000.86V1103.59C489.555 1103.96 481.51 1112.12 481.325 1122.22C481.325 1125.38 481.972 1128.43 483.359 1131.03L391.81 1184.62C389.314 1181.28 385.43 1179.06 380.991 1178.96C376.367 1178.87 372.298 1181.1 369.709 1184.53L367.952 1187.31C367.212 1188.98 366.75 1190.83 366.75 1192.78C366.657 1200.1 372.113 1206.13 379.234 1206.96V1314.97C369.802 1315.9 362.311 1323.78 362.126 1333.52C362.034 1336.58 362.774 1339.45 363.976 1342.05L276.588 1393.04C273.259 1388.03 267.618 1384.69 261.145 1384.6C250.696 1384.42 242.003 1392.76 241.818 1403.24C241.633 1413.25 249.216 1421.59 259.018 1422.52H262.347C271.964 1421.78 279.64 1413.81 279.825 1403.89C279.825 1401.01 279.27 1398.32 278.16 1395.82L365.64 1344.73C369.062 1349.46 374.518 1352.62 380.713 1352.71C387.279 1352.8 393.197 1349.56 396.711 1344.46L458.484 1379.87L487.613 1396.75C486.873 1398.6 486.411 1400.55 486.411 1402.59C486.318 1411.02 492.607 1418.07 500.929 1419H504.258C512.396 1418.26 518.777 1411.49 518.962 1403.14C518.962 1400.55 518.407 1398.14 517.297 1395.91L612.36 1340.93C614.857 1344.36 618.833 1346.77 623.457 1346.87C628.08 1346.96 632.149 1344.73 634.739 1341.3L636.496 1338.52C637.235 1336.85 637.698 1335 637.698 1333.05C637.883 1325.54 631.964 1319.24 624.474 1318.87V1208.82C632.427 1207.89 638.622 1201.21 638.807 1193.06C638.9 1190.46 638.253 1188.05 637.235 1185.92L635.571 1183.04C632.612 1179.15 628.08 1176.55 622.902 1176.46C617.354 1176.37 612.36 1179.15 609.308 1183.41L518.222 1130.75C519.331 1128.43 519.886 1125.84 519.979 1123.15C520.164 1113.42 512.951 1105.26 503.518 1103.96V1001.05C513.043 1000.21 520.626 992.239 520.811 982.504C520.811 979.816 520.349 977.22 519.331 974.902L609.308 922.797C612.175 926.784 616.799 929.38 622.07 929.472C627.618 929.565 632.612 926.876 635.571 922.611L726.565 975.273C725.733 977.312 725.27 979.537 725.27 981.855C725.085 991.776 732.483 1000.03 742.008 1001.14L745.245 1001.23C755.047 1000.68 763 992.61 763.184 982.597C763.277 979.815 762.63 977.127 761.612 974.716L759.855 971.564C756.526 966.65 750.885 963.405 744.597 963.22C737.662 963.127 731.466 966.743 728.045 972.306L637.235 919.737C638.068 917.79 638.53 915.658 638.622 913.526C638.807 905.089 632.519 898.135 624.382 897.115V786.879C631.225 786.045 636.588 780.39 636.681 773.251C636.681 771.304 636.311 769.449 635.571 767.688L633.906 764.814C631.41 761.291 627.433 759.065 622.902 758.973C618.186 758.88 614.025 761.198 611.435 764.721L516.372 709.742C517.112 708.073 517.482 706.219 517.574 704.272C517.759 696.206 511.379 689.623 503.426 689.252V577.255C510.084 576.235 515.263 570.58 515.355 563.719C515.54 555.931 509.344 549.626 501.669 549.441C497.045 549.348 492.884 551.573 490.295 555.097L398.561 501.972C399.486 499.839 400.04 497.522 400.04 495.018C400.225 484.913 392.458 476.476 382.563 475.734V370.226C391.348 369.763 398.468 362.624 398.653 353.631C398.746 351.035 398.099 348.531 397.081 346.306L490.017 292.44C492.514 295.778 496.49 298.003 500.929 298.096C505.83 298.188 510.177 295.778 512.766 291.976L609.493 347.975C608.938 349.366 608.661 350.942 608.569 352.518C608.384 360.213 614.579 366.703 622.255 366.796C629.93 366.981 636.403 360.77 636.496 353.074C636.496 351.406 636.218 349.737 635.663 348.161L634.184 345.194C631.687 341.393 627.526 338.889 622.717 338.797C617.816 338.704 613.47 341.207 610.88 345.008L514.153 289.102C514.708 287.619 515.078 286.043 515.078 284.467C515.17 277.421 510.084 271.579 503.334 270.467V162.271C512.673 161.251 520.071 153.37 520.164 143.728C520.164 140.947 519.701 138.351 518.684 135.94L608.754 83.7426C611.805 88.0074 616.706 90.8815 622.255 90.9742C628.08 91.067 633.259 88.1929 636.403 83.7426L638.068 80.8685C638.992 78.8288 639.547 76.6037 639.547 74.1932C639.732 64.8291 632.242 57.0413 622.902 56.8559C613.47 56.6704 605.794 64.1802 605.609 73.5443C605.517 76.1402 606.164 78.5508 607.181 80.7759L517.205 132.881C513.876 127.781 508.142 124.351 501.577 124.166C494.918 124.073 489 127.411 485.579 132.51L393.752 79.3851C394.585 77.6235 395.047 75.7693 395.047 73.7296C395.232 66.4052 389.591 60.2862 382.47 59.5445V-49.5788C390.886 -50.5059 397.544 -57.4595 397.636 -66.1745C397.636 -68.5851 397.174 -70.8102 396.342 -72.9426L487.798 -125.882C490.85 -122.173 495.381 -119.67 500.559 -119.577C509.992 -119.392 517.667 -126.902 517.852 -136.266C518.037 -144.981 511.656 -152.12 503.241 -153.325V-256.885C512.673 -257.813 520.256 -265.693 520.349 -275.428C520.441 -278.302 519.794 -280.991 518.777 -283.401L611.528 -337.175C614.024 -334.023 617.816 -331.983 622.07 -331.891C626.601 -331.798 630.577 -333.93 633.259 -337.268L635.016 -340.049C635.848 -341.811 636.311 -343.665 636.311 -345.705C636.403 -352.936 631.04 -358.87 624.104 -359.797H620.775C613.84 -359.055 608.476 -353.307 608.291 -346.168C608.199 -343.943 608.753 -341.811 609.678 -339.957L517.112 -286.368C513.783 -291.375 508.142 -294.713 501.669 -294.805C495.103 -294.898 489.278 -291.653 485.764 -286.646L394.769 -339.307C396.064 -341.625 396.804 -344.221 396.896 -347.095C396.989 -355.811 390.608 -363.042 382.286 -364.247V-466.417C391.718 -467.344 399.301 -475.225 399.486 -484.96C399.486 -487.834 398.931 -490.523 397.821 -493.026L490.387 -546.614C492.884 -543.276 496.768 -541.051 501.299 -540.959C506.108 -540.866 510.362 -543.276 512.951 -546.892L514.523 -549.766C515.078 -551.25 515.54 -552.919 515.54 -554.68C515.633 -561.912 510.269 -567.938 503.241 -568.773V-678.081C511.656 -678.916 518.407 -685.962 518.499 -694.677C518.684 -704.041 511.194 -711.829 501.854 -712.014C496.028 -712.107 490.85 -709.233 487.706 -704.783L399.393 -755.868C400.595 -758.464 401.335 -761.338 401.335 -764.397C401.52 -775.616 393.105 -784.887 382.286 -786.092L378.587 -786.37ZM137.785 -747.06C127.798 -747.245 119.845 -755.497 120.03 -765.51C120.215 -775.523 128.445 -783.496 138.433 -783.311C148.42 -783.125 156.372 -774.874 156.187 -764.861C156.003 -754.941 147.772 -746.967 137.785 -747.06ZM152.304 354.002C152.119 361.604 145.923 367.63 138.34 367.445C130.757 367.26 124.746 361.048 124.931 353.445C125.024 345.843 131.312 339.816 138.895 340.002C146.478 340.095 152.489 346.399 152.304 354.002ZM279.177 983.061C278.992 993.074 270.762 1001.05 260.775 1000.86C250.788 1000.68 242.835 992.332 243.02 982.319C243.205 972.306 251.435 964.332 261.422 964.518C271.41 964.796 279.362 973.14 279.177 983.061ZM276.496 1403.89C276.311 1412.6 269.19 1419.46 260.498 1419.37C251.898 1419.18 244.962 1412.04 245.147 1403.33C245.332 1394.71 252.453 1387.75 261.145 1387.94C269.745 1388.03 276.681 1395.17 276.496 1403.89ZM369.987 1192.78C370.079 1186.94 374.98 1182.21 380.898 1182.3C386.817 1182.39 391.533 1187.31 391.348 1193.24C391.255 1199.17 386.354 1203.9 380.529 1203.72C374.61 1203.63 369.894 1198.71 369.987 1192.78ZM380.806 1349.46C372.113 1349.28 365.27 1342.14 365.363 1333.42C365.548 1324.8 372.668 1317.85 381.361 1317.94C389.961 1318.13 396.896 1325.26 396.711 1333.98C396.619 1342.69 389.406 1349.65 380.806 1349.46ZM515.54 1403.14C515.448 1410.38 509.529 1416.03 502.409 1415.94C495.288 1415.85 489.555 1409.91 489.647 1402.77C489.74 1395.54 495.751 1389.89 502.871 1390.07C509.992 1390.16 515.633 1396 515.54 1403.14ZM634.276 1333.15C634.184 1338.99 629.283 1343.71 623.364 1343.62C617.446 1343.44 612.822 1338.62 612.915 1332.68C613.007 1326.84 617.908 1322.02 623.827 1322.21C629.653 1322.3 634.369 1327.21 634.276 1333.15ZM622.625 1179.8C629.745 1179.89 635.478 1185.92 635.293 1193.06C635.108 1200.19 629.283 1205.94 622.162 1205.76C615.042 1205.66 609.308 1199.73 609.401 1192.59C609.493 1185.36 615.412 1179.61 622.625 1179.8ZM607.459 1186.29C606.627 1188.23 606.164 1190.27 606.072 1192.5C605.887 1201.03 612.36 1208.08 620.683 1208.91V1319.24C614.487 1320.54 609.678 1326.01 609.586 1332.68C609.493 1334.63 609.863 1336.48 610.603 1338.24L515.54 1393.32C512.581 1389.42 508.05 1386.92 502.871 1386.83C497.23 1386.73 492.237 1389.51 489.278 1393.78L398.468 1341.49C399.486 1339.26 400.04 1336.76 400.04 1334.17C400.225 1324.06 392.458 1315.62 382.47 1314.88V1206.87C389.221 1206.04 394.585 1200.38 394.677 1193.24C394.677 1191.29 394.4 1189.44 393.66 1187.68L485.764 1134.28C489.185 1138.73 494.456 1141.6 500.467 1141.79C507.032 1141.88 512.951 1138.63 516.465 1133.63L607.459 1186.29ZM516.465 1123.06C516.28 1131.77 509.159 1138.63 500.467 1138.54C491.867 1138.35 484.931 1131.22 485.024 1122.5C485.209 1113.79 492.329 1106.93 501.022 1107.02C509.714 1107.2 516.65 1114.43 516.465 1123.06ZM744.32 966.465C753.012 966.65 759.948 973.789 759.763 982.504C759.578 991.219 752.458 998.08 743.765 997.894C735.165 997.709 728.229 990.57 728.414 981.855C728.507 973.233 735.72 966.279 744.32 966.465ZM249.863 562.513C249.956 556.58 254.857 551.851 260.775 551.944C266.693 552.037 271.41 556.951 271.225 562.884C271.132 568.818 266.231 573.546 260.313 573.454C254.487 573.361 249.771 568.447 249.863 562.513ZM260.96 718.921C252.36 718.735 245.425 711.596 245.517 702.881C245.702 694.259 252.822 687.305 261.515 687.491C270.207 687.584 277.051 694.815 276.958 703.53C276.773 712.152 269.56 719.106 260.96 718.921ZM364.346 772.694C364.531 763.979 371.651 757.118 380.344 757.304C389.036 757.397 395.972 764.628 395.694 773.251C395.602 781.966 388.389 788.826 379.789 788.734C371.096 788.548 364.161 781.317 364.346 772.694ZM381.453 924.837C375.073 924.744 369.987 919.459 370.171 913.062C370.264 906.757 375.535 901.658 381.916 901.751C388.204 901.844 393.29 907.128 393.197 913.526C393.012 919.923 387.741 924.929 381.453 924.837ZM517.39 982.411C517.205 991.034 510.084 997.987 501.392 997.894C492.699 997.709 485.764 990.478 485.948 981.855C486.133 973.14 493.254 966.279 501.946 966.372C510.639 966.557 517.482 973.789 517.39 982.411ZM635.201 913.433C635.016 920.572 629.19 926.32 621.977 926.135C614.857 926.042 609.123 920.108 609.216 912.877C609.308 905.738 615.319 899.99 622.44 900.175C629.56 900.36 635.293 906.294 635.201 913.433ZM622.717 762.31C628.635 762.403 633.351 767.317 633.167 773.251C633.074 779.184 628.173 783.912 622.255 783.82C616.336 783.727 611.62 778.813 611.805 772.88C611.898 766.946 616.799 762.218 622.717 762.31ZM609.678 767.595C609.031 769.264 608.569 770.933 608.569 772.787C608.476 780.018 613.84 786.045 620.96 786.879V892.758V897.023C612.73 897.764 606.164 904.44 606.072 912.877C605.979 915.38 606.627 917.79 607.551 919.923L517.759 971.935C514.43 966.743 508.697 963.22 502.131 963.034C495.381 962.942 489.37 966.372 485.856 971.657L395.232 919.274C395.972 917.512 396.434 915.565 396.526 913.526C396.619 905.552 390.423 898.97 382.47 898.506V791.793C391.625 790.588 398.931 782.8 399.116 773.251C399.208 770.655 398.653 768.059 397.729 765.741L490.387 712.06C492.976 716.047 497.415 718.735 502.501 718.828C507.495 718.92 512.026 716.417 514.8 712.616L609.678 767.595ZM514.06 704.179C513.968 710.576 508.697 715.676 502.316 715.49C496.028 715.397 490.942 710.113 491.035 703.716C491.127 697.319 496.398 692.312 502.779 692.405C509.067 692.59 514.153 697.875 514.06 704.179ZM501.299 552.686C507.217 552.779 511.934 557.692 511.749 563.626C511.656 569.56 506.755 574.288 500.837 574.103C494.918 574.01 490.202 569.096 490.387 563.163C490.572 557.322 495.473 552.593 501.299 552.686ZM488.353 557.878C487.706 559.547 487.243 561.308 487.243 563.163C487.058 570.58 492.699 576.699 500.004 577.348L500.097 689.438C493.254 690.643 487.983 696.577 487.89 703.716C487.89 705.477 488.168 707.239 488.723 708.815L395.972 762.496C392.643 757.489 387.002 754.059 380.436 753.966C373.778 753.781 367.952 757.118 364.438 762.31L277.975 712.338C279.362 709.742 280.195 706.775 280.287 703.623C280.472 693.146 272.149 684.431 261.607 684.246H261.515V576.699C268.728 576.235 274.554 570.394 274.646 562.977C274.646 561.123 274.369 559.269 273.629 557.6L364.808 504.753C368.137 509.945 373.87 513.468 380.436 513.561C387.279 513.654 393.29 510.13 396.711 504.753L488.353 557.878ZM396.434 494.925C396.249 503.641 389.129 510.594 380.436 510.409C371.744 510.223 364.901 503.084 364.993 494.369C365.178 485.747 372.298 478.794 380.991 478.886C389.683 479.072 396.619 486.21 396.434 494.925ZM622.347 341.949C628.265 342.042 632.889 346.955 632.797 352.889C632.704 358.823 627.803 363.551 621.885 363.366C615.966 363.273 611.25 358.359 611.343 352.518C611.62 346.584 616.521 341.856 622.347 341.949ZM608.569 73.4515C608.753 65.849 614.949 59.8226 622.532 60.0081C630.115 60.1935 636.126 66.4054 636.033 74.0079C635.848 81.6103 629.653 87.6366 622.07 87.5439C614.487 87.3585 608.476 81.0539 608.569 73.4515ZM245.425 142.894C245.517 135.384 251.805 129.265 259.388 129.45C266.971 129.636 272.982 135.847 272.889 143.45C272.797 151.052 266.509 157.079 258.926 156.893C251.343 156.801 245.332 150.496 245.425 142.894ZM259.388 294.387C253.47 294.294 248.754 289.381 248.939 283.447C249.031 277.513 253.932 272.878 259.85 272.97C265.769 273.063 270.485 277.977 270.392 283.91C270.207 289.751 265.306 294.48 259.388 294.387ZM395.047 353.445C394.862 360.955 388.574 367.074 381.083 366.889C373.501 366.796 367.49 360.491 367.582 352.889C367.675 345.286 373.963 339.26 381.546 339.446C389.129 339.631 395.139 345.843 395.047 353.445ZM511.564 284.189C511.471 290.122 506.57 294.85 500.744 294.665C494.826 294.572 490.11 289.659 490.202 283.725C490.295 277.791 495.196 273.063 501.114 273.156C506.94 273.434 511.656 278.255 511.564 284.189ZM501.207 127.411C509.807 127.596 516.742 134.735 516.557 143.45C516.372 152.072 509.252 159.026 500.559 158.84C491.867 158.655 485.024 151.516 485.116 142.801C485.394 134.179 492.607 127.225 501.207 127.411ZM483.729 135.384C482.619 137.702 482.065 140.205 482.065 142.894C481.88 153.092 489.74 161.529 499.82 162.178V270.189C492.699 270.745 487.058 276.586 486.873 283.818C486.781 285.857 487.243 287.804 488.075 289.566L395.139 343.432C392.088 339.26 387.279 336.386 381.638 336.293C375.627 336.108 370.356 339.26 367.212 343.896L272.519 289.102C273.167 287.526 273.629 285.857 273.629 284.003C273.814 276.771 268.358 270.745 261.33 269.911V160.138C269.56 159.118 276.033 152.165 276.218 143.635C276.218 141.41 275.848 139.278 275.109 137.331L369.894 82.1665C372.391 85.226 376.182 87.3585 380.529 87.4512C385.06 87.5439 389.036 85.4115 391.718 82.0739L483.729 135.384ZM391.44 73.6369C391.348 79.5706 386.447 84.299 380.529 84.1136C374.61 84.0208 369.894 79.107 370.079 73.1733C370.172 67.2397 375.073 62.5114 380.991 62.6968C386.817 62.8823 391.533 67.7033 391.44 73.6369ZM611.343 -346.261C611.435 -352.195 616.336 -356.923 622.255 -356.738C628.173 -356.645 632.889 -351.731 632.704 -345.797C632.612 -339.864 627.711 -335.135 621.792 -335.321C615.966 -335.506 611.25 -340.42 611.343 -346.261ZM249.401 -275.521C249.493 -281.455 254.394 -286.09 260.22 -285.997C266.139 -285.905 270.855 -280.991 270.67 -275.057C270.577 -269.124 265.676 -264.488 259.758 -264.581C253.932 -264.673 249.308 -269.587 249.401 -275.521ZM259.481 -118.465C249.493 -118.65 241.541 -126.902 241.726 -136.915C241.911 -146.928 250.141 -154.901 260.128 -154.716C270.115 -154.53 278.068 -146.279 277.883 -136.266C277.698 -126.345 269.468 -118.372 259.481 -118.465ZM394.03 -66.2672C393.845 -58.6647 387.649 -52.6385 380.066 -52.7312C372.483 -52.9166 366.473 -59.1283 366.565 -66.7308C366.75 -74.3333 372.946 -80.3596 380.529 -80.1742C388.111 -80.0815 394.122 -73.777 394.03 -66.2672ZM514.245 -136.451C514.153 -128.849 507.865 -122.822 500.282 -122.915C492.699 -123.1 486.688 -129.312 486.781 -136.915C486.966 -144.517 493.161 -150.544 500.744 -150.358C508.327 -150.265 514.43 -143.961 514.245 -136.451ZM501.392 -291.653C510.084 -291.467 516.927 -284.329 516.742 -275.614C516.65 -266.991 509.437 -260.038 500.744 -260.223C492.144 -260.409 485.209 -267.548 485.394 -276.263C485.579 -284.885 492.699 -291.838 501.392 -291.653ZM483.822 -283.772C482.804 -281.455 482.25 -278.951 482.157 -276.263C481.972 -266.157 489.74 -257.72 499.635 -256.978V-153.603C490.85 -153.139 483.637 -146.001 483.544 -137.007C483.544 -133.948 484.284 -131.166 485.671 -128.663L394.492 -75.9095C391.533 -80.4524 386.447 -83.4192 380.621 -83.5119C374.703 -83.6046 369.339 -80.6378 366.195 -75.9095L278.623 -126.531C280.195 -129.405 281.119 -132.743 281.119 -136.173C281.304 -147.669 272.427 -157.219 261.053 -157.961V-261.336C268.173 -261.892 273.814 -267.733 273.906 -274.964C273.906 -277.19 273.444 -279.415 272.427 -281.269L366.935 -335.97C369.987 -332.539 374.333 -330.407 379.234 -330.314C384.505 -330.222 389.221 -332.632 392.458 -336.433L483.822 -283.772ZM393.382 -347.281C393.197 -339.678 387.002 -333.652 379.419 -333.745C371.836 -333.837 365.825 -340.142 366.01 -347.744C366.103 -355.347 372.391 -361.373 379.974 -361.188C387.464 -361.095 393.475 -354.791 393.382 -347.281ZM248.569 -695.604C248.661 -701.074 253.192 -705.432 258.648 -705.339C264.104 -705.246 268.45 -700.703 268.358 -695.233C268.266 -689.763 263.734 -685.406 258.278 -685.498C252.822 -685.591 248.476 -690.134 248.569 -695.604ZM259.388 -543.276C253.007 -543.462 247.921 -548.654 248.106 -555.051C248.199 -561.448 253.47 -566.455 259.85 -566.362C266.231 -566.269 271.317 -560.985 271.132 -554.587C271.04 -548.19 265.769 -543.184 259.388 -543.276ZM395.879 -485.053C395.694 -476.338 388.574 -469.477 379.974 -469.569C371.281 -469.755 364.438 -476.894 364.531 -485.609C364.716 -494.324 371.836 -501.185 380.529 -501.092C389.129 -500.999 396.064 -493.768 395.879 -485.053ZM511.841 -554.866C511.749 -548.932 506.848 -544.204 500.929 -544.296C495.011 -544.389 490.295 -549.303 490.387 -555.236C490.48 -561.17 495.381 -565.899 501.299 -565.806C507.31 -565.713 512.026 -560.799 511.841 -554.866ZM501.392 -708.862C508.974 -708.677 514.985 -702.465 514.893 -694.863C514.708 -687.26 508.512 -681.234 500.929 -681.419C493.346 -681.512 487.336 -687.816 487.428 -695.419C487.521 -702.929 493.809 -708.955 501.392 -708.862ZM485.579 -702.094C484.654 -700.054 484.099 -697.829 484.099 -695.419C483.914 -686.518 490.757 -679.101 499.542 -678.267V-568.958C492.699 -568.124 487.336 -562.468 487.243 -555.329C487.151 -553.382 487.521 -551.528 488.26 -549.859L395.787 -496.271C392.458 -501.092 386.909 -504.244 380.621 -504.43C373.963 -504.522 368.137 -501.277 364.623 -496.085L273.259 -548.839C273.999 -550.601 274.461 -552.455 274.461 -554.495C274.646 -562.283 268.728 -568.773 261.053 -569.514V-682.532C266.971 -683.737 271.595 -688.929 271.687 -695.233C271.687 -696.809 271.41 -698.293 270.947 -699.776L362.219 -752.623C366.01 -747.245 372.206 -743.722 379.234 -743.537C386.817 -743.444 393.567 -747.245 397.451 -753.179L485.579 -702.094ZM397.636 -764.583C397.451 -754.57 389.221 -746.596 379.234 -746.782C369.247 -746.967 361.294 -755.219 361.479 -765.232C361.664 -775.245 369.894 -783.218 379.881 -783.033C389.868 -782.94 397.821 -774.596 397.636 -764.583Z" fill="black"/>
</g>
<path d="M383.21 936.332C389.405 936.054 394.491 930.954 394.584 924.65C394.584 922.703 394.214 920.849 393.382 919.18L444.335 889.697C445.629 891.551 447.756 892.849 450.253 892.942C452.657 893.035 454.784 891.829 456.171 890.16L506.939 919.551C506.199 921.034 505.83 922.703 505.737 924.464C505.645 930.769 510.453 936.054 516.649 936.61L518.498 936.703C524.602 936.332 529.595 931.232 529.688 924.928C529.78 918.345 524.602 912.875 517.944 912.69C513.69 912.597 509.991 914.729 507.864 917.974L457.188 888.584C457.558 887.75 457.836 886.73 457.836 885.71C457.928 881.724 454.784 878.386 450.9 878.201V815.063C454.877 814.599 458.113 811.169 458.113 806.997C458.206 802.454 454.599 798.653 449.976 798.56C447.201 798.467 444.704 799.858 443.132 801.99L391.995 772.415C392.549 771.117 392.919 769.726 392.919 768.243C393.012 762.587 388.665 757.859 383.117 757.395V700.377C388.018 700.099 391.995 696.112 392.087 691.105C392.087 689.251 391.625 687.582 390.7 686.099L443.41 655.596C444.797 657.265 446.924 658.378 449.236 658.47C453.582 658.563 457.096 655.133 457.188 650.775C457.281 646.881 454.414 643.544 450.623 642.895V584.949C456.634 584.393 461.35 579.386 461.442 573.174C461.442 571.135 460.98 569.187 460.148 567.426L459.13 565.85C457.004 562.883 453.582 561.029 449.698 560.936C445.722 560.843 442.208 562.79 439.988 565.757L390.885 537.387C391.347 536.274 391.625 535.069 391.625 533.864C391.717 528.857 387.833 524.685 382.932 524.222V463.124C386.724 462.567 389.59 459.415 389.683 455.521C389.683 454.316 389.498 453.203 389.035 452.183L441.93 421.588C443.595 424.184 446.462 425.853 449.698 425.946C453.12 426.038 456.079 424.277 457.836 421.681L458.668 420.105C459.13 418.992 459.408 417.88 459.408 416.674C459.5 411.575 455.524 407.403 450.53 407.032V345.656C454.322 345.192 457.373 342.04 457.466 338.054C457.466 336.941 457.281 335.828 456.819 334.901L509.621 304.306C511.286 306.624 514.06 308.2 517.111 308.2C522.382 308.293 526.729 304.121 526.821 298.836C526.914 293.829 523.03 289.657 518.129 289.194H516.279C511.563 289.657 507.864 293.644 507.772 298.465C507.772 299.948 508.141 301.339 508.696 302.637L455.894 333.232C454.507 331.285 452.287 330.08 449.791 329.988C447.201 329.895 444.889 331.193 443.41 333.14L390.33 302.452C390.792 301.432 390.977 300.319 391.07 299.114C391.162 294.293 387.556 290.214 382.84 289.565V230.414C388.111 229.95 392.364 225.5 392.457 220.03C392.457 218.546 392.179 217.156 391.717 215.95L442.763 186.375C444.15 188.322 446.369 189.62 448.958 189.62C451.733 189.62 454.229 188.229 455.616 186.004L456.449 184.335C456.726 183.593 456.911 182.759 456.911 181.925C457.004 178.031 454.229 174.786 450.438 174.044V113.688C455.431 112.853 459.223 108.588 459.315 103.397C459.408 97.5556 454.692 92.6418 448.866 92.5491C445.444 92.4564 442.3 94.1251 440.358 96.6284L391.902 68.5363C392.457 67.2383 392.827 65.8477 392.827 64.3642C392.919 58.616 388.388 53.795 382.747 53.5168V-6.19048C386.539 -6.83948 389.498 -10.1771 389.59 -14.2565C389.59 -15.369 389.405 -16.3889 389.035 -17.316L438.971 -46.2425C441.098 -43.2757 444.52 -41.3288 448.403 -41.2361C454.969 -41.1433 460.425 -46.428 460.61 -53.0107C460.702 -59.1297 456.171 -64.3216 450.253 -65.0633L448.403 -65.1561C442.023 -65.0634 436.752 -59.8714 436.659 -53.3815C436.567 -51.3418 437.122 -49.3948 437.954 -47.7259L388.388 -19.0776C386.908 -21.3027 384.504 -22.7861 381.637 -22.7861C378.956 -22.8788 376.459 -21.5809 374.979 -19.5412L324.119 -48.9313C324.581 -50.1365 324.951 -51.4345 324.951 -52.8252C325.044 -58.4807 320.79 -63.1164 315.241 -63.58V-121.062C320.79 -121.248 325.321 -125.79 325.413 -131.446C325.413 -133.207 325.044 -134.876 324.304 -136.36L375.812 -166.213C377.199 -164.359 379.418 -163.154 381.915 -163.061C384.504 -163.061 386.816 -164.266 388.203 -166.121L389.128 -167.697C389.59 -168.624 389.775 -169.644 389.775 -170.756C389.868 -174.836 386.816 -178.266 382.84 -178.637V-238.993C388.111 -239.55 392.272 -243.907 392.364 -249.377C392.364 -251.139 391.995 -252.715 391.347 -254.198L440.266 -282.754C442.115 -279.973 445.259 -278.118 448.866 -278.025C454.692 -277.933 459.593 -282.568 459.685 -288.502C459.778 -294.065 455.524 -298.793 450.068 -299.257H448.219C442.855 -298.793 438.509 -294.343 438.416 -288.873C438.416 -287.297 438.694 -285.721 439.341 -284.423L390.422 -255.867C388.481 -258.556 385.429 -260.317 382.007 -260.317C378.308 -260.41 375.072 -258.556 373.13 -255.682L338.637 -275.522L322.362 -284.979C322.824 -285.999 323.009 -287.111 323.102 -288.224C323.194 -292.952 319.588 -296.846 314.964 -297.403H313.115C308.583 -296.939 304.977 -293.23 304.884 -288.502C304.884 -287.019 305.162 -285.721 305.809 -284.423L252.637 -253.642C251.25 -255.589 249.03 -256.887 246.441 -256.98C243.852 -256.98 241.632 -255.774 240.153 -253.92L239.228 -252.344C238.766 -251.417 238.581 -250.397 238.488 -249.284C238.396 -245.02 241.725 -241.589 245.886 -241.311V-179.75C241.447 -179.193 237.933 -175.485 237.841 -170.942C237.841 -169.551 238.118 -168.16 238.766 -166.955L239.69 -165.379C241.355 -163.154 243.852 -161.763 246.811 -161.671C249.955 -161.578 252.729 -163.154 254.394 -165.564L305.347 -136.082C304.699 -134.784 304.422 -133.393 304.33 -131.817C304.237 -126.347 308.213 -121.804 313.484 -121.062V-63.4872C308.121 -63.0236 303.867 -58.5734 303.775 -53.1033C303.775 -51.6199 304.052 -50.1364 304.607 -48.8385L254.301 -19.7265C252.637 -21.9516 250.14 -23.4351 247.181 -23.4351C244.037 -23.5279 241.262 -21.9517 239.598 -19.6339L188.737 -49.1167C189.2 -50.2293 189.477 -51.5272 189.477 -52.8252C189.57 -58.388 185.501 -62.931 180.137 -63.58H178.288C172.832 -63.3018 168.393 -58.7588 168.301 -53.196C168.301 -51.6199 168.578 -50.1365 169.133 -48.7458L170.15 -46.9842C172 -44.2028 175.144 -42.4413 178.658 -42.3486C182.542 -42.2559 185.963 -44.2956 187.905 -47.4478L238.673 -18.0578C238.211 -16.9452 237.933 -15.8326 237.933 -14.5346C237.841 -9.80624 241.355 -5.91238 245.886 -5.3561V56.2982C242.095 56.7618 239.043 59.914 238.951 63.9007C238.951 65.0132 239.136 66.0332 239.505 67.053L240.43 68.6291C241.817 70.5761 244.037 71.874 246.626 71.874C249.215 71.9667 251.62 70.6688 253.007 68.7218L306.179 99.5026C305.809 100.43 305.532 101.449 305.532 102.562C305.439 107.105 308.953 110.814 313.392 110.999V173.673C309.693 174.229 306.826 177.382 306.734 181.276C306.641 185.633 310.063 189.156 314.409 189.249C316.998 189.342 319.31 188.044 320.79 186.097L372.113 215.765C371.558 216.97 371.28 218.268 371.28 219.659C371.188 225.314 375.534 230.043 381.083 230.414V289.472C376.182 289.75 372.205 293.737 372.113 298.743C372.113 300.227 372.39 301.617 372.945 302.823L320.975 332.954C319.588 331.1 317.368 329.802 314.872 329.802C312.19 329.802 309.693 331.1 308.213 333.232L254.116 301.895C254.394 301.061 254.579 300.227 254.671 299.392C254.764 295.035 251.342 291.419 246.996 291.419C242.65 291.326 239.136 294.757 239.043 299.114C239.043 300.041 239.228 300.968 239.505 301.803L240.338 303.472C241.725 305.604 244.037 306.995 246.718 306.995C249.493 307.087 251.897 305.697 253.377 303.564L307.474 334.901C307.196 335.736 306.919 336.57 306.919 337.497C306.826 341.391 309.693 344.729 313.484 345.285V405.827C308.306 406.383 304.145 410.833 304.052 416.211C304.052 417.694 304.33 419.178 304.884 420.568L254.486 449.773C252.822 447.362 250.047 445.786 246.903 445.694C243.667 445.601 240.8 447.27 238.951 449.68L238.026 451.256C237.471 452.369 237.194 453.667 237.194 454.965C237.101 460.25 241.262 464.607 246.533 464.7C251.804 464.793 256.151 460.62 256.243 455.336C256.243 453.852 255.966 452.554 255.411 451.256L305.717 422.144C307.566 425.018 310.803 426.965 314.409 427.058C318.108 427.151 321.437 425.297 323.379 422.422L374.794 452.091C374.332 453.018 374.055 454.13 374.055 455.243C373.962 459.415 377.106 462.753 381.083 463.216V524.314C376.366 524.778 372.668 528.765 372.575 533.586C372.575 534.884 372.76 536.182 373.315 537.387L322.177 567.055C320.512 564.923 317.923 563.625 315.056 563.532C309.785 563.439 305.439 567.611 305.347 572.896C305.254 577.717 308.861 581.797 313.484 582.446V640.391C308.213 640.948 303.96 645.305 303.867 650.775C303.867 652.351 304.145 653.927 304.792 655.225L252.914 685.264C251.527 683.503 249.4 682.39 246.996 682.39C244.499 682.39 242.187 683.503 240.8 685.357L239.783 686.933C239.321 687.86 239.043 688.973 239.043 690.086C238.951 694.165 242.002 697.502 245.886 697.966H247.736C251.62 697.502 254.579 694.35 254.671 690.364C254.671 689.066 254.394 687.953 253.931 686.84L305.717 656.894C307.566 659.676 310.71 661.53 314.317 661.623C318.016 661.715 321.252 659.861 323.194 657.08L374.055 686.562C373.315 687.86 372.945 689.344 372.852 690.827C372.76 695.741 376.366 699.728 381.083 700.377V757.581C375.812 758.044 371.558 762.494 371.465 767.965C371.465 769.541 371.743 771.117 372.39 772.415L320.605 802.454C319.218 800.507 316.998 799.302 314.502 799.302C311.82 799.209 309.416 800.6 307.936 802.639L307.104 804.308C306.734 805.142 306.549 806.07 306.549 806.997C306.456 811.076 309.508 814.414 313.484 814.877V876.068C308.768 876.532 304.977 880.426 304.977 885.339C304.884 890.624 309.046 894.982 314.317 894.982C317.553 895.074 320.512 893.405 322.269 890.995L371.65 919.551C371.003 921.034 370.541 922.61 370.541 924.279C370.448 930.584 375.164 935.775 381.175 936.424L383.21 936.332ZM517.851 914.359C523.4 914.451 527.838 919.087 527.746 924.743C527.653 930.305 523.03 934.756 517.481 934.663C511.933 934.57 507.494 929.934 507.587 924.372C507.679 918.716 512.303 914.266 517.851 914.359ZM509.713 298.372C509.806 294.108 513.32 290.77 517.481 290.863C521.735 290.955 525.064 294.478 524.972 298.65C524.879 302.915 521.365 306.253 517.204 306.253C513.043 306.16 509.621 302.637 509.713 298.372ZM438.786 -53.4741C438.879 -59.0369 443.502 -63.5799 449.143 -63.4872C454.692 -63.3944 459.13 -58.7588 459.038 -53.196C458.945 -47.6332 454.322 -43.0903 448.681 -43.2758C443.132 -43.2758 438.694 -47.9113 438.786 -53.4741ZM440.266 -288.873C440.358 -293.694 444.335 -297.588 449.236 -297.495C454.137 -297.403 457.928 -293.416 457.836 -288.502C457.743 -283.681 453.767 -279.787 448.866 -279.88C444.057 -279.973 440.173 -284.052 440.266 -288.873ZM388.018 -170.849C387.926 -167.511 385.244 -164.915 381.915 -165.008C378.586 -165.101 375.997 -167.789 376.089 -171.127C376.182 -174.465 378.863 -177.061 382.192 -176.968C385.429 -176.875 388.018 -174.094 388.018 -170.849ZM381.915 -258.463C386.724 -258.37 390.607 -254.384 390.515 -249.47C390.422 -244.649 386.446 -240.755 381.545 -240.848C376.736 -240.94 372.853 -244.927 372.945 -249.841C373.13 -254.662 377.106 -258.556 381.915 -258.463ZM306.549 -288.502C306.641 -292.489 309.878 -295.734 313.947 -295.641C317.923 -295.548 321.16 -292.211 321.067 -288.224C320.975 -284.237 317.646 -280.992 313.669 -281.085C309.693 -281.178 306.456 -284.515 306.549 -288.502ZM240.153 -249.284C240.245 -252.622 242.927 -255.218 246.256 -255.125C249.585 -255.033 252.174 -252.344 252.082 -249.006C251.989 -245.669 249.308 -243.073 245.979 -243.165C242.742 -243.258 240.06 -245.947 240.153 -249.284ZM246.718 -163.525C242.742 -163.617 239.505 -166.955 239.598 -170.942C239.69 -174.929 242.927 -178.173 246.996 -178.081C250.972 -177.988 254.209 -174.743 254.116 -170.664C254.024 -166.677 250.695 -163.432 246.718 -163.525ZM255.134 -167.141C255.596 -168.16 255.873 -169.366 255.873 -170.571C255.966 -175.299 252.359 -179.286 247.736 -179.75V-241.497C251.25 -242.238 253.931 -245.298 253.931 -249.006C253.931 -250.119 253.746 -251.139 253.377 -252.066L306.549 -282.847C308.213 -280.714 310.71 -279.231 313.669 -279.231C316.813 -279.138 319.588 -280.714 321.252 -283.125L372.02 -253.827C371.465 -252.622 371.188 -251.231 371.095 -249.748C371.003 -244.093 375.349 -239.364 380.99 -238.993V-178.544C377.199 -178.081 374.24 -174.836 374.147 -170.942C374.147 -169.829 374.332 -168.809 374.702 -167.882L323.194 -138.029C321.252 -140.532 318.293 -142.108 314.964 -142.201C311.265 -142.293 308.028 -140.439 305.994 -137.565L255.134 -167.141ZM305.994 -131.817C306.087 -136.638 310.063 -140.532 314.964 -140.439C319.773 -140.346 323.657 -136.36 323.564 -131.446C323.472 -126.625 319.495 -122.731 314.594 -122.824C309.785 -122.916 305.902 -126.996 305.994 -131.817ZM178.565 -44.2028C173.757 -44.2955 169.873 -48.2822 169.965 -53.196C170.058 -58.0171 174.034 -61.9111 178.935 -61.8184C183.744 -61.7257 187.628 -57.739 187.535 -52.8252C187.443 -48.0041 183.374 -44.1101 178.565 -44.2028ZM455.154 181.739C455.062 185.077 452.38 187.673 449.051 187.58C445.722 187.487 443.132 184.799 443.132 181.461C443.225 178.123 445.907 175.527 449.236 175.527C452.565 175.713 455.247 178.401 455.154 181.739ZM448.958 94.2179C453.767 94.3106 457.651 98.2973 457.558 103.211C457.466 108.032 453.489 111.926 448.588 111.833C443.78 111.741 439.896 107.754 439.988 102.84C440.173 98.0192 444.15 94.1252 448.958 94.2179ZM391.162 64.1788C391.07 68.9999 387.093 72.8939 382.285 72.8012C377.476 72.7085 373.592 68.7218 373.685 63.808C373.777 58.9869 377.754 55.0929 382.655 55.1856C387.371 55.371 391.255 59.3577 391.162 64.1788ZM381.545 -20.9318C385.151 -20.8391 387.926 -17.9651 387.833 -14.3493C387.741 -10.8262 384.874 -7.95201 381.268 -8.04472C377.754 -8.13743 374.887 -11.1043 374.979 -14.6274C375.072 -18.1505 378.031 -21.0246 381.545 -20.9318ZM305.532 -53.1033C305.624 -57.9244 309.6 -61.8183 314.502 -61.7256C319.31 -61.6329 323.194 -57.6463 323.102 -52.7325C323.009 -47.9115 319.033 -44.0174 314.132 -44.1101C309.323 -44.2956 305.439 -48.2822 305.532 -53.1033ZM239.598 -14.5346C239.69 -18.5213 243.019 -21.7663 246.996 -21.6736C250.972 -21.5809 254.209 -18.2432 254.116 -14.2565C254.024 -10.2698 250.695 -7.02482 246.718 -7.11753C242.742 -7.21024 239.598 -10.5479 239.598 -14.5346ZM246.626 70.0198C243.297 69.927 240.708 67.2383 240.708 63.9007C240.8 60.563 243.482 57.967 246.811 57.967C250.14 58.0597 252.729 60.7484 252.637 64.0861C252.637 67.4238 249.955 70.0198 246.626 70.0198ZM253.931 67.053C254.301 66.1259 254.579 65.1986 254.579 64.1788C254.671 60.0994 251.62 56.7618 247.643 56.2982V-2.94547V-5.3561C252.267 -5.72695 255.873 -9.52811 255.966 -14.2565C255.966 -15.6472 255.688 -16.9452 255.134 -18.1504L305.347 -47.2624C307.196 -44.3882 310.433 -42.3486 314.132 -42.3486C317.923 -42.2559 321.252 -44.2029 323.194 -47.1697L373.87 -17.8723C373.407 -16.8524 373.222 -15.8327 373.13 -14.6274C373.037 -10.1772 376.551 -6.46862 380.99 -6.19048V53.5168C375.812 54.1658 371.835 58.5233 371.743 63.9007C371.743 65.3841 372.02 66.8676 372.483 68.0729L320.697 98.1118C319.218 95.8867 316.813 94.4033 313.947 94.3106C311.08 94.2178 308.583 95.6086 307.104 97.8337L253.931 67.053ZM307.381 102.469C307.474 98.9463 310.34 96.0722 313.947 96.1649C317.461 96.2577 320.327 99.2244 320.235 102.747C320.143 106.271 317.276 109.145 313.669 109.052C310.155 108.959 307.289 106.085 307.381 102.469ZM314.502 187.209C311.173 187.116 308.583 184.428 308.583 181.09C308.676 177.752 311.357 175.156 314.687 175.156C318.016 175.249 320.605 177.938 320.512 181.276C320.512 184.706 317.831 187.302 314.502 187.209ZM321.807 184.335C322.177 183.408 322.454 182.388 322.454 181.368C322.547 177.196 319.403 173.859 315.334 173.488V110.813C319.125 110.165 322.084 106.827 322.177 102.84C322.177 101.82 321.992 100.893 321.715 99.9661L373.592 69.9271C375.442 72.8012 378.678 74.6554 382.285 74.7481C385.984 74.8408 389.313 72.9865 391.255 70.1124L439.618 98.1118C438.786 99.5952 438.324 101.171 438.324 102.933C438.231 108.774 442.948 113.688 448.773 113.78H448.866V173.951C444.797 174.229 441.56 177.474 441.468 181.554C441.468 182.666 441.653 183.686 442.023 184.613L391.07 214.096C389.22 211.222 385.984 209.182 382.285 209.182C378.493 209.089 375.072 211.129 373.13 214.096L321.807 184.335ZM373.222 219.566C373.315 214.745 377.291 210.851 382.1 210.944C387.001 211.036 390.792 215.023 390.7 219.937C390.607 224.758 386.631 228.652 381.73 228.559C377.014 228.467 373.13 224.387 373.222 219.566ZM246.811 305.14C243.482 305.14 240.893 302.359 240.985 299.021C241.078 295.684 243.759 293.088 247.088 293.18C250.417 293.273 253.007 295.962 252.914 299.299C252.822 302.544 250.047 305.233 246.811 305.14ZM254.486 455.336C254.394 459.6 250.88 462.938 246.718 462.845C242.465 462.753 239.136 459.23 239.228 455.058C239.321 450.793 242.835 447.455 247.088 447.548C251.157 447.548 254.579 451.071 254.486 455.336ZM457.651 416.489C457.558 420.754 454.044 424.091 449.883 423.999C445.629 423.906 442.3 420.383 442.393 416.118C442.485 411.946 445.999 408.516 450.16 408.608C454.322 408.701 457.743 412.224 457.651 416.489ZM449.883 331.749C453.212 331.842 455.801 334.53 455.709 337.868C455.616 341.206 452.935 343.802 449.606 343.709C446.277 343.616 443.687 340.928 443.687 337.59C443.78 334.345 446.554 331.749 449.883 331.749ZM373.962 298.743C374.055 294.478 377.569 291.141 381.822 291.233C386.076 291.326 389.405 294.849 389.313 299.021C389.22 303.286 385.799 306.624 381.545 306.531C377.291 306.438 373.87 302.915 373.962 298.743ZM308.768 337.405C308.861 334.067 311.542 331.471 314.872 331.564C318.201 331.656 320.79 334.345 320.697 337.683C320.605 341.02 317.923 343.616 314.594 343.524C311.358 343.524 308.676 340.742 308.768 337.405ZM314.594 425.204C309.785 425.111 305.902 421.032 305.994 416.211C306.087 411.39 310.063 407.496 314.872 407.588C319.68 407.681 323.564 411.668 323.472 416.489C323.379 421.403 319.403 425.204 314.594 425.204ZM324.396 420.754C324.951 419.456 325.321 418.065 325.321 416.582C325.414 410.833 320.975 406.105 315.334 405.734V345.378C319.31 345.1 322.454 341.855 322.547 337.775C322.547 336.57 322.269 335.55 321.9 334.53L373.87 304.399C375.534 306.809 378.308 308.385 381.36 308.385C384.689 308.478 387.741 306.716 389.405 304.121L442.393 334.809C442.023 335.736 441.745 336.663 441.745 337.683C441.653 341.762 444.704 345.1 448.588 345.563V407.032C443.965 407.588 440.358 411.482 440.266 416.304C440.266 417.509 440.451 418.714 440.913 419.827L387.833 450.607C386.446 448.846 384.319 447.64 381.915 447.64C379.418 447.64 377.106 448.846 375.627 450.607L324.396 420.754ZM375.997 455.243C376.089 451.905 378.771 449.309 382.1 449.402C385.429 449.495 388.018 452.183 388.018 455.521C387.926 458.859 385.244 461.455 381.915 461.455C378.586 461.269 375.904 458.488 375.997 455.243ZM253.007 690.178C252.914 693.516 250.232 696.112 246.903 696.019C243.574 695.926 240.985 693.238 240.985 689.9C241.078 686.562 243.759 683.966 247.088 684.059C250.417 684.059 253.007 686.841 253.007 690.178ZM455.431 650.497C455.339 653.835 452.657 656.431 449.328 656.338C445.999 656.245 443.41 653.556 443.502 650.219C443.595 646.974 446.277 644.285 449.606 644.378C452.935 644.471 455.524 647.252 455.431 650.497ZM449.791 562.698C455.431 562.79 459.87 567.426 459.685 573.081C459.593 578.644 454.969 583.187 449.421 583.002C443.872 582.909 439.341 578.273 439.526 572.711C439.618 567.055 444.242 562.605 449.791 562.698ZM374.517 533.493C374.609 529.228 378.123 525.891 382.285 525.983C386.539 526.076 389.868 529.599 389.775 533.864C389.683 538.036 386.169 541.466 381.915 541.374C377.846 541.188 374.425 537.665 374.517 533.493ZM307.289 572.711C307.381 568.446 310.895 565.108 315.149 565.201C319.403 565.294 322.732 568.817 322.639 573.081C322.547 577.346 319.033 580.684 314.779 580.591C310.618 580.499 307.196 576.975 307.289 572.711ZM314.502 659.583C309.693 659.49 305.809 655.411 305.902 650.59C305.994 645.769 309.97 641.875 314.872 641.967C319.68 642.06 323.564 646.047 323.472 650.961C323.287 655.782 319.31 659.676 314.502 659.583ZM324.304 655.133C324.859 653.835 325.229 652.444 325.229 650.961C325.321 645.305 320.975 640.577 315.426 640.206V582.353C320.327 582.075 324.396 578.088 324.396 573.081C324.396 571.413 324.026 569.836 323.194 568.446L374.24 538.87C375.904 541.374 378.771 543.042 382.007 543.135C385.336 543.228 388.296 541.466 390.053 538.87L439.064 567.241C438.231 568.817 437.677 570.671 437.677 572.618C437.584 579.108 442.578 584.392 448.866 584.763V642.616C444.889 642.894 441.745 646.139 441.653 650.219C441.653 651.517 441.93 652.722 442.485 653.742L389.683 684.337C388.018 682.483 385.521 681.185 382.84 681.185C379.88 681.092 377.199 682.483 375.442 684.615L324.304 655.133ZM374.887 690.642C374.979 686.377 378.493 683.039 382.655 683.132C386.908 683.225 390.238 686.748 390.145 690.92C390.053 695.185 386.539 698.522 382.377 698.43C378.216 698.43 374.794 694.907 374.887 690.642ZM455.894 885.525C455.894 888.584 453.305 890.995 450.253 890.995C447.201 890.902 444.797 888.399 444.797 885.339C444.889 882.28 447.386 879.869 450.438 879.869C453.49 879.962 455.986 882.465 455.894 885.525ZM449.791 800.321C453.305 800.414 456.171 803.381 456.079 806.904C455.986 810.427 453.12 813.301 449.513 813.301C445.999 813.209 443.132 810.242 443.225 806.719C443.317 803.103 446.277 800.229 449.791 800.321ZM373.5 767.779C373.592 762.958 377.569 759.064 382.377 759.157C387.186 759.25 391.07 763.236 390.977 768.15C390.885 772.971 386.908 776.865 382.007 776.772C377.291 776.68 373.407 772.6 373.5 767.779ZM308.583 806.811C308.676 803.474 311.357 800.878 314.687 800.878C318.016 800.97 320.605 803.659 320.512 806.997C320.42 810.335 317.738 812.93 314.409 812.838C311.173 812.838 308.583 810.149 308.583 806.811ZM314.502 892.942C310.248 892.849 306.919 889.419 307.011 885.154C307.104 880.889 310.618 877.552 314.779 877.644C319.033 877.737 322.362 881.26 322.269 885.432C322.177 889.697 318.663 893.035 314.502 892.942ZM323.287 889.141C323.841 887.935 324.119 886.73 324.119 885.432C324.211 880.426 320.42 876.346 315.519 875.79V814.599C319.31 814.136 322.362 810.984 322.454 806.997C322.454 805.884 322.269 804.864 321.9 803.937L373.685 773.991C375.534 776.68 378.678 778.441 382.192 778.534C385.891 778.627 389.22 776.772 391.162 773.898L442.208 803.474C441.838 804.401 441.56 805.513 441.56 806.626C441.468 810.983 444.797 814.599 449.051 814.97V878.201C445.722 878.85 443.132 881.816 443.132 885.247C443.132 886.174 443.317 887.008 443.502 887.843L392.457 917.418C390.33 914.451 386.908 912.412 382.932 912.319C378.678 912.226 374.887 914.359 372.76 917.696L323.287 889.141ZM372.483 924.186C372.575 918.623 377.199 914.08 382.747 914.266C388.296 914.359 392.827 918.994 392.734 924.557C392.642 930.213 388.018 934.663 382.47 934.57C376.829 934.385 372.39 929.749 372.483 924.186Z" fill="white"/>
<g style="mix-blend-mode:screen">
<path d="M383.211 23.418C383.211 61.6158 352.325 92.4894 314.319 92.4894C276.22 92.4894 245.426 61.5231 245.426 23.418C245.426 -14.7799 276.312 -45.6533 314.319 -45.6533C352.418 -45.6533 383.211 -14.6871 383.211 23.418Z" fill="url(#paint0_radial_1040_1422)"/>
</g>
<g style="mix-blend-mode:screen">
<path d="M450.995 148.303C450.995 186.5 420.108 217.374 382.102 217.374C344.003 217.374 313.209 186.408 313.209 148.303C313.209 110.105 344.095 79.2314 382.102 79.2314C420.201 79.2314 450.995 110.198 450.995 148.303Z" fill="url(#paint1_radial_1040_1422)"/>
</g>
<g style="mix-blend-mode:screen">
<path d="M518.963 262.897C518.963 301.094 488.077 331.968 450.071 331.968C411.971 331.968 381.178 301.002 381.178 262.897C381.178 224.699 412.064 193.825 450.071 193.825C488.077 193.825 518.963 224.699 518.963 262.897Z" fill="url(#paint2_radial_1040_1422)"/>
</g>
<g style="mix-blend-mode:screen">
<path d="M450.995 379.901C450.995 418.099 420.108 448.973 382.102 448.973C344.003 448.973 313.209 418.007 313.209 379.901C313.209 341.704 344.095 310.83 382.102 310.83C420.201 310.83 450.995 341.796 450.995 379.901Z" fill="url(#paint3_radial_1040_1422)"/>
</g>
<g style="mix-blend-mode:screen">
<path d="M383.211 490.136C383.211 528.334 352.325 559.207 314.319 559.207C276.22 559.207 245.426 528.241 245.426 490.136C245.426 451.938 276.312 421.064 314.319 421.064C352.418 421.064 383.211 452.031 383.211 490.136Z" fill="url(#paint4_radial_1040_1422)"/>
</g>
<g style="mix-blend-mode:screen">
<path d="M450.995 611.313C450.995 649.511 420.108 680.384 382.102 680.384C344.003 680.384 313.209 649.418 313.209 611.313C313.209 573.115 344.095 542.241 382.102 542.241C420.201 542.241 450.995 573.207 450.995 611.313Z" fill="url(#paint5_radial_1040_1422)"/>
</g>
<g opacity="0.8">
<g opacity="0.8">
<path opacity="0.8" d="M390.146 615.856H385.153V610.85C385.153 610.201 384.598 609.645 383.95 609.645H380.251C379.604 609.645 379.049 610.201 379.049 610.85V615.856H374.056C373.408 615.856 372.854 616.413 372.854 617.062V620.677C372.854 621.326 373.408 621.883 374.056 621.883H379.049V626.889C379.049 627.538 379.604 628.094 380.251 628.094H383.95C384.598 628.094 385.153 627.538 385.153 626.889V621.883H390.146C390.793 621.883 391.348 621.326 391.348 620.677V617.062C391.348 616.413 390.793 615.856 390.146 615.856Z" fill="white"/>
<path opacity="0.8" d="M400.504 592.956H396.527C396.527 588.321 394.863 583.592 382.101 583.592C369.34 583.592 367.676 588.321 367.676 592.956H363.699C363.699 579.605 377.57 579.605 382.101 579.605C386.633 579.605 400.504 579.605 400.504 592.956Z" fill="white"/>
<path opacity="0.8" d="M399.579 594.718H364.716C358.151 594.718 352.787 600.095 352.787 606.678V630.968C352.787 637.551 358.151 642.928 364.716 642.928H399.579C406.144 642.928 411.508 637.551 411.508 630.968V606.678C411.508 600.095 406.144 594.718 399.579 594.718ZM382.101 633.193C374.241 633.193 367.86 626.796 367.86 618.916C367.86 611.035 374.241 604.638 382.101 604.638C389.962 604.638 396.342 611.035 396.342 618.916C396.342 626.796 389.962 633.193 382.101 633.193Z" fill="white"/>
</g>
<g opacity="0.8">
<path opacity="0.8" d="M325.323 499.501C322.456 502.282 318.572 503.951 314.318 503.951C310.065 503.951 306.181 502.282 303.314 499.501C292.125 501.448 284.172 507.103 284.172 519.898H344.465C344.465 507.011 336.512 501.448 325.323 499.501Z" fill="white"/>
<path opacity="0.8" d="M298.874 479.475C298.596 480.68 298.504 481.885 298.504 483.09C298.504 491.898 305.624 499.037 314.317 499.037C323.102 499.037 330.13 491.898 330.13 483.09C330.13 481.885 330.037 480.68 329.76 479.475H298.874Z" fill="white"/>
<g opacity="0.8">
<path opacity="0.8" d="M322.919 460.469H305.719C301.002 460.469 297.211 464.363 297.211 469.091L298.968 477.713H329.854L331.611 469.091C331.519 464.363 327.635 460.469 322.919 460.469ZM314.319 475.859C310.62 475.859 307.568 472.8 307.568 469.091C307.568 465.383 310.62 462.323 314.319 462.323C318.018 462.323 321.069 465.383 321.069 469.091C321.069 472.8 318.018 475.859 314.319 475.859Z" fill="white"/>
<path opacity="0.8" d="M318.664 467.422H315.982V464.733C315.982 464.362 315.705 464.084 315.335 464.084H313.301C312.931 464.084 312.653 464.362 312.653 464.733V467.422H309.972C309.602 467.422 309.324 467.7 309.324 468.071V470.11C309.324 470.481 309.602 470.759 309.972 470.759H312.653V473.448C312.653 473.819 312.931 474.097 313.301 474.097H315.335C315.705 474.097 315.982 473.819 315.982 473.448V470.759H318.664C319.034 470.759 319.311 470.481 319.311 470.11V468.071C319.404 467.7 319.034 467.422 318.664 467.422Z" fill="white"/>
</g>
</g>
<g opacity="0.8">
<g opacity="0.8">
<path opacity="0.8" d="M346.222 34.2646C344.835 35.5626 342.986 36.397 340.951 36.397C338.917 36.397 337.067 35.5626 335.68 34.2646C334.94 34.3574 334.201 34.5428 333.461 34.8209C335.403 37.046 336.513 40.0127 336.513 43.9993H355.192C355.377 37.8803 351.586 35.1918 346.222 34.2646Z" fill="white"/>
<path opacity="0.8" d="M333.646 24.7158C333.553 25.2721 333.461 25.8283 333.461 26.4772C333.461 30.6493 336.882 34.0798 341.044 34.0798C345.205 34.0798 348.627 30.6493 348.627 26.4772C348.627 25.921 348.534 25.2721 348.442 24.7158H333.646Z" fill="white"/>
<g opacity="0.8">
<path opacity="0.8" d="M345.111 15.7227H336.881C334.662 15.7227 332.812 17.5768 332.812 19.802L333.645 23.8814H348.348L349.18 19.802C349.18 17.5768 347.331 15.7227 345.111 15.7227ZM340.95 22.9544C339.193 22.9544 337.714 21.5636 337.714 19.7093C337.714 17.9477 339.193 16.4642 340.95 16.4642C342.707 16.4642 344.187 17.9477 344.187 19.7093C344.187 21.5636 342.8 22.9544 340.95 22.9544Z" fill="white"/>
<path opacity="0.8" d="M343.077 18.9677H341.783V17.6697C341.783 17.4843 341.598 17.3916 341.505 17.3916H340.581C340.396 17.3916 340.211 17.577 340.211 17.6697V18.9677H338.916C338.731 18.9677 338.639 19.1532 338.639 19.2459V20.1731C338.639 20.3585 338.824 20.4512 338.916 20.4512H340.211V21.7492C340.211 21.9346 340.396 22.0273 340.581 22.0273H341.505C341.69 22.0273 341.783 21.8419 341.783 21.7492V20.4512H343.077C343.262 20.4512 343.355 20.2658 343.355 20.1731V19.2459C343.355 19.1532 343.262 18.9677 343.077 18.9677Z" fill="white"/>
</g>
</g>
<g opacity="0.8">
<path opacity="0.8" d="M321.901 29.9072C319.959 31.8542 317.277 32.9668 314.318 32.9668C311.359 32.9668 308.677 31.7615 306.735 29.9072C298.968 31.2052 293.512 35.0991 293.512 43.9995H335.125C335.125 35.0991 329.669 31.2052 321.901 29.9072Z" fill="white"/>
<path opacity="0.8" d="M303.684 16.0938C303.499 16.9282 303.406 17.7626 303.406 18.5971C303.406 24.6234 308.307 29.5372 314.318 29.5372C320.329 29.5372 325.23 24.6234 325.23 18.5971C325.23 17.7626 325.138 16.9282 324.953 16.0938H303.684Z" fill="white"/>
<g opacity="0.8">
<path opacity="0.8" d="M320.236 2.92871H308.307C305.07 2.92871 302.389 5.61735 302.389 8.86227L303.591 14.7958H324.952L326.154 8.86227C326.154 5.61735 323.565 2.92871 320.236 2.92871ZM314.318 13.5905C311.729 13.5905 309.694 11.4582 309.694 8.95493C309.694 6.359 311.821 4.31933 314.318 4.31933C316.907 4.31933 318.941 6.45171 318.941 8.95493C318.941 11.4582 316.907 13.5905 314.318 13.5905Z" fill="white"/>
<path opacity="0.8" d="M317.37 7.74945H315.52V5.89509C315.52 5.61695 315.335 5.43164 315.058 5.43164H313.671C313.393 5.43164 313.208 5.61695 313.208 5.89509V7.74945H311.359C311.081 7.74945 310.896 7.93476 310.896 8.2129V9.60367C310.896 9.8818 311.081 10.0673 311.359 10.0673H313.208V11.9215C313.208 12.1996 313.393 12.3851 313.671 12.3851H315.058C315.335 12.3851 315.52 12.1996 315.52 11.9215V10.0673H317.37C317.647 10.0673 317.832 9.8818 317.832 9.60367V8.2129C317.832 7.93476 317.647 7.74945 317.37 7.74945Z" fill="white"/>
</g>
</g>
<g opacity="0.8">
<path opacity="0.8" d="M292.864 34.2646C291.477 35.5626 289.628 36.397 287.593 36.397C285.559 36.397 283.709 35.5626 282.322 34.2646C276.959 35.1918 273.26 37.8803 273.26 43.9993H291.939C291.939 40.0127 293.049 37.046 294.991 34.8209C294.436 34.5428 293.696 34.3574 292.864 34.2646Z" fill="white"/>
<path opacity="0.8" d="M280.288 24.7158C280.196 25.2721 280.104 25.8283 280.104 26.4772C280.104 30.6493 283.525 34.0798 287.686 34.0798C291.848 34.0798 295.269 30.6493 295.269 26.4772C295.269 25.921 295.177 25.2721 295.084 24.7158H280.288Z" fill="white"/>
<g opacity="0.8">
<path opacity="0.8" d="M291.754 15.7227H283.524C281.305 15.7227 279.455 17.5768 279.455 19.802L280.287 23.8814H294.991L295.823 19.802C295.823 17.5768 293.974 15.7227 291.754 15.7227ZM287.685 22.9544C285.928 22.9544 284.449 21.5636 284.449 19.7093C284.449 17.9477 285.928 16.4642 287.685 16.4642C289.442 16.4642 290.922 17.9477 290.922 19.7093C290.829 21.5636 289.442 22.9544 287.685 22.9544Z" fill="white"/>
<path opacity="0.8" d="M289.719 18.9677H288.425V17.6697C288.425 17.4843 288.332 17.3916 288.147 17.3916H287.223C287.038 17.3916 286.945 17.577 286.945 17.6697V18.9677H285.65C285.466 18.9677 285.373 19.1532 285.373 19.2459V20.1731C285.373 20.3585 285.558 20.4512 285.65 20.4512H286.945V21.7492C286.945 21.9346 287.13 22.0273 287.223 22.0273H288.147C288.332 22.0273 288.425 21.8419 288.425 21.7492V20.4512H289.719C289.904 20.4512 290.089 20.2658 290.089 20.1731V19.2459C290.089 19.1532 289.904 18.9677 289.719 18.9677Z" fill="white"/>
</g>
</g>
</g>
<g opacity="0.8">
<path opacity="0.8" d="M384.598 379.901C393.106 372.206 401.336 363.955 401.336 348.193H398.007C398.007 362.657 390.424 370.166 382.102 377.676C373.779 370.166 366.196 362.657 366.196 348.193H362.867C362.867 363.955 371.19 372.206 379.605 379.901C371.097 387.596 362.867 395.848 362.867 411.609H366.196C366.196 397.146 373.779 389.636 382.102 382.126C390.424 389.636 398.007 397.146 398.007 411.609H401.336C401.336 395.94 393.014 387.596 384.598 379.901Z" fill="white"/>
<path opacity="0.8" d="M393.013 397.517C393.013 398.073 392.458 398.537 391.811 398.537H372.392C371.744 398.537 371.189 398.073 371.189 397.517C371.189 396.961 371.744 396.497 372.392 396.497H391.811C392.458 396.497 393.013 396.961 393.013 397.517Z" fill="white"/>
<path opacity="0.8" d="M395.881 405.49C395.881 406.046 395.326 406.509 394.679 406.509H369.618C368.971 406.509 368.416 406.046 368.416 405.49C368.416 404.933 368.971 404.47 369.618 404.47H394.679C395.326 404.47 395.881 404.933 395.881 405.49Z" fill="white"/>
<path opacity="0.8" d="M387.279 389.636C387.279 390.192 386.724 390.656 386.077 390.656H378.124C377.477 390.656 376.922 390.192 376.922 389.636C376.922 389.08 377.477 388.616 378.124 388.616H386.077C386.724 388.616 387.279 389.08 387.279 389.636Z" fill="white"/>
<path opacity="0.8" d="M395.787 354.405C395.787 355.054 395.232 355.611 394.585 355.611H369.524C368.877 355.611 368.322 355.054 368.322 354.405V354.313C368.322 353.664 368.877 353.107 369.524 353.107H394.585C395.232 353.2 395.787 353.664 395.787 354.405Z" fill="white"/>
<path opacity="0.8" d="M393.013 362.285C393.013 362.842 392.458 363.305 391.811 363.305H372.392C371.744 363.305 371.189 362.842 371.189 362.285C371.189 361.729 371.744 361.266 372.392 361.266H391.811C392.458 361.266 393.013 361.729 393.013 362.285Z" fill="white"/>
<path opacity="0.8" d="M387.281 370.259C387.281 370.815 386.726 371.279 386.079 371.279H378.126C377.479 371.279 376.924 370.815 376.924 370.259C376.924 369.703 377.479 369.239 378.126 369.239H386.079C386.726 369.239 387.281 369.703 387.281 370.259Z" fill="white"/>
</g>
<path opacity="0.8" d="M460.427 252.513V231.652H439.62V252.513H418.906V273.281H439.62V294.141H460.427V273.281H481.141V252.513H460.427Z" fill="white"/>
<g opacity="0.8">
<path opacity="0.8" d="M368.878 145.337C369.248 145.337 369.617 145.523 369.895 145.893L373.039 150.344L374.149 146.264L378.033 131.708C378.217 131.152 378.68 130.781 379.235 130.781C379.79 130.781 380.252 131.152 380.437 131.708L387.002 156.37L389.684 146.264L391.441 139.682C391.534 139.218 391.996 138.847 392.458 138.755C392.921 138.662 393.383 138.847 393.661 139.218L398.007 145.337H414.93C418.351 137.827 416.964 128.742 410.768 122.53C402.815 114.556 389.962 114.556 382.101 122.53C374.149 114.556 361.295 114.556 353.435 122.53C347.239 128.742 345.944 137.827 349.273 145.337H368.878Z" fill="white"/>
<path opacity="0.8" d="M397.267 147.841C396.897 147.841 396.527 147.656 396.25 147.285L393.106 142.835L391.996 146.914L388.112 161.47C387.927 162.027 387.465 162.397 386.91 162.397C386.355 162.397 385.893 162.027 385.708 161.47L379.142 136.809L376.46 146.914L374.703 153.497C374.611 153.961 374.241 154.331 373.686 154.424C373.224 154.517 372.761 154.331 372.484 153.96L368.23 147.841H350.66C351.4 149.047 352.325 150.252 353.434 151.272L382.101 180.013L410.768 151.272C411.878 150.159 412.802 149.047 413.542 147.841H397.267Z" fill="white"/>
</g>
</g>
</g>
<defs>
<radialGradient id="paint0_radial_1040_1422" cx="0" cy="0" r="1" gradientUnits="userSpaceOnUse" gradientTransform="translate(314.328 23.444) scale(68.9058 69.0843)">
<stop stop-color="#F47B50"/>
<stop offset="0.1429" stop-color="#C66441"/>
<stop offset="0.3771" stop-color="#80412A"/>
<stop offset="0.5885" stop-color="#492518"/>
<stop offset="0.7692" stop-color="#21110B"/>
<stop offset="0.9123" stop-color="#090503"/>
<stop offset="1"/>
</radialGradient>
<radialGradient id="paint1_radial_1040_1422" cx="0" cy="0" r="1" gradientUnits="userSpaceOnUse" gradientTransform="translate(382.103 148.313) scale(68.9058 69.0843)">
<stop stop-color="#F47B50"/>
<stop offset="0.1429" stop-color="#C66441"/>
<stop offset="0.3771" stop-color="#80412A"/>
<stop offset="0.5885" stop-color="#492518"/>
<stop offset="0.7692" stop-color="#21110B"/>
<stop offset="0.9123" stop-color="#090503"/>
<stop offset="1"/>
</radialGradient>
<radialGradient id="paint2_radial_1040_1422" cx="0" cy="0" r="1" gradientUnits="userSpaceOnUse" gradientTransform="translate(450.022 262.885) scale(68.9067 69.0853)">
<stop stop-color="#F47B50"/>
<stop offset="0.1429" stop-color="#C66441"/>
<stop offset="0.3771" stop-color="#80412A"/>
<stop offset="0.5885" stop-color="#492518"/>
<stop offset="0.7692" stop-color="#21110B"/>
<stop offset="0.9123" stop-color="#090503"/>
<stop offset="1"/>
</radialGradient>
<radialGradient id="paint3_radial_1040_1422" cx="0" cy="0" r="1" gradientUnits="userSpaceOnUse" gradientTransform="translate(382.112 379.941) scale(68.9049 69.0834)">
<stop stop-color="#F47B50"/>
<stop offset="0.1429" stop-color="#C66441"/>
<stop offset="0.3771" stop-color="#80412A"/>
<stop offset="0.5885" stop-color="#492518"/>
<stop offset="0.7692" stop-color="#21110B"/>
<stop offset="0.9123" stop-color="#090503"/>
<stop offset="1"/>
</radialGradient>
<radialGradient id="paint4_radial_1040_1422" cx="0" cy="0" r="1" gradientUnits="userSpaceOnUse" gradientTransform="translate(314.328 490.161) scale(68.9058 69.0843)">
<stop stop-color="#F47B50"/>
<stop offset="0.1429" stop-color="#C66441"/>
<stop offset="0.3771" stop-color="#80412A"/>
<stop offset="0.5885" stop-color="#492518"/>
<stop offset="0.7692" stop-color="#21110B"/>
<stop offset="0.9123" stop-color="#090503"/>
<stop offset="1"/>
</radialGradient>
<radialGradient id="paint5_radial_1040_1422" cx="0" cy="0" r="1" gradientUnits="userSpaceOnUse" gradientTransform="translate(382.112 611.317) scale(68.9086 69.0872)">
<stop stop-color="#F47B50"/>
<stop offset="0.1429" stop-color="#C66441"/>
<stop offset="0.3771" stop-color="#80412A"/>
<stop offset="0.5885" stop-color="#492518"/>
<stop offset="0.7692" stop-color="#21110B"/>
<stop offset="0.9123" stop-color="#090503"/>
<stop offset="1"/>
</radialGradient>
<clipPath id="clip0_1040_1422">
<rect width="763" height="615" fill="white"/>
</clipPath>
</defs>
</svg>
