<svg width="90" height="90" viewBox="0 0 90 90" fill="none" xmlns="http://www.w3.org/2000/svg">
<path d="M85.8059 44.964L89.3954 36.2684C90.8837 32.661 89.5499 28.5565 86.223 26.5147L77.0348 21.0173L74.9646 12.4479C74.0454 8.64738 70.5254 6.11367 66.6656 6.41742L56.1521 7.23111L50.1295 1.89809C48.6454 0.631583 46.8233 -0.000702539 45.0002 5.85775e-07C43.1798 0.000703711 41.3584 0.63211 39.8709 1.89545L33.8481 7.23111L23.3347 6.41742C19.5186 6.14971 15.9524 8.64984 15.1309 12.1363C15.3305 11.5163 12.2599 21.0604 12.0899 21.5888L3.77864 26.512C0.449344 28.5565 -0.884484 32.6609 0.606317 36.2711L4.19313 44.964L0.609129 53.6542C-0.884308 57.2669 0.451981 61.3687 3.77882 63.4106L12.9578 68.8695L15.0357 77.4775C15.9497 81.2754 19.4543 83.7963 23.3347 83.508L33.7348 82.7047L39.8708 88.0998C41.3566 89.3665 43.1772 90 45.0002 90C46.8206 90 48.6438 89.3665 50.1295 88.0996L56.2655 82.7046L66.6656 83.5079C70.595 83.8194 74.0505 81.2779 74.9646 77.4773L77.0348 68.908L86.223 63.4106C89.5472 61.3687 90.8811 57.2669 89.3927 53.6542L85.8059 44.964Z" fill="#FFEAEE"/>
<path d="M45 74.0039C61.0184 74.0039 74.0039 61.0184 74.0039 45C74.0039 28.9816 61.0184 15.9961 45 15.9961C28.9816 15.9961 15.9961 28.9816 15.9961 45C15.9961 61.0184 28.9816 74.0039 45 74.0039Z" fill="url(#paint0_linear_1033_934)"/>
<path d="M60.0478 35.2256C59.0179 34.1956 57.3492 34.1956 56.3193 35.2256L45 46.5448L42.3633 49.1815L33.6806 40.4988C32.6507 39.4689 30.982 39.4689 29.9521 40.4988C28.9222 41.5287 28.9222 43.1974 29.9521 44.2273L40.499 54.7742C41.014 55.2892 41.6887 55.5467 42.3631 55.5467C43.0376 55.5467 43.7124 55.2892 44.2273 54.7742L44.9999 54.0016L60.0476 38.9539C61.0779 37.924 61.0779 36.2555 60.0478 35.2256Z" fill="white"/>
<path d="M60.0477 35.2256C59.0178 34.1956 57.3491 34.1956 56.3192 35.2256L45 46.5448V54.0018L60.0477 38.954C61.0778 37.924 61.0778 36.2555 60.0477 35.2256Z" fill="white"/>
<defs>
<linearGradient id="paint0_linear_1033_934" x1="45" y1="15.9961" x2="45" y2="74.0039" gradientUnits="userSpaceOnUse">
<stop stop-color="#EE0033"/>
<stop offset="1" stop-color="#FF587C"/>
</linearGradient>
</defs>
</svg>
