<svg width="69" height="90" viewBox="0 0 69 90" fill="none" xmlns="http://www.w3.org/2000/svg">
<path d="M66.2668 2.31225C64.8987 1.68191 63.2866 1.9272 62.1676 2.93558L56.263 8.16362C56.1024 8.30658 55.8601 8.30573 55.7003 8.16192L47.6665 0.976469C46.2135 -0.32549 44.0137 -0.32549 42.5607 0.976469L34.5341 8.15532C34.3727 8.29956 34.1286 8.29956 33.9672 8.15532L25.9397 0.976469C24.4867 -0.325277 22.287 -0.325277 20.834 0.976469L12.7991 8.16192C12.6383 8.30573 12.3953 8.30637 12.2336 8.16341L6.32376 2.93558C4.75588 1.54129 2.35449 1.68191 0.9602 3.24979C0.334963 3.95289 -0.0071207 4.86299 0.000112402 5.80371V84.1965C-0.0139283 86.2979 1.67819 88.0128 3.77962 88.0269C4.72099 88.0332 5.63108 87.6903 6.33439 87.0646L12.2389 81.8366C12.3996 81.6936 12.6419 81.6945 12.8016 81.8383L20.8355 89.0238C22.2885 90.3257 24.4882 90.3257 25.9412 89.0238L33.9687 81.8449C34.1301 81.7007 34.3741 81.7007 34.5356 81.8449L42.5631 89.0235C44.0163 90.3249 46.2158 90.3249 47.6688 89.0235L55.7041 81.8381C55.865 81.6943 56.1079 81.6936 56.2696 81.8366L62.1795 87.0644C63.748 88.4581 66.1492 88.3164 67.5428 86.7479C68.167 86.0454 68.5086 85.1364 68.5018 84.1965V5.80371C68.5218 4.29774 67.6428 2.92451 66.2668 2.31225ZM14.0849 30.5339H35.2706C36.2105 30.5339 36.9725 31.2959 36.9725 32.2358C36.9725 33.1757 36.2105 33.9377 35.2706 33.9377H14.0849C13.145 33.9377 12.383 33.1757 12.383 32.2358C12.383 31.2959 13.145 30.5339 14.0849 30.5339ZM54.4171 59.4663H14.0849C13.145 59.4663 12.383 58.7043 12.383 57.7644C12.383 56.8245 13.145 56.0625 14.0849 56.0625H54.4171C55.357 56.0625 56.119 56.8245 56.119 57.7644C56.119 58.7043 55.357 59.4663 54.4171 59.4663ZM54.4171 46.702H14.0849C13.145 46.702 12.383 45.94 12.383 45.0001C12.383 44.0602 13.145 43.2982 14.0849 43.2982H54.4171C55.357 43.2982 56.119 44.0602 56.119 45.0001C56.119 45.94 55.357 46.702 54.4171 46.702Z" fill="#FFEAEE"/>
<path d="M9.25098 26H61.251V67H9.25098V26Z" fill="#FFEAEE"/>
<path d="M33.2933 24V44.0326H13.2949C13.4703 34.1041 22.2905 24.3761 33.2933 24Z" fill="url(#paint0_linear_1037_1089)"/>
<path d="M33.2926 46.8789V67C23.1431 66.6682 13.7083 57.9667 13.25 46.8789H33.2926Z" fill="url(#paint1_linear_1037_1089)"/>
<path d="M56.2151 46.8789C56.0014 57.3871 46.6875 66.7404 36.1387 66.9882V46.8789H56.2151Z" fill="url(#paint2_linear_1037_1089)"/>
<path d="M56.2505 44.032H36.1387V24.0098C45.79 24.2044 55.6477 32.493 56.2505 44.032Z" fill="url(#paint3_linear_1037_1089)"/>
<defs>
<linearGradient id="paint0_linear_1037_1089" x1="23.2941" y1="24" x2="23.2941" y2="44.0326" gradientUnits="userSpaceOnUse">
<stop stop-color="#F10E3F"/>
<stop offset="1" stop-color="#FB416A"/>
</linearGradient>
<linearGradient id="paint1_linear_1037_1089" x1="23.2713" y1="46.8789" x2="23.2713" y2="67" gradientUnits="userSpaceOnUse">
<stop stop-color="#FD4970"/>
<stop offset="1" stop-color="#EF1040"/>
</linearGradient>
<linearGradient id="paint2_linear_1037_1089" x1="46.1769" y1="46.8789" x2="46.1769" y2="66.9882" gradientUnits="userSpaceOnUse">
<stop stop-color="#FD4C72"/>
<stop offset="0.838542" stop-color="#EE0033"/>
</linearGradient>
<linearGradient id="paint3_linear_1037_1089" x1="46.1946" y1="24.0098" x2="46.1946" y2="44.032" gradientUnits="userSpaceOnUse">
<stop stop-color="#EE0033"/>
<stop offset="1" stop-color="#FD4C73"/>
</linearGradient>
</defs>
</svg>
