<svg width="90" height="90" viewBox="0 0 90 90" fill="none" xmlns="http://www.w3.org/2000/svg">
<path d="M31.242 19.5H84C84.7957 19.5 85.5587 19.8161 86.1213 20.3787C86.6839 20.9413 87 21.7044 87 22.5V67.5C87 68.2957 86.6839 69.0587 86.1213 69.6213C85.5587 70.1839 84.7957 70.5 84 70.5H31.242C30.4464 70.4998 29.6835 70.1837 29.121 69.621L14.379 54.879C13.8164 54.3165 13.5002 53.5536 13.5 52.758V37.242C13.5002 36.4464 13.8164 35.6835 14.379 35.121L29.121 20.379C29.6835 19.8164 30.4464 19.5002 31.242 19.5Z" fill="url(#paint0_linear_1037_1117)"/>
<path d="M24.75 48.75C26.8211 48.75 28.5 47.0711 28.5 45C28.5 42.9289 26.8211 41.25 24.75 41.25C22.6789 41.25 21 42.9289 21 45C21 47.0711 22.6789 48.75 24.75 48.75Z" fill="white"/>
<path d="M43.5 31.7305H36C35.6022 31.7305 35.2206 31.8885 34.9393 32.1698C34.658 32.4511 34.5 32.8326 34.5 33.2305V54.2304C34.5 54.6283 34.658 55.0098 34.9393 55.2911C35.2206 55.5724 35.6022 55.7304 36 55.7304C36.3978 55.7304 36.7794 55.5724 37.0607 55.2911C37.342 55.0098 37.5 54.6283 37.5 54.2304V42.2305H42C42.3978 42.2305 42.7794 42.0724 43.0607 41.7911C43.342 41.5098 43.5 41.1283 43.5 40.7305C43.5 40.3326 43.342 39.9511 43.0607 39.6698C42.7794 39.3885 42.3978 39.2305 42 39.2305H37.5V34.7305H43.5C43.8978 34.7305 44.2794 34.5724 44.5607 34.2911C44.842 34.0098 45 33.6283 45 33.2305C45 32.8326 44.842 32.4511 44.5607 32.1698C44.2794 31.8885 43.8978 31.7305 43.5 31.7305Z" fill="#F4F6F8"/>
<path d="M58.5 36.9805C58.5 35.5881 57.9469 34.2527 56.9623 33.2682C55.9777 32.2836 54.6424 31.7305 53.25 31.7305H49.5C49.1022 31.7305 48.7206 31.8885 48.4393 32.1698C48.158 32.4511 48 32.8326 48 33.2305V54.2305C48 54.6283 48.158 55.0098 48.4393 55.2911C48.7206 55.5724 49.1022 55.7305 49.5 55.7305C49.8978 55.7305 50.2794 55.5724 50.5607 55.2911C50.842 55.0098 51 54.6283 51 54.2305V46.519L55.689 54.958C55.8188 55.192 56.0087 55.387 56.2393 55.5228C56.4698 55.6586 56.7324 55.7303 57 55.7305C57.2542 55.731 57.5043 55.6659 57.726 55.5415C58.0736 55.3484 58.3302 55.0252 58.4397 54.643C58.5491 54.2607 58.5023 53.8507 58.3095 53.503L52.05 42.2305H53.25C54.6424 42.2305 55.9777 41.6773 56.9623 40.6928C57.9469 39.7082 58.5 38.3729 58.5 36.9805ZM51 39.2305V34.7305H53.25C53.8467 34.7305 54.419 34.9675 54.841 35.3895C55.2629 35.8114 55.5 36.3837 55.5 36.9805C55.5 37.5772 55.2629 38.1495 54.841 38.5715C54.419 38.9934 53.8467 39.2305 53.25 39.2305H51Z" fill="#F4F6F8"/>
<path d="M69 34.7305C69.3978 34.7305 69.7793 34.5724 70.0607 34.2911C70.342 34.0098 70.5 33.6283 70.5 33.2305C70.5 32.8326 70.342 32.4511 70.0607 32.1698C69.7793 31.8885 69.3978 31.7305 69 31.7305H63C62.6022 31.7305 62.2206 31.8885 61.9393 32.1698C61.658 32.4511 61.5 32.8326 61.5 33.2305V54.2304C61.5 54.6283 61.658 55.0098 61.9393 55.2911C62.2206 55.5724 62.6022 55.7304 63 55.7304H69C69.3978 55.7304 69.7793 55.5724 70.0607 55.2911C70.342 55.0098 70.5 54.6283 70.5 54.2304C70.5 53.8326 70.342 53.4511 70.0607 53.1698C69.7793 52.8885 69.3978 52.7304 69 52.7304H64.5V45.2305H67.5C67.8978 45.2305 68.2793 45.0724 68.5607 44.7911C68.842 44.5098 69 44.1283 69 43.7305C69 43.3326 68.842 42.9511 68.5607 42.6698C68.2793 42.3885 67.8978 42.2305 67.5 42.2305H64.5V34.7305H69Z" fill="#F4F6F8"/>
<path d="M81 52.7304H76.5V45.2305H79.5C79.8978 45.2305 80.2794 45.0724 80.5607 44.7911C80.842 44.5098 81 44.1283 81 43.7305C81 43.3326 80.842 42.9511 80.5607 42.6698C80.2794 42.3885 79.8978 42.2305 79.5 42.2305H76.5V34.7305H81C81.3978 34.7305 81.7793 34.5724 82.0607 34.2911C82.342 34.0098 82.5 33.6283 82.5 33.2305C82.5 32.8326 82.342 32.4511 82.0607 32.1698C81.7793 31.8885 81.3978 31.7305 81 31.7305H75C74.6022 31.7305 74.2206 31.8885 73.9393 32.1698C73.658 32.4511 73.5 32.8326 73.5 33.2305V54.2304C73.5 54.6283 73.658 55.0098 73.9393 55.2911C74.2206 55.5724 74.6022 55.7304 75 55.7304H81C81.3978 55.7304 81.7793 55.5724 82.0607 55.2911C82.342 55.0098 82.5 54.6283 82.5 54.2304C82.5 53.8326 82.342 53.4511 82.0607 53.1698C81.7793 52.8885 81.3978 52.7304 81 52.7304Z" fill="#F4F6F8"/>
<path d="M24 45C24 48.135 21.195 50.88 16.875 51.99C16.2568 52.143 15.6309 52.2632 15 52.35C14.5032 52.4254 14.0023 52.4705 13.5 52.485C13.245 52.5 13.005 52.5 12.75 52.5C2.955 52.5 1.5 47.805 1.5 45C1.5 42.195 2.955 37.5 12.75 37.5C13.005 37.5 13.245 37.5 13.5 37.515V40.53C13.2508 40.5047 13.0004 40.4947 12.75 40.5C7.275 40.5 4.5 42.015 4.5 45C4.5 47.985 7.275 49.5 12.75 49.5C13.0004 49.5053 13.2508 49.4953 13.5 49.47C14.0035 49.4538 14.505 49.3986 15 49.305C15.3807 49.2619 15.757 49.1866 16.125 49.08C19.035 48.345 21 46.695 21 45C21 44.6022 21.158 44.2207 21.4393 43.9393C21.7206 43.658 22.1022 43.5 22.5 43.5C22.8978 43.5 23.2793 43.658 23.5607 43.9393C23.842 44.2207 24 44.6022 24 45Z" fill="#FFEAEE"/>
<defs>
<linearGradient id="paint0_linear_1037_1117" x1="50.25" y1="19.5" x2="50.25" y2="70.5" gradientUnits="userSpaceOnUse">
<stop stop-color="#F00A3B"/>
<stop offset="1" stop-color="#FF5177"/>
</linearGradient>
</defs>
</svg>
