<svg width="60" height="60" viewBox="0 0 60 60" fill="none" xmlns="http://www.w3.org/2000/svg">
<path d="M49.3359 7.03125C49.3359 10.8984 46.1719 14.0625 42.3047 14.0625V10.5469C44.2383 10.5469 45.8203 8.96484 45.8203 7.03125C45.8203 5.09766 44.2383 3.51562 42.3047 3.51562C41.0742 3.51562 39.9843 4.14825 39.3164 5.16769C37.4533 8.15643 34.7461 10.9337 31.0547 13.7109L30 12.3047L28.9453 13.7109C25.2539 10.9337 22.5467 8.15643 20.6836 5.16769C20.0157 4.14825 18.9258 3.51562 17.6953 3.51562C15.7617 3.51562 14.1797 5.09766 14.1797 7.03125C14.1797 8.96484 15.7617 10.5469 17.6953 10.5469V14.0625C13.8281 14.0625 10.6641 10.8984 10.6641 7.03125C10.6641 3.16406 13.8281 0 17.6953 0C20.121 0 22.3361 1.23047 23.6366 3.3046C25.1134 5.625 27.2227 7.83966 30 10.0548C32.7773 7.83966 34.8866 5.625 36.3634 3.3046C37.6639 1.23047 39.879 0 42.3047 0C46.1719 0 49.3359 3.16406 49.3359 7.03125Z" fill="#FFD6DD"/>
<path d="M49.3359 7.03125C49.3359 10.8984 46.1719 14.0625 42.3047 14.0625V10.5469C44.2383 10.5469 45.8203 8.96484 45.8203 7.03125C45.8203 5.09766 44.2383 3.51562 42.3047 3.51562C41.0742 3.51562 39.9843 4.14825 39.3164 5.16769C37.4533 8.15643 34.7461 10.9337 31.0547 13.7109L30 12.3047V10.0548C32.7773 7.83966 34.8866 5.625 36.3634 3.3046C37.6639 1.23047 39.879 0 42.3047 0C46.1719 0 49.3359 3.16406 49.3359 7.03125Z" fill="#FFD6DD"/>
<path d="M56.4844 21.0938V60H35.2734L31.7578 56.4844H28.2422L24.7266 60H3.51562V21.0938H56.4844Z" fill="#F10E3F"/>
<path d="M60 10.5469V24.6094H0V10.5469H24.7266L28.2422 14.0625H31.7578L35.2734 10.5469H60Z" fill="url(#paint0_linear_1037_1145)"/>
<path d="M60 10.5469V24.6094H30V14.0625H31.7578L35.2734 10.5469H60Z" fill="url(#paint1_linear_1037_1145)"/>
<path d="M24.7266 10.5469H35.2734V60H24.7266V10.5469Z" fill="#FFEAEE"/>
<path d="M30 10.5469H35.2734V60H30V10.5469Z" fill="#FFEAEE"/>
<defs>
<linearGradient id="paint0_linear_1037_1145" x1="30" y1="10.5469" x2="30" y2="24.6094" gradientUnits="userSpaceOnUse">
<stop stop-color="#F31342"/>
<stop offset="1" stop-color="#FC3E67"/>
</linearGradient>
<linearGradient id="paint1_linear_1037_1145" x1="45" y1="10.5469" x2="45" y2="24.6094" gradientUnits="userSpaceOnUse">
<stop stop-color="#F10D3D"/>
<stop offset="1" stop-color="#FD466E"/>
</linearGradient>
</defs>
</svg>
