<svg width="59" height="54" viewBox="0 0 59 54" fill="none" xmlns="http://www.w3.org/2000/svg">
<path d="M58.3745 47.5987C58.3664 51.3503 56.2203 53.5442 52.5216 53.5524C44.7096 53.5687 36.9057 53.5605 29.1018 53.5605C21.3548 53.5605 13.6079 53.5687 5.86088 53.5524C2.11339 53.5524 0.0160998 51.4319 0.0160998 47.6395C-0.00015827 34.9737 -0.00015827 22.3079 0.0160998 9.64205C0.0160998 5.86596 1.95894 3.81888 5.76333 3.49265C17.0139 2.53027 28.2889 1.57606 39.5395 0.597371C41.3441 0.442413 43.1488 0.214053 44.9534 0.0264714C46.7012 -0.169266 47.7823 0.727862 47.8555 2.47318C47.9043 3.41109 47.7905 4.36531 47.8961 5.29506C48.0912 7.04854 47.3027 7.51341 45.6607 7.50526C36.3936 7.46448 27.1102 7.47263 17.8187 7.48079H9.91727C9.60024 7.48079 9.27508 7.45632 8.94992 7.44817C8.77108 7.44001 8.59224 7.43185 8.42153 7.44817H6.64127C6.12101 7.44817 5.64953 7.66021 5.30811 8.00275C4.96669 8.34529 4.75533 8.81832 4.75533 9.34029C4.75533 10.3842 5.60075 11.2324 6.64127 11.2324H17.5586C28.9148 11.265 40.263 11.2895 51.6192 11.1672C55.5618 11.1182 58.5452 13.3284 58.4395 18.0914C58.22 27.919 58.3745 37.7629 58.3745 47.5987Z" fill="#E01D3D"/>
</svg>
