<svg width="326" height="56" viewBox="0 0 326 56" fill="none" xmlns="http://www.w3.org/2000/svg">
<g clip-path="url(#clip0_1775_1011)">
<path d="M78.7681 23.5919L78.7572 31.771L86.5338 31.782L86.5447 23.6028L90.4193 23.6083L90.3921 44.3674L86.5174 44.3619L86.5283 35.7296L78.7518 35.7132L78.7409 44.351L74.8662 44.3455L74.8935 23.5864L78.7681 23.5919Z" fill="#433F41"/>
<path d="M107.203 23.6252L107.198 27.5728L98.6744 27.5619L98.6689 32.0227L106.342 32.0336L106.336 35.9813L98.6635 35.9703L98.658 40.4312L107.181 40.4421L107.176 44.3897L94.7725 44.3733L94.7997 23.6143L107.203 23.6252Z" fill="#433F41"/>
<path d="M120.703 23.6466L127.973 44.4166L123.695 44.4111L122.098 39.5189L114.992 39.508L113.384 44.3947L109.106 44.3893L116.403 23.6411L120.703 23.6466ZM119.226 30.7337L118.561 28.3586L117.891 30.7282L116.229 35.675L120.85 35.6805L119.226 30.7337Z" fill="#433F41"/>
<path d="M134.468 23.6632L134.447 40.4747L142.545 40.4856L142.539 44.4332L130.566 44.4168L130.594 23.6577L134.468 23.6632Z" fill="#433F41"/>
<path d="M142.108 27.6161L142.114 23.6685L156.681 23.6848L156.675 27.6324L151.329 27.627L151.307 44.4385L147.433 44.433L147.454 27.6215L142.108 27.6161Z" fill="#433F41"/>
<path d="M163.444 23.6954L163.433 31.8745L171.21 31.8855L171.22 23.7063L175.095 23.7118L175.068 44.4709L171.193 44.4654L171.204 35.8276L163.428 35.8167L163.417 44.4545L159.542 44.449L159.569 23.6899L163.444 23.6954Z" fill="#433F41"/>
<path d="M179.569 39.5842C178.681 37.9244 178.239 36.0953 178.239 34.0914C178.239 32.0876 178.692 30.2585 179.58 28.6041C180.474 26.9442 181.7 25.6447 183.258 24.6892C184.817 23.7392 186.534 23.2642 188.403 23.2642C191.324 23.2696 193.771 24.4326 195.749 26.764L193.019 29.5924C191.754 28.0089 190.223 27.2172 188.425 27.2118C187.247 27.2118 186.185 27.4957 185.231 28.0635C184.277 28.6314 183.525 29.4395 182.969 30.4769C182.414 31.5143 182.136 32.721 182.136 34.0914C182.136 35.4619 182.408 36.6686 182.959 37.7114C183.509 38.7488 184.261 39.5569 185.215 40.1302C186.168 40.7035 187.231 40.9929 188.408 40.9929C190.386 40.9929 192.07 40.0811 193.465 38.252L196.212 41.0584C195.193 42.3525 194.032 43.3244 192.719 43.9686C191.411 44.6129 189.961 44.9351 188.375 44.9351C186.506 44.9351 184.79 44.4546 183.231 43.4991C181.678 42.5545 180.457 41.2441 179.569 39.5842Z" fill="#433F41"/>
<path d="M209.362 23.7501L216.632 44.5201L212.354 44.5146L210.757 39.6224L203.651 39.6115L202.044 44.4983L197.766 44.4928L205.063 23.7446L209.362 23.7501ZM207.88 30.8427L207.215 28.4676L206.545 30.8372L204.883 35.784L209.504 35.7895L207.88 30.8427Z" fill="#433F41"/>
<path d="M226.36 23.7722C227.624 23.7722 228.758 24.0561 229.755 24.6185C230.752 25.1808 231.521 25.9671 232.066 26.9827C232.605 27.9928 232.878 29.1285 232.878 30.3843C232.878 31.7384 232.48 32.9341 231.684 33.9715C230.889 35.0089 229.924 35.7569 228.78 36.2101L228.752 36.2647L233.875 44.1054V44.5367L229.521 44.5312L224.584 36.8326H223.112L223.101 44.5258L219.227 44.5203L219.254 23.7612L226.36 23.7722ZM228.235 32.2571C228.725 31.7547 228.97 31.1105 228.97 30.3297C228.97 29.5871 228.742 28.9537 228.278 28.4296C227.815 27.9054 227.183 27.6433 226.382 27.6433L223.123 27.6379L223.118 33.016L226.327 33.0215C227.107 33.0105 227.744 32.7594 228.235 32.2571Z" fill="#433F41"/>
<path d="M248.866 23.799L248.861 27.7466L240.337 27.7357L240.332 32.1966L248.005 32.2075L248 36.1551L240.327 36.1442L240.321 40.605L248.844 40.6159L248.839 44.5636L236.436 44.5472L236.463 23.7881L248.866 23.799Z" fill="#433F41"/>
<path d="M264.152 23.8214L271.831 37.5534L271.624 33.7477L271.635 23.8268L275.482 23.8323L275.455 44.5914L271.444 44.5859L263.335 30.0786L263.542 33.8842L263.531 44.575L259.711 44.5695L259.744 23.8159L264.152 23.8214Z" fill="#E12A41"/>
<path d="M279.946 39.6938C279.068 38.0231 278.627 36.1994 278.627 34.2174C278.627 32.2354 279.074 30.4118 279.957 28.741C280.839 27.0757 282.06 25.7653 283.608 24.8152C285.161 23.8652 286.878 23.3901 288.769 23.3901C290.66 23.3901 292.376 23.8706 293.924 24.8261C295.472 25.7816 296.687 27.092 297.57 28.7628C298.447 30.4336 298.889 32.2572 298.889 34.2392C298.889 36.2212 298.442 38.0449 297.559 39.7157C296.676 41.3864 295.455 42.6914 293.908 43.6414C292.354 44.5915 290.638 45.0665 288.747 45.0665C286.856 45.0665 285.139 44.586 283.592 43.6305C282.038 42.675 280.823 41.3646 279.946 39.6938ZM294.18 37.8265C294.736 36.7891 295.014 35.5933 295.014 34.2392C295.014 32.8852 294.741 31.6894 294.191 30.652C293.641 29.6146 292.889 28.801 291.935 28.2168C290.981 27.6326 289.929 27.3432 288.769 27.3432C287.608 27.3432 286.562 27.6326 285.613 28.2114C284.671 28.7901 283.919 29.5982 283.363 30.6411C282.807 31.6785 282.529 32.8742 282.529 34.2283C282.529 35.5824 282.801 36.7782 283.352 37.8156C283.902 38.853 284.649 39.6665 285.592 40.2508C286.534 40.835 287.586 41.1244 288.747 41.1244C289.908 41.1244 290.959 40.835 291.913 40.2562C292.872 39.672 293.624 38.8639 294.18 37.8265Z" fill="#E12A41"/>
<path d="M304.594 23.8702L307.226 35.4837L307.521 37.5149L307.924 35.4837L311.33 23.8811L315.101 23.8866L318.398 35.5001L318.796 37.4712L319.09 35.5001L321.722 23.892L326 23.8975L320.976 44.6511L316.889 44.6457L313.619 32.1749L313.221 30.0892L312.818 32.1749L309.357 44.6348L305.428 44.6293L300.316 23.8647L304.594 23.8702Z" fill="#E12A41"/>
</g>
<path d="M60.2226 49.6289C60.2142 53.4992 58.0002 55.7626 54.1845 55.771C46.1252 55.7878 38.0744 55.7794 30.0236 55.7794C22.0315 55.7794 14.0393 55.7878 6.0472 55.771C2.18112 55.771 0.0174622 53.5834 0.0174622 49.671C0.000689671 36.6043 0.000689671 23.5377 0.0174622 10.4711C0.0174622 6.57551 2.02178 4.46365 5.94656 4.1271C17.5532 3.13427 29.1849 2.14986 40.7916 1.1402C42.6533 0.980338 44.5151 0.744752 46.3768 0.551235C48.1799 0.349304 49.2953 1.27482 49.3707 3.07537C49.4211 4.04296 49.3036 5.02737 49.4127 5.98655C49.6139 7.79551 48.8005 8.2751 47.1064 8.26668C37.5461 8.22462 27.9689 8.23303 18.3834 8.24144H10.232C9.90489 8.24144 9.56944 8.2162 9.23399 8.20779C9.04949 8.19937 8.86499 8.19096 8.68888 8.20779H6.85228C6.31556 8.20779 5.82916 8.42655 5.47693 8.77993C5.12471 9.13331 4.90666 9.6213 4.90666 10.1598C4.90666 11.2368 5.77884 12.1118 6.85228 12.1118H18.1151C29.8307 12.1454 41.5379 12.1707 53.2536 12.0445C57.3209 11.994 60.3987 14.2741 60.2897 19.1878C60.0632 29.3264 60.2226 39.4819 60.2226 49.6289Z" fill="#E01D3D"/>
<path d="M26.6269 30.2103C27.7675 29.0576 28.8074 28.0143 29.8389 26.9626C29.8976 26.9037 29.9143 26.6934 29.864 26.6513C28.8996 25.7426 28.0945 24.632 26.8701 24.0178C26.0818 23.6223 25.2767 23.2774 24.3542 23.2858C23.3647 23.2942 22.3499 23.2269 21.419 23.6223C20.4546 24.0346 19.5237 24.5647 18.8528 25.4145C18.2742 26.1465 17.7375 26.9289 17.511 27.8713C17.293 28.78 17.2511 29.6887 17.3349 30.6394C17.4272 31.6659 17.7794 32.5578 18.3077 33.3739C18.7522 34.0554 19.3476 34.6444 19.9179 35.2334C21.1087 36.4618 22.3331 37.6734 23.5492 38.8849C25.8889 41.2072 28.2203 43.5378 30.5769 45.8516C31.6671 46.9201 31.4658 48.6113 29.8556 49.1582C29.1596 49.3938 28.5306 49.0152 28.0358 48.5272C25.9057 46.4405 23.784 44.3455 21.679 42.2336C20.1276 40.6771 18.5761 39.1205 17.0582 37.5303C16.2363 36.6721 15.4145 35.7971 14.8442 34.7285C14.1985 33.5001 13.7037 32.2212 13.6701 30.8161C13.645 29.7644 13.6785 28.7043 13.7791 27.6525C13.8211 27.173 14.1481 26.727 14.232 26.2474C14.3662 25.4397 14.8274 24.8087 15.2551 24.1776C15.6996 23.5214 16.2279 22.9156 16.7814 22.3518C17.2427 21.8891 17.7542 21.46 18.3161 21.1234C18.9283 20.7448 19.616 20.4924 20.2785 20.1811C20.3791 20.1306 20.4965 20.1054 20.6056 20.0717C21.0333 19.9371 21.461 19.7099 21.8971 19.6931C23.1382 19.6426 24.3962 19.5501 25.6122 19.7183C26.5598 19.8529 27.4823 20.3073 28.3797 20.7027C30.1659 21.5021 31.3987 22.9829 32.7405 24.3291C34.4094 25.995 36.0615 27.6694 37.7304 29.3353C38.1245 29.7307 38.5019 30.101 38.6948 30.6731C38.9044 31.2873 38.5774 32.1792 38.0742 32.5494C37.3949 33.0626 36.6653 33.2141 36.0363 32.6924C35.2983 32.0866 34.6274 31.3967 33.9398 30.7404C33.5792 30.3954 33.2437 30.0336 32.9082 29.6718C32.7238 29.4699 32.556 29.4783 32.3631 29.6718C31.4239 30.6058 30.4762 31.5229 29.5453 32.4568C29.4028 32.5998 29.2854 32.7429 29.5621 33.0037C30.5685 33.9545 31.5077 34.9725 32.4805 35.9654C33.1011 36.6048 33.7217 37.2443 34.3423 37.8669C34.6694 38.195 35.0132 38.4979 35.4157 38.8681C35.8015 38.4643 36.2376 38.0015 36.6821 37.5387C37.5123 36.6805 38.3426 35.8139 39.1896 34.9725C40.0114 34.1648 40.741 33.3066 41.1687 32.2212C41.6551 30.9844 41.7893 29.7392 41.4958 28.4098C41.0094 26.2306 39.7934 24.7077 37.7807 23.7822C36.9924 23.4204 36.1621 23.3194 35.3235 23.1848C35.1893 23.1596 35.03 23.1091 34.9377 23.0165C34.1326 22.2256 33.3276 21.4179 32.5393 20.6102C32.3967 20.4672 32.3044 20.2652 32.1535 20.0381C32.6063 19.895 32.9753 19.6931 33.3611 19.6763C34.552 19.6342 35.7596 19.5332 36.9337 19.6931C38.1245 19.8614 39.2734 20.3241 40.3385 20.9552C41.6048 21.7124 42.6531 22.6716 43.4833 23.8832C44.062 24.7245 44.582 25.608 44.8084 26.6176C45.0264 27.5768 45.2864 28.536 45.3787 29.5036C45.4457 30.1598 45.2696 30.8498 45.169 31.5145C44.9593 32.9027 44.4226 34.1816 43.6595 35.3512C43.3408 35.8392 42.9886 36.3187 42.5776 36.7394C40.632 38.7251 38.6529 40.6855 36.6905 42.6543C36.3047 43.0414 35.8518 43.2181 35.3067 43.2349C34.4849 43.2517 34.0656 42.6459 33.5792 42.1663C31.4155 40.0124 29.2686 37.8416 27.1133 35.6709C25.0168 33.559 22.9034 31.4556 20.8236 29.3269C20.0185 28.5023 20.3288 26.9205 21.5952 26.4746C22.5931 26.1212 23.1802 26.5419 23.784 27.1898C24.7149 28.2078 25.6625 29.1923 26.6269 30.2103Z" fill="white"/>
<defs>
<clipPath id="clip0_1775_1011">
<rect width="251.134" height="21.7965" fill="white" transform="translate(74.8662 23.27)"/>
</clipPath>
</defs>
</svg>
