<svg width="23" height="22" viewBox="0 0 23 22" fill="none" xmlns="http://www.w3.org/2000/svg">
<path d="M9.62211 8.31483C10.4198 7.48717 11.1471 6.73806 11.8685 5.9829C11.9096 5.94061 11.9213 5.78958 11.8861 5.75937C11.2116 5.10691 10.6485 4.30947 9.7922 3.86846C9.24087 3.58452 8.6778 3.33682 8.03262 3.34286C7.34052 3.34891 6.63083 3.30058 5.97978 3.58452C5.30528 3.88054 4.65424 4.26114 4.18502 4.8713C3.78031 5.39689 3.40494 5.95873 3.24657 6.63535C3.09408 7.28781 3.06475 7.94027 3.1234 8.62293C3.18792 9.35997 3.43426 10.0003 3.80377 10.5863C4.11463 11.0757 4.53107 11.4986 4.9299 11.9215C5.76277 12.8035 6.6191 13.6734 7.46956 14.5434C9.10597 16.2108 10.7365 17.8842 12.3846 19.5455C13.1471 20.3128 13.0064 21.5271 11.8802 21.9198C11.3934 22.0889 10.9535 21.8171 10.6075 21.4667C9.1177 19.9684 7.63379 18.4641 6.16161 16.9478C5.07654 15.8302 3.99146 14.7125 2.92985 13.5707C2.35506 12.9545 1.78026 12.3262 1.38142 11.559C0.929799 10.677 0.583748 9.75869 0.560287 8.7498C0.542691 7.99464 0.566153 7.23344 0.636536 6.47828C0.665862 6.13393 0.894606 5.81374 0.953259 5.46939C1.0471 4.88943 1.36969 4.43633 1.66882 3.98324C1.97968 3.51202 2.34919 3.07705 2.7363 2.67228C3.05889 2.34002 3.41667 2.03191 3.80964 1.79026C4.2378 1.5184 4.71875 1.33717 5.18211 1.11364C5.25249 1.07739 5.33461 1.05927 5.41085 1.0351C5.70998 0.938441 6.00911 0.775328 6.3141 0.763246C7.18216 0.726998 8.06195 0.660543 8.91241 0.781369C9.57519 0.878029 10.2204 1.20426 10.8479 1.4882C12.0972 2.06212 12.9594 3.12538 13.8979 4.09198C15.0651 5.28815 16.2205 6.49037 17.3877 7.68654C17.6634 7.97047 17.9273 8.23629 18.0622 8.6471C18.2088 9.08811 17.9801 9.72848 17.6282 9.9943C17.1531 10.3628 16.6428 10.4716 16.2029 10.097C15.6868 9.66203 15.2176 9.16664 14.7366 8.69543C14.4844 8.44773 14.2498 8.18796 14.0152 7.92818C13.8862 7.78319 13.7688 7.78924 13.6339 7.92818C12.977 8.59876 12.3143 9.25726 11.6632 9.92784C11.5635 10.0305 11.4814 10.1332 11.6749 10.3205C12.3788 11.0032 13.0357 11.7342 13.7161 12.4471C14.1501 12.9062 14.5841 13.3653 15.0181 13.8124C15.2469 14.048 15.4874 14.2655 15.7689 14.5313C16.0387 14.2413 16.3437 13.909 16.6546 13.5768C17.2352 12.9606 17.8159 12.3383 18.4083 11.7342C18.9831 11.1542 19.4933 10.538 19.7925 9.75869C20.1327 8.87062 20.2265 7.97651 20.0212 7.02199C19.681 5.45731 18.8306 4.36384 17.4229 3.6993C16.8716 3.43952 16.2909 3.36703 15.7044 3.27037C15.6105 3.25225 15.4991 3.216 15.4346 3.14954C14.8715 2.58167 14.3084 2.0017 13.7571 1.42174C13.6574 1.31904 13.5929 1.17405 13.4873 1.01094C13.804 0.908236 14.0621 0.763245 14.3319 0.751163C15.1648 0.720956 16.0094 0.648461 16.8305 0.763246C17.6634 0.884071 18.4669 1.21634 19.2118 1.66944C20.0975 2.21315 20.8306 2.90185 21.4113 3.7718C21.816 4.37592 22.1796 5.01025 22.338 5.73521C22.4905 6.42391 22.6723 7.11261 22.7368 7.80736C22.7837 8.27858 22.6606 8.77396 22.5902 9.25122C22.4436 10.248 22.0682 11.1663 21.5344 12.006C21.3116 12.3564 21.0652 12.7008 20.7778 13.0028C19.4171 14.4286 18.0329 15.8362 16.6604 17.2499C16.3906 17.5278 16.0739 17.6546 15.6926 17.6667C15.1179 17.6788 14.8246 17.2438 14.4844 16.8995C12.9712 15.3529 11.4697 13.7943 9.96229 12.2356C8.49598 10.7192 7.01793 9.20893 5.56335 7.68049C5.00029 7.08845 5.2173 5.95269 6.10295 5.6325C6.80092 5.37877 7.21149 5.68083 7.63379 6.14601C8.28483 6.87701 8.9476 7.58383 9.62211 8.31483Z" fill="white"/>
</svg>
